<mxfile host="app.diagrams.net" modified="2020-10-14T05:04:04.008Z" agent="5.0 (X11; Linux x86_64) AppleWebKit/537.36 (KHTML, like Gecko) Chrome/80.0.3987.149 Safari/537.36" etag="fl76oaAWU4yl4omDeQsh" version="13.7.9" type="github">
  <diagram id="ob7Qs-fWa8IsZb0hbwl0" name="Page-1">
    <mxGraphModel dx="1365" dy="877" grid="1" gridSize="10" guides="1" tooltips="1" connect="1" arrows="1" fold="1" page="1" pageScale="1" pageWidth="1654" pageHeight="2336" math="0" shadow="0">
      <root>
        <mxCell id="0" />
        <mxCell id="1" parent="0" />
        <mxCell id="C5NoB3EoUQN5JIVtnTHw-1" value="" style="shape=image;verticalLabelPosition=bottom;labelBackgroundColor=#ffffff;verticalAlign=top;aspect=fixed;imageAspect=0;image=data:image/png,iVBORw0KGgoAAAANSUhEUgAAAHEAAABJCAYAAAAKV8kQAAAgAElEQVR4Ae3BaYydZ33A7d/9rOc8Z599PIt3x7GTmCwQQEpoBWolhIxUlVCqRKUE1BSa5gPwoXypBAKEKFWBFihpgQikFkEBVRRVSKFQJCqgkLDYJDgZPB6PPduZc+Ysz37f/ze3xOj1i7pQlvRN6HUpEeH//H996EMfEn7svvvuU1zj/e9/v9x///2K/x9RIsKvqk9+8pOSpilf+tKXsNI0xcrznNFohHXixAkmJiaw0jRle3ubOI7J85zJyUn+9m//VvG/TIkIv2pe8pKXCE9RSmGJCLu7u+wrioKiKLAqlQr1ep1KpYIVxzFWEAQ0m00cx2FychIRoSgKrJe//OX89m//tuJpokSEZ7s//MM/lDzPOXfuHHme4zgO+3q9Hla1WmWf1hoRwXJdF9/38TwPS2tNWZZorQmCANd1cV0Xq9lsUq1WabfbvOxlL6NWq/Gyl71M8UumRIRns3vvvVe+8Y1vICJYjuNgaa3J8xxjDFa1WmWf1hrXdbmW4zi4rotVliVaa1zXRSmFVZYlluu6NBoNpqenmZ+fR0TwfR/rjjvu4JWvfKXiF0yJCM9mp06dEp4iIiilUErhOA7GGIwxWNVqlU6nw740TblWnudkWUar1cLK8xytNXmes68sSyzHcVBKEUURs7OzWFNTU1iVSoUXvOAF3HPPPYpfICUiPFudOnVKuIZSCsdxcByHRqOBFYYh7XabSqWC67rscxwH13XZ1+v12FcUBePxmDiO2ae1pixLiqLAGINSikqlgud5BEHA4uIitVqNRqPBLbfcwj333KP4BVEiwrPNbbfdJlmWobVmn+u6VCoVpqen8TyPer1OFEWEYUin08HzPFqtFlZRFFhBEGCNRiP6/T6WMQZrNBqxtbXFaDTCKsuSoihI05SiKNBa4zgO+xqNBo1Gg6WlJRqNBqdPn+a1r32t4hdAiQjPFjfccIPwFKUUxhhEBKUUnU6HMAyZnp7G930WFhaIoohKpYLneURRhO/7eJ6H53lorbFc18XK85zRaIQlIhRFQZIk7OzskCQJw+GQLMsoy5KdnR201hRFQVEUiAgigojgeR6NRoOTJ0/SaDSYnJyk2Wxy6tQpXvKSlyh+RkpEeDa44YYbhGsopahUKlQqFSqVCgcOHGB2dpZGo0EURXieh+d5eJ5HpVJBKYXv+3ieh+M4WMYYRARjDGmaIiKICHmek+c5g8GAOI7Z3d3FyrKMJElIkoTt7W2sOI7RWmOMQURQStFsNnFdl4MHD3LdddfRbrc5c+YML3rRixQ/AyUiPBucPn1anoLjOFQqFSqVCrOzs9TrdcIw5NChQyilmJiYwPd9lFJ4nsc+3/dRSuE4Do7jYBljEBGKokBEMMZgiQhlWRLHMXt7e5RlSZIkWFprxuMxu7u7bG1tkWUZSZJgjKEsS/Z5nofv+xw7dozDhw9zyy238IpXvELxM1AiwrPB6dOnhac4jsOBAwdYXFxkdnaWIAioVqu0Wi0cx8H3fTzPIwgCrLIssVzXxRqPx+wLgoAkSRgMBszNzeH7Pp7n4fs+WZYxHA6J45iiKBiPxxhjKIqCJEkYj8fs7e0RxzFra2uICEVRYIxhn1KKSqXCsWPHOH78OC94wQt46UtfqvgfUiLCM91tt90mSZJgLS4usri4yMLCAo1GgyAICIIA13XxfR/f9wnDEGMMVlmW7O3tkSQJZVnS7/exlFJYRVGQ5zmLi4u0220mJibwfZ8sy0iShKIoSNMUK8sy8jxnPB4zHA7J85wkSej1emxvb5OmKXmeY4zhWnNzczQaDU6cOMFzn/tcXvGKVyj+B5SI8Ex25513SrfbxZqenubo0aMsLCzQarXwPA/HcfA8D8dx8DyPMAyJ45h+v09RFIzHY/I8J45jdnd3ybIMx3HIsoxrRVHE/Pw8R44cQSmF1Ww2ybKMsiyxjDEURUGapozHY8bjMWVZMh6P6fV65HnO3t4e4/EYrTXGGIwxiAgLCwvU63VuuOEGZmZmeOCBBxQ/JSUiPFPdeeedsrW1heM4NJtNlpaWWF5e5sCBA/i+j1IKx3FQSmHt7u6S5zm9Xg+tNSsrK8RxjDGGNE2x8jxHa42llCIMQ/bNz88TRRFaa5RS3HzzzViO42CFYci+brdLWZbkeU5ZlvR6PdI0JcsyRqMR4/GYLMvI85yyLAnDkGq1yuzsLGfOnGFmZoYHHnhA8VNQIsIz0Yte9CLZ3NzECoKA48ePc+jQIWZmZqjX6/ykzc1Ntre3WVlZYW1tDRFBKUVZllhaayxjDJbruoRhiFIKKwxDrCzLsKrVKsvLy7Tbbax6vc7U1BRRFJGmKSLCaDRCRCiKgqIo6PV6aK3J85x+v0+SJGRZRpZlWK7rEgQBs7OzPOc5z+Ho0aP8/u//vuK/oUSEZ6IjR45IEAQ4jsOxY8c4fvw4k5OTNBoNfN9HKYXv+6Rpys7ODisrK1y4cIHt7W1EBEsphdaaaxljsFzXpV6vs69SqdDv9xERjDE4joM1OTlJEAS4rsuhQ4eYnp6mXq8TxzHGGEQEK89z0jQljmPKsiRJEvb29kiShCzLKMuSsizxPI/JyUluuukmjh8/zhve8AbFf0OJCM80z3/+82UwGGAtLS1x8OBBJicnmZycJAxDfN9HKYW1ubnJo48+yubmJpubm4gISimUUszNzWENh0NGoxGHDx/GcRysWq1GGIZkWUae55RlyXg8ZjweMxwOcRyHfUEQUK/XqVQqLC8vMzc3h6WUwhIRiqIgyzK01qRpSlEUJElCkiSMRiOSJCFJEqxKpcLp06c5fPgwMzMzvOENb1D8F5SI8Exz2223idaaarXK4uIi09PTLCwsEAQBSikcx8EaDAZ85zvf4cqVK/R6PcqyxHIch+XlZRqNBkmScPToUaampnjrW9+q+Akf/OAHZTQa8eSTT5KmKd1ul+FwyHg8ZjgcIiJYvu8ThiGNRoODBw/SbrcJggDHcbCyLENrTVmWGGPIsoyiKCjLkiRJGI/H9Pt98jxHKUWtVuP48eMcPnyY+fl57rvvPsV/QokIzyS/9mu/JqPRCCsIApaXlzl9+jSVSoV9eZ6TZRmPPfYY3W6Xq1evkmUZluu6HDx4kFtuuYUwDHnrW9+q+B9417veJbu7u2xsbLC6usrW1haW4zhYSikmJyeZmZlhYmKCKIowxqC1pigKlFKICFprLK01cRwTxzHj8Zjd3V201iiliKKI5eVlTp48yfz8PPfdd5/iP6BEhGeS5z//+ZJlGVa1WuX2229nbm4Oz/MwxpDnOVmWsbW1xe7uLhcuXCDLMrIsIwgCFhcXueWWW3jXu96l+Dm8613vkt3dXZ544gmsxx9/HCvPc8IwpNPpMDExQavVolqtYozBUkphGWO4VpIkjEYjdnd3GQwGiAhKKWZmZuh0Otx6662cPHmSs2fPKn6CEhGeSZ7//OfLcDhEKcXBgwc5ceIER44cwcrznDiO2d7eZmdnh/X1dba3t9m3sLDAjTfeyJ//+Z8rfkE+8pGPyPnz59nZ2eHrX/86Wmtc18V1XTqdDr7vMzs7SxAEeJ6H4zhYIoJSCsdxcF2XoigYDofEcUyv12M4HCIiuK7LoUOHOHbsGKdPn+b3fu/3FD9BiQjPJNdff708hampKTqdDtdffz0HDx7EyrKMfr/P1atXWVtbY3t7myRJsMIw5Pbbb+dDH/qQ4hfsIx/5iGxvb/PYY4/xzW9+k32O41CtVqnVaszMzBCGIZbjOOyrVqtYRVFQliXj8Zhut8tgMCDPc6x2u82hQ4c4c+YMN9xwA7/xG7+huIYSEZ5JbrrpJuEpCwsLLC8vMzMzw8zMDFZRFOzs7HD16lVWV1fp9XpkWYbv+xw5coTPfvazil+Sj3/843Lp0iWeeOIJvv3tbyMiWJ7n4fs+09PTVKtVgiDAdV2UUriuS6VSwcrznCzLyLKMwWDAcDhkMBggIoRhyPz8PKdPn+aGG27gnnvuUVxDiQjPJGfOnBGe0m63OXnyJAcOHKDZbOJ5HmVZsr29zerqKqurq+zs7GDNzMwwNTXFZz7zGcUv2Tve8Q555JFHSNOUjY0NtNb4vk+1WqVer1OtVgmCgCAIqFarWHmek+c5eZ6jtWY4HDIcDhkOh4gIjuPQbDaZm5vj1KlTnDx5kle96lWKH1MiwjPJmTNnhKe0222OHz/O0tISzWYTyxhDv99nZWWF1dVVdnd3sY4cOcLhw4d5//vfr3gavP3tb5dHH32UNE3Z2NhAa021WiUIAmq1GlEUUavViKIIK45jkiRBa42Vpim9Xo+yLInjGCsMQ5aWljh69ChHjx7lvvvuU/yYEhGeKc6ePSurq6tY7XabgwcPcuzYMRqNBpYxhn6/z8rKCqurq4zHY6yFhQWOHj3Ke9/7XsXT5E//9E/l/PnzbG9vMxgMsGq1Gr7vMzk5Sb1eJwgCPM9jNBqR5zlaa0SELMtI05TRaMR4PMZSStFutzl16hSnT5/mDW94g+LHlIjwi/bQQw/JaDRiZWWFnZ0d9o3HY0SEOI6xWq0W1t///d8rfgpnz56Vxx9/HM/zmJmZYWlpiRMnTlCr1bCSJGFnZ4dLly6xsbFBkiRY8/PznDx5kj/7sz9TPE3e9773yblz51hZWWFvb4+iKPB9nyAIaLfb1Go1oijCcRzKskRrTVEUGGMoioI0TcnznMFgQJ7nKKWo1WqcOXOGG264genpae666y7FU5SI8PN66KGHJE1TLl68iJXnOY8++ih5npNlGZbneViDwQARQSnFter1OvsmJiaYnp7moYceUlzj7Nmzcv78eVzX5cCBAywtLXHs2DHa7TbWaDRic3OT9fV1Ll68SFEUeJ7H/Pw8R48e5b3vfa/iafQXf/EX8oMf/ICVlRW63S5KKVzXpVar0Wg0iKII3/extNaICFpr8jzHGEMcxwwGA9I0xXJdl8OHD3PTTTdx6tQp7rrrLsVTlIjw8/iTP/kTGQwGbG5ukiQJ1mAwIMsyjDGMx2O01oRhiDGGfUop9pVliTEGEaFSqeD7Pp7nMTMzw+TkJA899JDiKWfPnpXV1VWUUjQaDWZnZzl58iSzs7NYcRyztrbG+vo6a2trjEYjwjBkbm6O48eP85d/+ZeKp9EnP/lJuXDhAqurq1y8eJFer4eI4HkerVaLarVKtVpFKcU+Ywxaa8qyJMsy9vb2GI1GWI7jsLi4yKlTp7jtttu46667FE9RIsLP4j3veY/s7Oywvr7OlStXyLIMYwxWURQYYzDGkCQJWmvCMMTyPA/P8wiCgDzPKYqCNE0xxiAiVCoVXNdlXxAEzMzM4DgO4/GYLMsoyxKlFI1Gg+c+97nMzc1hxXHM2toa6+vrXLlyhdFohOd5RFHEzTffzAc+8AHF0+xjH/uYXLp0iW984xtsbGwgIliVSoWpqSkqlQqO42AppRARjDFordFaMxwO6Xa75HmO7/tEUcSxY8c4deoUp06d4uzZs0qJCD+tBx98UMqyZGtri7W1NYbDIRsbG2RZxj7XdTHGYIVhSK1Ww5qZmcFK0xRLKYVVFAXj8RhjDIPBACtNU4wxWMYYHMfBcRyiKEJrjTEGpRT1ep3rrruO2dlZwjCkLEuuXr3K1atX2dnZYTweUxQF1WqV5eVlDh48yLvf/W7F0+jzn/+8bGxs8MQTT/Dtb3+bbreLFQQBzWaTer1OEAQopdhnjEFE0FpTFAW9Xo9ut4tVq9U4cOAA1113Hbfeeit33XWXUiLCT+ODH/ygFEVBr9djbW2NPM9ZXV1lPB5jeZ5Hs9lEKYXv+9RqNRYXF7Gq1SqW1horDEN83yfPc/I8ZzQaYYwhyzKs3d1dRqMR3W4XrTWWMQbP83BdFxHBdV0ajQaHDx9mamoK3/ex9vb2GAwGDAYDLl++TJ7nWMePH2dqaooPfOADiqfZpz/9aVlbW+MrX/kKly9fxvJ9n2azSa1Wo1Kp4LoultYaEcEYg4iQ5zn9fp+9vT3KsqRarXLgwAGOHDnCqVOnuOmmm1Aiwn/nE5/4hGxtbTEcDllbW6MsS65evcru7i4ignX8+HE6nQ6u6zI5OYlSilarheM45HmO1pqiKLCUUjiOg+M4WJ7nobUmz3O01mxsbGCNRiP29vbY29ujLEvyPKcsSyzHcfB9n+XlZebn56nX61hpmjIejxkOh1y8eJE4jrEmJyeZn5+n3W7z/ve/X/E0+sxnPiMbGxv867/+K2tra2RZhuM4dDodwjCk1WqhlMISEYqiQEQQEfI8J0kStre3KYoCpRQzMzMcPXqUO++8k+PHj6NEhP/Kpz71KdnZ2WFnZ4d+v0+322UwGLCzs0OSJFSrVZaXlzly5AgTExMopfA8D8sYgyUi5HmO1hqtNUopLMdx8DwPy/M89sVxjIgwHo8Zj8dsbGyQZRmDwYB+v09RFIgISinm5ubodDocOHCAIAiw0jQljmPOnz9PWZbkeU4QBCwuLtJoNPjYxz6meBr98z//s1y9epVvfetbPPnkk3S7XaxOp0MYhjQaDVzXxXEctNbkeY6IYIxBa02SJHS7XdI0xZqdneXw4cPccccdLC8vo0SE/8ynPvUpGY1GbG9vs7W1xc7ODkVRsLGxgTEGrTUHDx7kpptuot1uU5Ylxhj2GWOwiqKgKAqMMYgIllIKx3GwPM/D8zyu5boujuNgjGFtbY3BYECv1yNJErrdLnt7exhjqNVqzM/PMzExQafToVqtYnW7XYbDIRcvXqQsS6woipicnKTT6fDggw8qniZf/vKX5fLly3z3u9/lwoULbG9vY/m+T6PRoNFo4LourutiJUmCMQZjDCLCeDym2+2SZRnW1NQUhw4d4td+7de46aabUCLCf+ahhx6S7e1tdnZ26Pf7xHGM1po0Ten3+8zPz3P99dcTBAHtdpuyLMmyjDRN8TyPOI5RSrEvTVMs3/dxXRdLKYXl+z6WUoowDHFdF8dxUEqhtWZvb4+dnR3SNOXKlStcvnyZJElwHIfp6WlarRZzc3MsLi5ilWXJ+vo66+vr9Ho9jDFYURQxOTlJp9PhwQcfVDwNvvrVr8rGxgY7Ozt84xvf4NKlS2RZhlKKKIpotVoEQYDv+yilEBGSJMEYg9aaOI7p9XrEcYw1OztLp9PhN3/zNzl9+jRKRPiPfPSjH5XBYECSJPR6Pba3tynLEktrjeM4zM7O0ul0CIKAOI7JsgwrTVPW19cREayJiQms0WiE1Wg0CMMQSymF5XkejuNQr9cJggDP83Ach0qlguu6KKUQEeI45sknn+RHP/oRa2trWEEQ0Gg06HQ6nDhxglqthlWWJXmec+7cOQaDAUmSsG9iYoIDBw7wN3/zN4qnwec+9znZ29vj61//OhcuXGA4HGKFYUitVqPZbOL7Pr7vIyIYYyiKgrIsieOYnZ0dsizDiqKI6elpbrrpJl760peiRISf9OCDD0ocxyRJQpIk9Ho98jynKApc18XyfZ8gCKjValhra2uICP1+HxFhY2ODfa7rYokIVqvVIgxDPM/DdV3q9TpKKaIoIooiarUa1WoVx3HwPI9arYbneTiOQxAE9Pt9fvCDH3D+/HkGgwGW67ocOHCAmZkZpqamqFQqeJ6HMYbRaMS5c+fY2dlBa82+er3OoUOHmJ+f521ve5vil+jhhx+Wy5cv8+ijj3L+/Hl6vR5WpVKhXq/TbDaJoghLKYWIUJYlZVkyHA7Z3t4myzKsMAxZWFjgxhtv5NZbb0WJCNd68MEHJcsysiwjTVNGoxGDwYBrGWPQWuP7PtbW1hZJktDtdonjmH0igoiglMIYg+d55HmO7/tYQRCwz/M8ZmZmaDabNJtN2u029Xodz/MIw5BqtUqtVkMphdXr9XjkkUd44oknGI1GWBMTE0xOTjI5OUm9XmdqagqrLEv6/T5PPvkkW1tbZFnGvlqtxqFDh/A8j+npad72trcpfgkefvhhuXLlCufOneP73/8+m5ubWNVqlcnJScIwJIoilFL4vo/WGivLMvb29uj3+wwGA0SEMAxZXFzk5MmTnDlzBiUiXOuDH/yg5HlOWZakaUqv1yPPc4wxuK6L1po0TUmShN3dXaw4jhmPxxhj0Fqzr1KpkCQJnueR5zme55HnOb7vs09EMMZgjMH3fRzHwfd9JicnWVpaotPp0Ol0iKKIarVKvV5HKYXWmkuXLvGVr3yFfr+P1hrXdWm1WkxOTjI/P0+9XqfZbGKVZUm/3+fy5ct0u10GgwFaa7TWOI7DyZMn2XfjjTfyxje+UfEL9PDDD0uv1+ORRx7h29/+Njs7O4gIQRAwOztLEATU63U8z0MphYigtSbPc3q9HltbW6RpiuU4DkeOHOHGG2/k1KlTKBFh38c//nGJ4xhjDHEck6Yp/X4fYwxaa0SE8XhMkiR0u12yLKMoCrTWFEWB5fs+nU4HK01TrGaziZUkCVmWobUmyzLyPMcYgzEGYwxWWZbkeU69XmdxcRHXdVlaWmJqaopOp0Oz2SSKIqzNzU2eeOIJLly4QL/fxwqCgHq9zvz8PFNTU8zMzOD7Pkopsixjb2+P7e1t1tfXGY/HpGmKUgrP81BKMT09TbVaZWJiguXlZaw3v/nNip/Tww8/LL1ej0ceeYQf/vCHXLx4Ea01juMwPT1No9GgXq/j+z6O41AUBWVZUpYl3W6XjY0NyrLE8jyPW265hZMnT/LmN79ZKRFh38c//nHhKXEck6Ypu7u7xHGMMYY8zymKguFwyM7ODnmeUxQF++r1Os1mk2q1ykMPPaT4b/zu7/6ujEYjtNYMBgP29vYQEZIkoSxLrDAM8TyPTqfDwYMHmZmZYWpqipmZGaIooigKrl69yuOPP86VK1fo9Xp4nofjOBw4cICDBw/SarWo1Wp4noeVpilxHDMejxmPx/R6Pfb29hgOh+wLgoAgCFheXiYIAqampgiCgHq9zsGDBzl79qzif+hf/uVfZG1tjXPnznHx4kVWVlbQWuM4Du12m8nJSXzfJwxDRARjDGVZkiQJ4/GYzc1NjDFYtVqNEydOcPPNN/PAAw8oJSJYn/70p6UoCsqyxBqNRmxsbBDHMWmaUhQFw+GQ8XhMHMdorXFdl0qlwuHDh/E8j/e85z2Kn8FrXvMaWV1dxRhDt9sljmOMMVi+7+N5Hp1Oh4WFBSYnJ1lYWGBqagrHcUiShMcff5zxeMz6+jpxHON5Hr7vs7i4yNTUFK1Wi1qthud5uK6L5TgOvu9z5coVNjY22NnZoSgKBoMBeZ6jtcZSSrG0tESj0aDValGpVJibm6NWqzE/P08Yhvz6r/+64r/w6KOPSrfbZXV1lccee4zV1VVWVlYQEVzXpdFoMDk5ie/7OI6DUoqyLDHGEMcx4/GYfr9PWZY4jkOlUuH222/n0KFDPPDAA0qJCNbnPvc5ybIMYwxlWTIYDNjY2KDf75PnOaPRiKIoyPOcsiyxpqammJubw3Ec3vGOdyh+Tr/1W78leZ6zvb3N7u4uljGGMAypVCpEUcT09DTT09MsLS3RarXYt76+ztWrV9nY2CDPc6xarcbk5CStVotms0kURTQaDVzXxXEcKpUKWmvyPGdnZ4eiKFhbWyNNU/b29hgMBli+7+P7PkopfN9ndnYWx3G4/fbb8TyP6elp2u02vu/TarU4efKk4hrf/OY3ZXd3l/X1db74xS9y+fJl0jTFCsOQRqNBq9XC932UUhhjMMZgjCHLMkajEaPRiDzPUUoRRRFHjx7lzjvv5DWveY1SIsIXvvAFKcsSYwxZllGWJf1+n42NDba2thiNRuzzPA/L8zyWlpZYXFzkta99reIX6JWvfKWsr68zHA4pigJLKUUYhvi+z4EDB5ifn2dhYYFqtYrneRhjuHr1KhcuXKDf77PPcRwajQYzMzNUKhXq9TpRFOH7PtPT07TbbaytrS2sfr/P1atX6ff7ZFlGkiSMx2NEhH2e52G1223m5+dZXl7m8OHDTE1N4fs+rVaLkydPKp7y3e9+V8qyZHV1lX//93/nscceY3Nzk9FohNVsNomiiFqtRhAEeJ6HMQZjDMYY0jRlPB4zGo0oyxKr0+mwuLjIi1/8Yu6++26lRIQvfOELUpYlxhiMMSRJQr/fZ2dnhzRN2djYwBhDFEU0Gg2iKKJer7OwsMCrXvUqxS/B6173OvnBD37AeDwmz3O01jiOg9VoNKjX6ywsLHDixAlqtRpKKUSEjY0Nrl69yvb2NlmWISI4jkOz2aTVahGGIbVajVarRbVapdPpMDExQZ7n7Lt06RKW67pYFy5c4Ec/+hGWMQbP80jTlEqlguu6HDhwgEajwXOe8xyOHj2KUopms4lljGE8HnPu3DkuXLjA9773PQaDAePxGKvZbBKGIbVajUqlguM4WGVZUpYlWmtGoxF7e3sYY7AmJiZYXFzkxS9+MXfffbdS//Zv/yaDwYA4jjHGoLUmjmNGoxE7OztYaZoSRRFTU1NY7XYbx3F45Stfqfgluv/++2VlZYWtrS2yLCPPc0QE13Wp1+s0Gg1OnDjB0tIS1WoVz/Ow1tfX6Xa7bG5uMh6PERGUUiilWFxcxHJdlyiKmJ+fZ3p6mnq9zrU8z8NK0xSrLEu+//3vY4whSRK2traw4jjGWlxcJAgClFLceOONXH/99XQ6HcqyZDwe853vfIfvfve7XLx4keFwiDEGpRRhGBKGIbVajUqlgud5WMYY0jRFa8329jZZlhHHMdbCwgI33ngjt9xyC3fffbdSIsKXvvQlGQwGFEVBmqYMBgPiOCbPc4wxRFFEvV5nenqaIAioVCpEUcQLX/hCxS/Z/fffLysrK/R6PUajEVmWYbmuy8TEBGEYcuLECQ4dOoTneQRBgDEG6/Llyzz++OOMx2NEBEtrje/7eJ7HxMQE1WqVI0eO4Ps+7XabMAwJgoAgCFBK4bou+7TWdLtdiqJgbW2NixcvUpYlw/xllxkAAAyKSURBVOEQKwgCFhcXaTQaHD58mOXlZer1OiLCF77wBVZXV1lfXyfPcyylFI1Gg2q1SqVSIQxDlFK4rktZlpRlSZIkbG5uMh6PKcsS6/Dhw9xxxx0cOnSI3/md31FKRLC+/OUvy/b2NnEcE8cxxhjiOGZiYgJrenqaKIqwoijihS98oeJpcv/998vKygq9Xo/hcEie51i+71Ov15mbm2N+fp5Dhw4RRRH1eh3f9ymKgvPnz7OxscH29jZ5nqO1xirLEtd1qdfrtNttHMeh1WphPfe5z8V1XaIoQimF67o4jkMQBJRlSVEUZFnG1atXefTRR8myjDAMSZKEyclJfN/n0KFDVKtVFhYWWFlZ4dy5c/zwhz8kSRJEBKUUnufRbDapVCoEQUAQBPi+j1WWJaPRiPF4TK/XYzQaYVUqFc6cOcPNN9/MwYMHefnLX66UiPCTHnroISnLEqtSqTA5OUmz2cRxHDzPI4oiTp06pXgavfGNb5SLFy+ysbHBYDBARCiKAt/3abfbHDp0iEajwdTUFO12m4mJCaw0Tbl69Sqrq6tordnZ2UFEGI1G7HNdl1qthlKKdrtNu91mdnaWZrNJrVajVqvheR7tdpuyLCmKgizLSNOUwWDA5uYm+xzHQURotVrs7e3RarV44okn6Ha7bGxskKYpllKKKIqIooharUYQBCilcBwHz/Po9/uMx2PKsmQwGDAej7EqlQp33HEHR48e5Y//+I8VT1Eiwn/ma1/7mvCUer3OPs/zOHXqlOJ/wR/90R/JysoK/X6f4XBIkiRYruvS6XSYm5ujXq+zuLhIrVaj0WhgZVmGNR6PSZKEzc1NBoMBu7u7iAiWiLCv2WzSbrep1Wp4nsexY8ewRARrenoaqyxLhsMhVhzHuK6LNR6PEREGgwGDwYDd3V16vR5lWVKWJVYURbiuS6vVolqtopRiXxzH5HlOlmWMx2PG4zFlWeK6LktLSxw7dowXv/jFnD17VvEUJSI8k7z+9a+Xixcvsre3x/b2NsYYLM/zaDQatFotqtUqBw4coFKpUKlUmJiYYG5uDt/3sbTWnD9/nosXL5IkCbu7u4gIxhiUUlhKKawwDKnX61QqFZRSVCoVXNel2WzS6XRwHAdLKYXrumitSZKEy5cvs7e3x2AwIMsyyrLEUkrh+z6e59FoNIiiCMdx2JfnOVmWobUmSRKSJGFvbw8rDENOnDjBnXfeyetf/3rFjykR4Znm1a9+taytrZEkCdvb24gIlu/7VKtVarUa7XabSqXCzMwM9XqdiYkJlpaWsLTWZFnG5uYmw+GQNE0ZDAYkScKVK1cwxrCvLEs8z8N1XRzHwfd9wjDE8zyazSau66KUYp8xhvF4TFEUjEYj0jQlTVP2RVGE4zhUKhVqtRq+76OUQilFnudYZVmS5zlJkrC3t0eSJFizs7Ncd9113HLLLbzuda9T/JgSEZ6J7r33Xrl48SKj0Yjd3V1EBMv3fYIgoNls0mw2iaKIVqvF5OQkjUaDTqdDGIZkWUae52itsfI8Z2tri+3tbeI4xhhDURQkSUJZlriui+M4+L5PGIZ4nodVFAWu69JsNrGyLCNNU4qiQGtNWZYMh0Oser2O53l4nkcURQRBwL6yLBERRAStNcYYut0uvV4Pq1arceTIEZaWlnj3u9+tuIYSEZ6p7r33Xrl48SK7u7sMh0OMMViu6xJFEa1Wi0ajQRRFNBoNms0mtVqNiYkJLMdx8DwPK8syiqLg8uXLWBMTE3iex87ODiKCiGCJCFaSJAyHQ7Isw3Vdms0mVpZlpGmKVRQFWmvyPMeqVqtUKhWUUoRhSBAEaK3RWlOWJcYYtNYYY4jjmOFwSJZleJ7H9PQ0hw8f5kUvehF33XWX4hpKRHgmu/fee+XKlStcvnyZ8XiMMQbL932q1SrtdptarUaz2aTRaNBsNvE8j0ajQRiGOI6DZYxhX7PZpCgKdnd32dnZQURQSnHw4EGUUogIWZbR7Xa51ng8RmuNVZYl1tbWFkVR4DgOtVoNx3EIgoAgCFBKISJordFak+c5ZVmSpilxHJMkCVaj0WBqaornPe95vOlNb1L8BCUiPNPdc889srOzw8bGBr1eD0spRRAEBEFAp9Oh0WjQbDaZmJggDEOUUnieR7vdRimFUgqlFI7j0G63sdbX1/nhD39IURRYz3ve81BKISJkWYbVarWw9vb2yLKMOI5xHAfLGMOlS5cYj8fUajVc10Uphed5KKVQSmFprdFao7UmyzLSNKXf76O1xnVdWq0WJ0+e5MYbb+S1r32t4icoEeHZ4J577pGNjQ2yLOPSpUsopfA8D8dxCIKAIAg4fPgw1WqVZrPJvjAMqVQqBEFApVLB8zza7TbWYDDgW9/6FkVRMBqNGI1G7HMch+PHj3PmzBmsvb09kiTBiqIIz/OI45jz589jeZ6H67o4joMlIlgigohQFAVZlpGmKcPhkLIsMcbQaDTwfZ/bbruNt7/97Yr/gBIRni3e9KY3yeOPP87e3h5ra2sopXBdF6UUjuNQq9U4evQoYRjiui6W7/sEQYDjOHieRxAENJtNpqamsMbjMYPBgI2NDS5dusRoNMJyHIdjx44RRRGWiGCMQWvN8vIynufxve99D601juPgui6u66KUwnEc8jxHa43WmqIoSJKELMtIkgStNVYURfi+z/Hjx7nuuuu4//77Ff8BJSI8m7zzne+Ur33ta2xtbdHtdlFKYZVlSbVapdlssry8jOu6eJ7HPqUU+2q1GouLi3Q6HdI0xcrznMuXLzMej7Fc1yUIAjzPQ0QwxqC1Js9zRIR9nuehtcZ1Xa6V5zl5nlMUBUmSkGUZe3t7iAhKKYIgoF6vc/z4cQ4cOMBb3vIWxX9CiQjPNu985zvlW9/6FpcuXWI4HGKlaYqIUK1WabVadDodoihiXxzHGGOw6vU6nU6H5eVl6vU6Vp7n5HlOt9tln4hgiQjGGLTWpGlKnudYYRji+z6O46C1Zl9ZlpRlSZIkZFlGURR0u13KssTyPI9Go8HU1BTPec5zeMtb3qL4LygR4dnone98pzz22GM89thjpGlKnuckSYJVrVZxXZe5uTl830drjYhQliUighWGIZ1Oh7m5OSqVClEUkSQJcRxjiQhxHGP5vo+IkKYpSZJgua5LpVLB8zwcx0FrTVmWGGMoy5IsyyjLkizL6Ha7FEWBpZSiUqlw+PBhjh49ylvf+lbFf0OJCM9mH/7wh+UTn/gEZVnS6/UQEcqyRCmFFYYhrVYL3/cRESytNVYURTQaDer1OkEQEIYhVp7nFEVBHMdcqygK0jQlCAKUUlSrVSzHcTDGoJTCGIPWmiRJKMuS4XDIcDjEchwH3/eZnJzk+PHjvO9971P8FJSI8Gz34Q9/WD7/+c/T6/XodruICGVZYnmeh+u6RFGE5boullIKx3GIooharYZSiiAIUEphlWXJtfI8J89zRASlFGEY4nkejuNg5XmOUgqrLEuGwyFlWTIejzHG4LounucxNzfHoUOHeN/73qf4KSkR4VfBRz/6UfniF7/I5cuXieMYEaEoCrTW7HNdF9/3UUoRBAGO41CpVHAcB8dx8H2fIAiwtNbsExGKokBE2Of7Pq7rUpYlxhiKomDfcDgkyzL2KaVoNps0m03+8R//UfE/pESEXyV/8Ad/IIPBgDiO6ff7JElCHMcYY9BaYzmOg+d51Ot1KpUKjuOglMLyfR/HcTDGUJYlruuilGKfiGC5rotSiizLMMaQ5zkiQhzH5HnOviAIaDabdDodPvvZzyp+BkpE+FX06le/WoqiYGtrizzP6Xa7FEWB5TgOjuPgOA71ep0wDNFaYzmOQxAElGXJPs/zcF2XfUVRYGmtseI4pixLjDGICFprLN/3qdfrfPWrX1X8HJSI8KvqM5/5jPzDP/wDSZIwGAzo9/sYY9BaU5YlxhhEBMtxHBzHQSnFxMQEljGGLMuwoihi32g0wirLEssYgyUi7HNdl0ajwVe/+lXFz0mJCL/q7r77bimKgiRJ0FrT7XYpy5IkSdBaYzmOg+M4KKWwlFLsU0phKaWwiqLAcl2Xa4kIruuilOKRRx5R/IIoEeH//L/++q//Wr7//e+zvb3NysoKcRxjBUGApbXGGIMlIogIxhgs3/extNZYruuy79ZbbyWKIv7qr/5K8QumRIT/8x+79957ZTwe4zgOWmusoihYWVlBa42IICIYY7B838eKooiZmRlqtRp/93d/p/glUyLC//npfPSjH5WyLPnOd77Dj370I6x/+qd/Uvwv+38AQbzg4Ua4zjIAAAAASUVORK5CYII=;" vertex="1" parent="1">
          <mxGeometry x="859.62" y="691.89" width="238.38" height="154" as="geometry" />
        </mxCell>
        <mxCell id="C5NoB3EoUQN5JIVtnTHw-2" value="" style="shape=image;verticalLabelPosition=bottom;labelBackgroundColor=#ffffff;verticalAlign=top;aspect=fixed;imageAspect=0;image=data:image/png,iVBORw0KGgoAAAANSUhEUgAAAXMAAADhCAYAAAA6Y1VuAAAZB0lEQVR4Ae3B3ZXrutae22cgJDXEoAQObpAAgkIABzeIQDGgKSS8Xsue+/M0t1RFsv5I1ejdJOGc+3khNc2eDed2MEk4535GSE08MXs2nFvJJOGc+14hNbHS7Nlw7h0mCefc9wmpiY1mz4ZzbzBJOOe+T0hNbDR7Nk4ipKbZs+G+lUnCOfc9Qmpip9mzcVAhNfHE7NlwX84k4Zz7HiE1sdPs2TiYkJpYafZsuC9jknDOfY+Qmtjpcs2sNQrGFwupiY1mz4b7EiYJ59zXC6mJD7pcM19lFIwNQmpio9mz4b6EScI59z1CamKnyzVzFPdbY6/Zs+E+nUnCOfe1YkX8435r7HW5Zo7ifmvsNXs23KczSTjnvkasiL/cb429LtfMUdxvjb1mz4b7dCYJ59znihXxxP3W2Gr2bGwQK+KL3G+Nj5o9G+5TmSScc58jVsQ77rfGVrNn44vFiljpfmvsNXs23KczSTjnPiZWxEqjYCE1sdLs2TiYkJrY6XLNjILhPpVJwjm3T6yIlUbBWAipiSdmz8ZBhdTETpdr5l+jYLhPY5Jwzm0TK2KlUTBWCKlp9mycREhNbHS5ZpZGwXAfZpJwzq0TK2KlUTBeWEhNbHS5Zp4ZBcPtZpJwzr0tVsRKo2D8EiE1sdLlmnnPKBhuF5OEc+65WBErjILxS4XUxBOzZ+OPWBErjILhNjFJOOf+W6yIFUbBcP8jpKbZs/GGWBErjILhVjFJOOf+r1gRK42C4XaLFfGOUTDcu0wSzjmIFbHSKBjuU8SKWGEUDPeUScK5VxNS0+zZWCFWxEqjYLgvEStihVEw3H8xSTj3CkJq4onZs7EQK2KlUTDct4gV8Y5RMNz/wyTh3JmF1MRKs2eLFbHSKBju28WKWGEUDPe/mSScO6uQmtjocs28ZxQM9+NiRbxjFAyHScK5swqpiY0u18wzo2C4Q4kVscIoGL+YScK5MwqpiZ0u18zfRsFwhxYrYoVRMH4hk4RzZxRSEztdrpl/jYLhTiVWxDtGwfhlTBLOnVFITew0ezbcacWKWGEUjDeE1DR7Nl6AScK5swmpiQ+aPRvu1GJFrDAKxh8hNfHE7Nk4KZOEc2cUUhM7zZ4N9zJiRbzjfmusNXs2TsYk4dwZhdTETrNnw72UWBFP3G+NrWbPxomYJJw7o5Ca2Gn2bLiXFCti4X5rbDV7Nk7EJOHcWYXUxEazZ8O9vFgR/7jfGnvNno2TMEk4d1YhNbHR7Nlwv0Ks6H5r7DV7Nk7CJOHcmYXUxEqzZ8P9KiE1sdPs2TgJk4RzZxYr4h/3W+OZ2bPhfp2Qmvig2bNxAiYJ584qVsQD91tj9my4Xy+kJnaaPRsnYZJw7qxiRSyMguHcHyE1sdPs2TgJk4RzZxQr4oFRMJz7I6Qmdpo9GydhknDujGJFLIyC4dxCSE1sNHs2TsQk4dzZxIp4YBQM5xZCamKj2bNxIiYJ584mVsTCKBjOPRFSEytdrpl/jYJxEiYJ584mVsTCKBjOvSOkJp64XDNLo2CcgEnCuTOJFfHAKBjObRBS0+zZ+CNWxMIoGCdgknDuTGJFLIyC4dwHxYp4YBSMgzNJOHcWsSIeGAXDuU8QK+KBUTAOzCTh3FnEilgYBcO5TxQr4oFRMA7KJOHcGcSKeGAUDOc+WayIhVEwDsok4dwZxIpYGAXDuS8QK+KBUTAOyCTh3NHFinhgFAznvkisiAdGwTgYk4RzRxcrYmEUDOe+WKyIB0bBOBCThHNHFytiYRQM575BrIiFUTAOxCTh3JHFinhgFAznvkGsiAdGwTgIk4RzRxYrYmEUDOe+UayIB0bBOACThHNHFSvigVEwnPtmsSIeGAXjh5kknDuqWBELo2A490NiRSyMgvHDTBLOHVGsiAdGwXDuh8SKeGAUjB9kknDuiGJFLIyC4dwPixXxwCgYP8Qk4dzRxIp4YBQM5w4gVsQDo2D8AJOEc0cTK2JhFAznDiRWxMIoGD/AJOHc0cSKWBgFw7kDiRXxwCgY38wk4dyRxIp4YBQM5w4mVsQDo2B8I5OEc0cSK2JhFAznDipWxAOjYHwTk4RzRxEr4oFRMJw7sFgRC6NgfBOThHNHEStiYRQM5w4uVsQDo2B8A5OEcz8tpKbLNfPIKBjOnUCsiAdGwfhiJgnnfkJITTxxuWb+NQqGcycSK+KBUTC+kEnCue8UUhMrzZ4N504mVsTCKBh/hNQ0ezY+kUnCue8SUhMbzZ4N504kVsTC/dZ4ZvZsfJBJwrnvElITG82eDedOJlbEP+63xlqzZ2Mnk4Rz3yGkJnaaPRvOnUxITWw0ezZ2MEk49x1CamKn2bPh3MmE1MRGs2djB5OEc98hpCZ2mj0bzp1ISE3sNHs2NjJJOPfVQmrig2bPhnMnEVITO82ejY1MEs59h5Ca2Gn2bDh3IiE1sdPs2djIJOHcdwipiZ1mz4ZzJxFSEx80ezY2MEk49x1CamKn2bPh3ImE1MROs2djI5OEc98lpCY2mj0bzp1MSE3sNHs2NjJJOPddQmpio9mz4dzJhNTETrNnYyOThHPfKaQmVpo9G86dVEhNbDR7NnYwSTj3E0Jq4onLNTMKhnMnFlITG82ejR1MEs79tJCaLtfM0igYzp1YSE2sNHs2djJJOHcEsSIWRsFw7gWE1MQTl2tmFIwPMEk4dwSxIhZGwXDuxYTUdLlm/jYKxgeYJJw7glgRD4yC4dwLiRXxwCgYO5kknDuKWBELo2A492JiRSyMgrGTScK5o4gVsTAKhnMvJlbEwigYO5kknDuKWBEPjILh3AuJFbEwCsZOJgnnjiRWxMIoGM69kFgRD4yCsYNJwrkjiRWxMAqGcy8mVsTCKBg7mCScO5JYEQ+MguHcC4kVsTAKxg4mCeeOJlbEwigYzr2QWBEPjIKxkUnCuaOJFbEwCoZzLyRWxAOjYGxkknDuaGJFPDAKhnMvJFbEwigYG5kkXkFITbNnw72EWBEPjILh3AuJFbEwCsZGJomzCqmJJ2bPhju1WBELo2A490JiRTwwCsYGJomzCamJlWbPhjulWBEPjILh3IuIFfHAKBgbmCTOJKQmNpo9GycRUtPs2XDEinhgFAznXkisiIVRMDYwSZxJSE1sNHs2DiykJp6YPRu/WKyIhVEwnHshsSIWRsHYwCRxFiE1sdPs2TiYkJpYafZs/EKxIh4YBcO5FxEr4oFRMFYySZxFSE3sdLlmRsE4iJCa2Gj2bPwysSIeGAXDuRcSK2JhFIyVTBJnEVITO12umY8aBeOThNTERrNn4xeKFbEwCoZzLyRWxMIoGCuZJM4gpCY+6HLN/LRRsJCa2Gn2bPwysSIWRsFw7oXEinhgFIwVTBJnEVITO12umaO43xp7zZ6NXyZWxAOjYDj3ImJFPDAKxgomiTOIFd1vjb0u18xR3G+NvWbPxi8UK2JhFAznXkisiIVRMFYwSRxdrIh/3G+NvWbPFivih91vjY+aPRu/TKyIhVEwnHshsSIWRsFYwSRxVLEiFu63xlazZ+OTxIr4oPutsdfs2fiFYkU8MAqGcy8iVsQDo2C8wyRxRLEiHrjfGlvNno2DiBXdb429LtfMKBi/UKyIhVEwnHsRsSIeGAXjHSaJI4kV8Y77rbHW7Nk4mJCa2OlyzfzHKBi/SKyIhVEwnHshsSIWRsF4h0niCGJFrDAKxh8hNfHE7Nk4sJCa2OhyzSyNgvFLxIp4YBQM515ErIiFUTDeYZL4abEi3jEKxhtCapo9GycRUhMbXa6ZZ0bB+AViRSyMguHci4gV8cAoGG8wSfyUWBErjILxgkJqYqXLNbPGKBgvLFbEwigYzr2QWBELo2C8wSTxE2JFvGMUjF8gpCaemD0bf4kV8Y5RMF5UrIiF+60xezacexGxIhZGwXiDSeI7xYpYYRSMXyikptmz8YZYESuMgvGCYkX3W+OZ2bPh3InFilgYBeMNJonvECtihVEw3CqxIlYYBeNFhNTESrNnw7kTihXxwCgYT5gkvlqsiHeMguF2iRWxwigYJxZSExvNng3nTihWxF/ut8bs2XjCJPFVYkWsMAqG+5BYESuMgnFSITWx0ezZcO6EYkX3W+OZ2bPxF5PEZ4sVscIoGO5TxYpYYRSMEwmpiZ1mz4ZzJxJSEyvNno1/mCQ+U6yId4yC4b5UrIgVRsE4gZCa2Gn2bDh3EiE1sdHs2UwSnyFWxAqjYLhvEytihVEwDiykJnaaPRvOnURITWw0ezaTxFtCapo9G2+IFfGOUTDcj4gVscIoGAcUUhMfNHs2nDu4kJrYySSxFFITT8yejT9iRawwCob7cbEiVhgF42BCamKn2bPh3AmE1MROJon/CKmJlS7XzHtGwXCHEytihVEw3hBS0+zZ+AYhNbHT7Nlw7gRCamInk8S/Qmpio8s188goGO7wYkW8YxSMv4TUxBOzZ+OLhNTETpdrZhQM5w4spCY+wCTxr5Ca2OhyzSyNguFOI1bECvdbY63Zs/EFQmpio8s18x+jYDh3YCE1sZNJIqQmdrpcM/8aBcOdVqyIJ+63xlazZ+OThdTERpdr5m+jYDh3UCE1sZNJIqQmdrpcM6NguJcQK2LhfmtsNXs2vkBITax0uWYeGQXDuQMKqYmdTBIhNbHT7NlwLyVWxB/3W2Ov2bPxRUJq4onZs8WKeMcoGM4dTEhNbDR7NrP/7/8XHzR7NtzLiRXdb429Zs/GNwipafZsLMSKeMcoGM4dSEhNbDR7NpNESE3sNHs23MsKqYmdZs/GAcSKeMMoGM4dSEhNrDR7Nv5hkgipiZ1mz4Z7SSE18UGzZ+MAYkW8YRQM5w4kVnS/NZ6ZPRt/MUmE1MROs2fDvayQmthp9mwcSKyId4yC4dwBxIr4y/3WmD0bT5gk/hVSExvNng330kJqYqfZs3EwsSLeMQqGcz8sVsTCKBhPmCT+FVITG82eDffSQmpip9mzcVCxIt4wCoZzPyhWxF9GwXiDSeI/Qmpipdmz4X6FkJrY6HLNjIJxYLEi3jAKhnM/IFbEwigYbzBJLIXUxBOzZ8P9KiE1sdHlmvnXKBgHFiviHaNgOPeNYkUsjILxBpPEW0Jqmj0b7lcLqYmVLtfM30bBOLBYEe8YBcO5bxIrYmEUjDeYJJxbK6Qmnpg9W6yIB0bBOLhYEW8YBcO5bxArYmEUjDeYJJzbI6Sm2bOxECvigVEwDi5WxBtGwXDuC8WKWBgF4x0mCec+W6yIB0bBOLhYEe8YBcO5LxArYmEUjHeYJJz7CrEiHhgF4+BiRbxjFAznPlmsiIVRMN5hknDuq8SKeGAUjBOIFfGGUTCc+0SxIhZGwXiHScK5rxQr4oFRME4gVsQbRsFw7hPEilgYBWMFk4RzXy1WxAOjYJxArIh3jIKxEFLT7NlwboVYEQujYKxgknDuO8SKeGAUjBOIFfGOUbCQmnhi9mw490SsiIVRMFYwSTj3XWJFPDAKxknEinjgfmusNXs2nFuIFbEwCsYKJgnnvlOsiAdGwTiJWBF/ud8aW82eDef+iBWxMArGSiYJ575brIgHRsE4iVgRf9xvja1mz4Zzf8SKWBgFYyWThHM/IVbEA6NgnESs6H5r7DV7Npz7R6yIhVEwVjJJOPdTYkU8MArGSYTUxE6zZ8O5f8SKWBgFYyWThHM/KVbEA6NgnEBITew0ezbcrxcrYmEUjA1MEs79tFgRD4yCcWAhNfFBl2vmX6NguF8pVsTCKBgbmCScO4JYEQ+MgnFgITWx0+WaeWQUDPdrxIpYGAVjA5OEc0cRK+KBUTAOKqQmdrpcM2uMguFeVqyIhVEwNjBJOHcksSIeGAXjgEJqYqfLNbPHKBjuJcSKWBgFYyOThHNHEyvigVEwDiikJja6XDOfZRQMd0qxIhZGwdjIJOHcEcWKeGAUjIMJqYmNZs/GP2JFfLJRMD5JSE2zZ8N9iVgRC6NgbGSScO6oYkU8MArGQkhNs2fjh4TUxEqzZ+OJWBGfaBSMjUJq4onZs+E+TayIhVEwNjJJOHdksSIeGAULqYknZs/GDwipiSdmz8ZGsSI+0SgYT4TUxEqzZ8N9SKyIhVEwdjBJOHd0sSL+cr811po9Gz8kpKbZs/FJYkV8slEw/hFSExvNng23W6yIhVEwdjBJOHcGsSL+cb81tpo9Gy8oVsQnud8aW82eDbdbrIiFUTB2MEk4dxaxovutsdXs2fgFYkXscL819po9G26XWBELo2DsYJJw7ixCamKn2bPxy8SKWOF+a+w1ezbcLrEi/jIKxk4mCefOIqQmdpo9G79crIgH7rfGXrNn4+BCapo9GwcSK2JhFIydTBLOnUVITew0ezbc/4gV8Y/7rfFRl2vmX6NgHEBITbxj9mz8oJCaLtfM30bB2Mkk4dwZhNTEB82eDfdfQmpip8s185ZRML5JSE1sNHs2vklITTxxuWZGwdjJJOHcWYTUxE6zZ8M9FFITO12umS1GwfgCITWx0+zZ+EIhNbHS7NnYwSTh3FmE1MROs2fDPRRSEztdrpmPGgXjA0Jq4oNmz8YXCKmJjWbPxkYmCefOIqQmdpo9G+6pkJrY6HLNfIVRMFYKqYlPMns2PllITWw0ezY2Mkk4dyYhNbHR5Zr5j1Ew3H8JqYmNZs/GQqyILzAKxkJITXyy2bPxSUJqYqfZs7GBScK5MwmpiY0u18zfRsFw/yWkJlaaPRsrxIr4AqNgITXxyWbPxicJqYmdZs/GBiYJ584mpCZWulwzj4yC4R4KqYknZs/GB8WK+KD7rfFVZs/GJwipiZ1mz8YGJgnnziqkJp6YPVusiDeMguHeFFLT7Nn4QrEiNrrfGl9l9mx8UEhNfNDs2VjJJOHcKwipafZsLMSKeMMoGO5wYkW84X5rfJXZs/EJQmpip9mzsYFJwrlXFyviHaNguMOKFfGX+63xVWbPxicIqYmdZs/GBiYJ536DWBHvGAXDHV5ITXyx2bPxQSE1sdPs2djAJOHcbxIr4g2jYLjDC6mJLzJ7Nj5BrOh+a2w1ezY2Mkk499vEinjDKBju0EJq4ovMno0PihXxj/utsdXs2djIJOHcbxQr4h2jYLhDCqmJLzJ7Nj4gVsRf7rfGWrNnYweThHO/VayId4yC4Q4npCa+yOzZ2ClWxAOjYCE18cTs2fgAk4Rzv12siDeMguEOJ6QmPtns2dgpVsQDo2AshNQ0ezY+iUnCOQexIt4wCoY7lJCa+GSzZ2OHWBEPjILxDUwSzrn/I1bEG0bBcIcSUhOfZPZsbBQr4olRML6JScI593/FinjHKBjuMEJq4oNmz8ZGsSKeGAXjG5kknHP/r1gR7xgFwx1GSE3sNHs2NooV8cQoGN/MJOGceyxWxBtGwXCHEVITG82ejY1iRTwwCsYPMUk4556LFfGGUTDcoYTUxDtmz8YOsSIeGAXjB5kknHNvixXxjlEw3CGF1DR7Nj4oVsQDo2D8MJOEc+59sSLeMQqGe0mxIh4YBeMATBLOufViRbxhFIyFkJpmz4Y7pVgRD4yCcRAmCefcNrEi3jAKFlITT8yeDXcKsSIeGAXjQEwSzrntYkU8cL811po9G+6wYkU8MArGwZgknHP7xIr4y/3W2Gr2bLjDiRXxwCgYB2SScM7tFyvij/utsdXs2XCHEivigVEwDsok4Zz7uJCa2Gn2bLgfFyviiVEwDswk4Zz7uJCa2Gn2bLgfFSviiVEwDs4k4Zz7uJCa2Gn2bLgfEyviiVEwTsAk4Zz7mJCa+KDZs+G+XayIB0bBOBGThHPu40JqYqfLNfMfo2C4TxVS0+zZWIgV8cAoGCdjknDOfVxITex0uWYeGQXD7RJSE0/Mni1WxAOjYJyQScI593EhNbHT5Zp5yygYbpWQmljpcs38bRSMkzJJOOc+R0hNbHS5ZrYYBcM9FFITG12umX+NgnFiJgnn3OcIqYmNLtfMXqNguP8RUhMbXa6ZUTBOziThnPs8ITWx0uzZ+EusiJ1GwfjFQmpip9mzcXImCefc5wupiSdmz8YbYkXsNArGLxRSEzvNno2TM0k4575WSE2zZ2OHWBE7jYLx4mJF/ON+a+w1ezZOziThnDuHWBE7jYKxQ0hNs2fjh8WKeOJ+a3zU7Nk4MZOEc+58YkXsNArGG0Jq4onZs/GFYkXscL819po9GydnknDOnVesiJ1GwfhLSE2sNHs2PiBWxCe63xp7zZ6NkzNJOOdeQ6yIne63xlazZ+MdsSK+wf3W2Gv2bJycScI593piRWxwvzW2mj0bf8SK+AGjYPwRUhMbzZ6NF2CScM69tlgRb7jfGntdrpnvMArGO0JqYqPZs/ECTBLOud8hVsQD91tjr8s185lGwfiAkJpYafZsvAiThHPu94kV8cf91tjrcs3sMQrGFwqpiSdmz8aLMUk4536vkJr4oMs188woGD8spKbZs/HCTBLOud8tpCZ2ulwz/xoFw/0Yk4Rz7ncLqYmdZs+G+3EmCefc7xZSEzvNng3340wSzjkXUhMbzZ4NdwgmCeecC6mJjWbPhjsEk4Rzzv0rpCZWmj0b7jBMEs4597eQmnhi9my4w/lfDojeyB1tqpMAAAAASUVORK5CYII=;" vertex="1" parent="1">
          <mxGeometry x="530" y="751" width="222.39" height="134.88" as="geometry" />
        </mxCell>
        <mxCell id="C5NoB3EoUQN5JIVtnTHw-3" value="" style="shape=image;verticalLabelPosition=bottom;labelBackgroundColor=#ffffff;verticalAlign=top;aspect=fixed;imageAspect=0;image=data:image/png,iVBORw0KGgoAAAANSUhEUgAAAMkAAADJCAYAAACJxhYFAAAgAElEQVR4AezBDXRV9YHv/e/e7p57JpwJ6TGTizHgEYkJBowRY8Q8PLlHhmV16XUKtbZLrU/b22m9rlnOSzvPtDN3rZlOV++9z23vfa5jX6C16rVU0ZaKTIZhaVZK0yxLKDdmBQt5AeRMhJiexMNhs939s2f/H7by42EsdqRFhSSfj2OtZdZvplQqIXv37kW+9a1vIUEQIEEQIFEUIblcDmlvb7eAw3H/9dXbeWzFbhJz585FJicnkTAMkfHxcWR0dBTZv38/MjU1hURRhLiui7S3tyM33XQTsnDhQmYix1rLrN/M+Pg4MjQ0hKxdu5bjLMcZY5Aoijidyy+/HGlvb0f+9pXbeGzFbhJz5sxBXn31VSQMQ2R8fNzhhNHRUWT//v3I1NQUp+N5HrJixQpk1apVSC6XYyZyrLXM+s2Mj49zgh0aGkLWrl2LGGOQKIo4ncsvvxxpb29H/vaV23hsxW4Sc+bMQV599VUkDENkfHwcGR0d5QRn//79yNTUFKfjeR6yYsUKZNWqVUgul2Mmcqy1zDojlhPGx8eRoaEhZO3atYgxBomiiNO5/PLLkfb2duRvX7mNx1bsJjFnzhzk1VdfRcIwRMbHx5HR0VFk//79yNTUFMc5vInneciKFSuQVatWIblcjpnIsdYy69eyvIV9+/YhAwMDyPr165EoijiddDqNXHnllcjy5ctJfG4kz4aVe5ELLrgAOXLkCBIEAXLw4EFkeHgY2bt3L1IulxHP8zjBSafTSEdHB7Jq1Spk3rx5zESOtZZZv8LyNuzbtw8ZGBhA1q9fj0RRxOmk02nkyiuvRJYvX07icyN5Nqzci1xwwQXIkSNHkCAIkIMHDyLDw8PI3r17kXK5jHieh6TTaU5wOjo6kFWrViHz5s1jJnKstcx6neUM7du3DxkYGEDWr1+PRFHE6aTTaeTKK69Eli9fTuJzI3k2rNyLXHDBBciRI0eQIAiQgwcPIsPDw8jevXuRcrmMeJ6HpNNppKOjgxOcVatWIfPmzWMmcqy1zHCW39Dg4CDS19eHdHZ2InEcI6lUCslms0hLSwty3XXXkfjk9maevnkMiaIIOXz4MOL7PjI2NoaMjIwg+/btQ4IgQFKpFJLJZJBVq1Yh+Xye4xyOq6qqYiZyrLXMQJazYHBwEOnr60M6OzuROI6RVCqFZLNZpKWlBbnuuutIfHJ7M0/fPIZEUYQcPnwY8X0fGRsbQ0ZGRpB9+/YhQRAgqVQKyWQyyKpVq5B8Po9UVVVxnMMM41hrmUEsZ9Hg4CDS19eHdHZ2InEcI6lUCslms0hLSwty3XXX8cntzTzUNsCFF16IRFGEHD58GPF9HxkbG0NGRkaQffv2IUEQIKlUCslkMsiqVauQfD6PVFVVcQqHGcKx1jIDWM6SKIqQnTt3Ij/5yU+Q3t5exHVdJJ1OI7W1tUhrayuybNkyPvzcQp78/X1kMhnkyJEjSLlcRsrlMlIoFJChoSFkbGwMCcMQqaioQCorK5Fbb70V6ejoQDzP4zQcpjnHWss0ZjnLoihCdu7cifzkJz9Bent7Edd1kXQ6jdTW1iKtra3IsmXL+PBzC3ny9/eRyWSQI0eOIOVyGSmXy0ihUECGhoaQsbExJAxDpKKiAqmsrERuvfVWpKOjA/E8j1/DYZpyrLVMQ5Z3SBRFyM6dO5Gf/OQnSG9vL+K6LpJOp5Ha2lqktbUVWbZsGR9+biFP/v4+MpkMcuTIEaRcLiPlchkpFArI0NAQMjY2hoRhiFRUVCCVlZXIrbfeinR0dCCe5/E2OEwzjrWWacTyDjPGIL29vci2bduQF154AfE8D8lkMkgul0Pa2tqQ5uZm/v3f1/LMLQdxXReZnJxEwjBEyuUysm/fPmRoaAiZmJhAjDFIOp1GstkscscddyCtra38hhymCcdayzRgeZcYY5De3l5k27ZtyAsvvIB4nodkMhkkl8shbW1tyH/6p5t45paDJFzXRSYnJ5EwDJFyuYzs27cPGRoaQiYmJhBjDJJOp5FsNovccccdSGtrK78lh/OcY63lPGd5FxljkN7eXmTbtm3ICy+8gHieh2QyGSSXyyFtbW3If/qnm3jmloMkXNdFJicnkTAMkXK5jOzbtw8ZGhpCJiYmEGMMkk6nkWw2i9xxxx1Ia2srZ4HDecyx1nKesrwHwjBEenp6kO7ubmTXrl2I53lIZWUlsnDhQmT58uXI5/ev4plbDvJmr7zyCmKMQUqlElIoFJChoSGkWCwixhikoqICyWazyN13340sXbqUs8jhPORYazkPWd4jYRgiPT09SHd3N7Jr1y7E8zyksrISWbhwIbJ8+XLk8/tX8cwtB3mzV155BTHGIKVSCSkUCsjQ0BBSLBYRYwxSUVGBZLNZ5O6770aWLl3KWeZwnnGstZxHLO+xMAyRnp4epLu7G9m1axfieR5SWVmJLFy4EFm+fDny+f2reOaWg7zZK6+8ghhjkFKphBQKBWRoaAgpFouIMQapqKhAstkscvfddyNLly7lHeJwnnCstZwnLOeAl156Cens7ES6u7sRYwzieR5SV1eHLF68GFmyZAnyJ7tXsGHlXhJxHCNBECCu6yKFQgEZHR1Fdu/ejRw8eJDTqaurQy655BJk9erVSH19Pe8gh/OAY63lHGc5h7z00ktIZ2cn0t3djRhjEM/zkLq6OmTx4sXIkiVLkD/ZvYINK/eSiOMYCYIAcV0XKRQKyOjoKLJ7927k4MGDnE5dXR1yySWXIKtXr0bq6+t5FzicwxxrLecwyzmgz3U5Vc2+fSQ6OzuR7u5uxBiDeJ6H1NXVIYsXL0aWLFmC/MnuFWxYuZdEHMdIEASI67pIoVBARkdHkd27dyMHDx7kdOrq6pBLLrkEWb16NVJfX8+7xOEc5VhrOUdZzgF9rsvb9f+sXk3CGIN4nofkcjlk8eLFyBVXXIHc/2I7G1bu5c3CMETiOEYKhQIyPDyMjIyMIOPj40gcx0gul0MuvfRSZM2aNUhdXR3vIodzkGOt5RxkOUf0uS6/rf/yB39AIpfLIYsXL0auuOIK5P4X29mwci9vFoYhEscxUigUkOHhYWRkZAQZHx9H4jhGcrkccumllyJr1qxB6urqeJc5nGMcay3nGMs5pM91kWvjmKGhIQ4vXszZMrB2LVdccQVy/4vtbFi5lzcLwxCJ4xgpFArI8PAwMjIygoyPjyNxHCO5XA659NJLkTVr1iB1dXW8BxzOIY61lnOE5RzT57rINVFEYvv27cjWrVuRXbt28ecbN3K21Ozbx6l++ctfImEYIvv27UNGR0eRAwcOIBMTE0gURcjll1+ONDQ0IGvWrEEqKyt5DzmcAxxrLecAyzmoz3WRa6KIxPbt25GtW7ciu3btQowxSCqV4s83buRsmbt7N2EYIvv27UNGR0eRAwcOIBMTE0gURcjll1+ONDQ0IGvWrEEqKyt5jzm8xxxrLe8xyzmqz3WRa6KIxPbt25GtW7ciu3btQowxSCqVQhYtWoQ0NTWRaLjnHs6Wbf/1vyIHDhxAJiYmkCiKkMsvvxxpaGhA1qxZg1RWVnIOcHgPOdZa3kOWc1if6yKXT02R2LZtG9Ld3Y0UCgUkiiIkk8kgjY2NSFNTE7Jo0SLkk9ub2fiBAuO5HGfLVz70ISSKIuSKK65AmpubkTVr1iCu63KOcHiPONZa3iOWc1yf6yKXT02R2LZtG9Ld3Y0UCgUkiiIkk8kgjY2NSFNTE7Jo0SLkk9ub2fiBAok4jpFjx46ReLWhgbPlmS98AWlubkbWrFmDuK7LOcThPeBYa3kPWM4Dfa5L4vKpKWTbtm1Id3c3UigUkCiKkEwmgzQ2NiJNTU3IokWLkE9ub2bjBwok4jhGjh07hhSLRWR4eBhZ/PGP89s4sGEDiTVr1iCu63KOcXiXOdZa3mWW80Cf6yK1hQKyZcsW5Pnnn0dKpRISxzGSzWaRpqYmZMmSJUgul0Pu3NbA0zePkTDGIMeOHUMKhQKya9cu5MCBA0ipVEL+4//6X7xdk52d3HTTTZzjHN5FjrWWd5HlPNHnukhtoYBs2bIFef7555FSqYTEcYxks1mkqakJWbJkCZLL5ZA7tzXw9M1jJIwxyLFjx5BCoYDs2rULOXDgAFIqlRDf95EoipAvPPMMbzbZ2clNN93EecDhXeJYa3mXWM4jfa6L1BYKyJYtW5Dnn38eKZVKSBzHSDabRZqampAlS5YguVwOuXNbA0/fPEbCGIMcO3YMKRQKyK5du5ADBw4gpVIJ8X0fiaIIufLKK0nc8qUvIZOdndx0002cJxzeBY61lneB5TzT57rI3N27kaeffhrZuXMnYoxBPM9DamtrkebmZuSKK65AampqkDu6LuOZWw6SeO211xBjDDI6Oor09/cjL730EmKMQcIwRKIoQq6++mo+8Nd/jfxy2zYSK1as4Dzi8A5zrLW8CyznmT7XRebu3o08/fTTyM6dOxFjDOJ5HlJbW4s0NzcjV1xxBVJTU0Pijq7LeOaWg8hrr72GGGOQ0dFRpL+/H3nppZcQYwwShiESRRFy9dVX84G//mvkl9u2kVixYgXnEYd3mGOt5R1mOc/0uS5ybRwzNDSEPP3008jOnTsRYwzieR5SW1uLNDc3I1dccQVSU1ND4o6uy3jmloPIa6+9hhhjkNHRUaS/vx956aWXEGMMEoYhEkURcvXVV/OBv/5r5JfbtpFYsWIF5xmHd5BjreUdZDkP9bkucm0cMzAwgDz11FPInj17kCiKkHQ6jSxYsABpaWlBGhsbkQsvvJDE6n9cwNM3jyFHjx5FjDHI6OgosnPnTqRQKHA6xhjEGIO0tbWR//znkX/T30+iubmZ85DDO8Sx1vIOsZyn+lwXuTaOGRgYQJ566ilkz549SBRFSDqdRhYsWIC0tLQgjY2NyIUXXkhi9T8u4Ombx5CjR48ixhhkdHQU2blzJ1IoFDgdYwxijEHa2trIf/7zyL/p7yfR3NzMecrhHeBYa3kHWM5jfa6LXBvHDAwMIE899RSyZ88eJIoiJJ1OIwsWLEBaWlqQxsZG5MILLySx+h8X8PTNY8jRo0cRYwwyOjqK7Ny5EykUCpyOMQYxxiBtbW3kP/95Ev+mvx9pbm7mPOZwljnWWs4yy3muz3WRa+OYnTt3Ihs2bECGh4cR13WRTCaD5HI5ZOnSpUhjYyPy/ve/n8Qf/EMdT988hhw+fBgJwxAZGxtDduzYgRQKBcR1XSSKIiSKIuRPn3wSmbt7N9LQ0MB5zuEscqy1nGWW81if6yLXxjGJnTt3Ihs2bECGh4cR13WRTCaD5HI5ZOnSpUhjYyPy/ve/nz/4hzqevnmMUx0+fBgJwxAZGxtDduzYgRQKBcR1XSSKIiSKIuRPn3wSmbt7N9LQ0MB5zuEscqy1nEWW81yf6yLXxjGJnTt3Ihs2bECGh4cR13WRTCaD5HI5ZOnSpUhjYyPy/ve/nz/4hzqevnmMUx0+fBgJwxAZGxtDduzYgRQKBcR1XSSKIiSKIuRPn3wSmbt7N9LQ0MA04HCWONZazhLLNNDnukhjqUSit7cX2bx5MzI+Po6k02lOp62tDbnqqquQTCaDuK7Lp3a08K3WfiorK5EwDJHx8XFkeHgY2b17NzI1NcXppFIpJJPJIHc9+CCyqFhEstks04TDWeBYazlLLNNAn+sijaUSid7eXmTz5s3I+Pg4kk6nOZ22tjbkqquuQjKZDOK6Lp/a0cK3WvuprKxEwjBExsfHkeHhYWT37t3I1NQUp5NKpZBMJoPc9eCDyKJiEclms0wTDmeBY63lLLBME32uizSWSiR6e3uRzZs3I+Pj40g6neZ02trakKuuugrJZDKI67p8akcL32rtp7KyEgnDEBkfH0eGh4eR3bt3I1NTU5xOKpVCMpkMibsefBA5sGEDK1euRLLZLNOIw2/JsdbyW7JMI32uS2LhxATS3d2NbNmyBSmVSkhFRQUSxzGyYsUK5JprrkEymQzS1NTE1d+MeXj5IOl0GgmCACkWi8jw8DAyMjKCFItFJI5jpKKiAqmqqiLxoa98BXll0yby+TySyWSYZhx+C461lt+SZZroc11k4cQE0t3djWzZsgUplUpIRUUFEscxsmLFCuSaa65BMpkMTU1NvG71eth4J4mhoSEkCAKkWCwiw8PDyMjICFIsFpE4jpGKigqkqqqKxIe+8hXklU2byOfzSCaTYZpx+C041lp+C5ZppM91kYUTE0h3dzeyZcsWpFQqIRUVFUgcx8iKFSuQa665Bmlra4PV6/kVG+9kaGiIRBAESLFYRIaHh5GRkRGkWCwicRwjFRUVSFVVFYkPfeUryCubNpHP55FMJsM05PAbcqy1/IYs00yf6yLVo6NIV1cXsm3bNsT3fSSTyXA6N954I3L99dcj9fX1sHo9v2LjnQwODpIIwxAplUrIz3/+c2T//v1IqVRC4jhGKioqkJqaGhI3f/GLyJFnn6WjowPxPI9pyuE34Fhr+Q1Zppk+10WqR0eRrq4uZNu2bYjv+0gmk+F0brzxRuT6668nUV9fD6vX85Y23sng4CBhGCKlUgn5+c9/juzfvx8plUpIHMdIRUUFUlNTw81f/CJy5NlnSXR0dCCe5zFNOfwGHGstvwHLNNTnukj16CjS1dWFbNu2DfF9H8lkMpzOjTfeiFx//fVIfX09rF7Pr9h4J4ODgyTCMERKpRLy85//HNm/fz9SKpWQOI6RiooKpKamhpu/+EXkyLPPkujo6EA8z2MaczhDjrWW34BlmulzXeTaOKa/vx957rnnkB07diDGGCSTySCu6yK33XYb0tHRgdTU1MDq9fyKjXeyc+dOEkEQIOVyGdm1axdy6NAhpFQqIcYYpLKyElmwYAE3fOELyLGeHhLt7e3MEA5nyLHWcoYs01Cf6yLXxjH9/f3Ic889h+zYsQMxxiCZTAZxXRe57bbbkI6ODsTzPLLZLK9bvR423kli586dSBAESLlcRnbt2oUcOnQIKZVKiDEGqaysRBYsWMANX/gCcqynh0R7ezsziMMZcKy1nCHLNNTnusi1cUx/fz/y3HPPITt27ECMMUgmk0Fc10Vuu+02pKOjA/E8D8lms7z44oskwjBEgiBAyuUysmvXLuTQoUNIqVRCjDFIZWUlsmDBAm74wheQYz09JNrb25lBHM6AY63lDFimqT7XRa6NY7q7u5Fnn30W2bNnDxLHMZLJZJBMJoPceuutSHt7O+K6Lokbnqjk0fYXEd/3Ed/3kVKphAwODiITExOI7/uIMQbJZDJIfX09+c9/noSzfTvS2trKDOPwNjnWWs6AZZrqc13k2jimu7sbefbZZ5E9e/YgcRwjmUwGyWQyyK233oq0t7cjruuSuOGJSh5tfxHxfR/xfR8plUrI4OAgMjExgfi+jxhjkEwmg/zhd76DONu3I62trcwwDm+TY63lbbJMU32ui1wbxyS6u7uRZ599FtmzZw8SxzGSyWSQTCaD3HrrrUh7ezviui6JG56o5NH2FxHf9xHf95FSqYQMDg4iExMTiO/7iDEGyWQyyB9+5zuIs3070traygzk8DY41lreJss01ee6yJVBQGLr1q1IV1cXUigUENd1kXQ6jdTV1SErV65EWlpakDiOSdzyzDweahtAfN9HSqUSUiwWkcHBQaRcLiNBECBhGCKVlZXIZx55BJkzOIg0NTUxAzm8DY61lrfBMo31uS5yZRCQ2Lp1K9LV1YUUCgXEdV0knU4jdXV1yMqVK5GWlhYkjmMStzwzj4faBhDf95FSqYQUi0VkcHAQKZfLSBAESBiGSGVlJfKZRx5B5gwOIk1NTcxQDv8Kx1rL22CZxvpcF7kyCEhs3boV6erqQgqFAuK6LpJOp5G6ujpk5cqVSEtLCxLHMYlbnpnHQ20DiO/7SKlUQorFIjI4OIiUy2UkCAIkDEOksrIS+cwjjyBzBgeRpqYmZiiHf4VjreVfYZnm+lwXaSyVSHR2diLd3d3IxMQE4nkekkqlkMbGRmT58uVIQ0MDEkURiQ8/t5BvtOxAwjBEisUicvDgQWT//v1IEARIEARIEARINpsl8Yl165CBtWtZuXIlsnDhQmYwh1/Dsdbyr7BMc32uS6KxVEI6OzuR7u5uZGJiAvE8D0mlUkhjYyOyfPlypKGhAYmiiMSHn1vIN1p2IGEYIsViETl48CCyf/9+JAgCJAgCJAgCJJvNkvjEunXIwNq1rFy5Elm4cCEzmMOv4Vhr+VdYprE+10UaSyWks7MT6e7uRiYmJhDP85BUKoU0NjYiy5cvRxoaGpAoikh8+LmFfKNlBxKGIVIsFpGDBw8i+/fvR4IgQIIgQIIgQLLZLIlPrFuHDKxdy8qVK5GFCxcygzn8Go61ll/DMs31uS6yqFhENm/ejPT29iLFYhFxXRfxPA9paWlBrrrqKmThwoVIFEXc3bOYx1bsZmpqComiCJmYmEAKhQJy6NAhxBiDBEGABEGAZLNZEh/7+teR3Q8/zKpVq5Da2lpmOIe34Fhr+TUs01yf6yKLikVk8+bNSG9vL1IsFhHXdRHP85CWlhbkqquuQhYuXIhEUcTdPYt5bMVupqamkCiKkImJCaRQKCCHDh1CjDFIEARIEARINpsl8bGvfx3Z/fDDrFq1CqmtrWWGc3gLjrWWt2CZAfpcF1lULCKbN29Gent7kWKxiLiui3ieh7S0tCBXXXUVsnDhQiSKIu7uWcxjK3YzNTWFRFGETExMIIVCATl06BBijEGCIECCIECy2Swf+/rXkd0PP0xi1apVSG1tLbNwOA3HWstbsMwAfa6LLDh4EOnq6kI6OzuRIAiQqqoqJIoipLm5GVm0aBFSW1uLuK7Lvf2tfKNlB1NTU4jv+8jExARy+PBhpFQqIUEQIOVyGXnkwAFO1bdtG3JtRwdrP/IRbrjhBqS+vp5ZOJyGY63lLVimuT7XRZb4PuVyGenq6kI6OzuRIAiQqqoqJIoipLm5GVm0aBFSW1uLuK7Lvf2tfKNlB1NTU4jv+8jExARy+PBhpFQqIUEQkHhgcJBfp2/bNuTajg7WfuQj3HDDDUh9fT2zcDgNx1rLaVhmgD7X5c0WHDxIoqurC+ns7ESCIECqqqqQKIqQ5uZmZNGiRUhtbS3iui739rfyjZYdTE1NIb7vIxMTE8jhw4eRUqnEf9m+nTPRt20bcm1HB2s/8hFuuOEGpL6+nlmvc3gTx1rLaVhmgD7X5e367x/+MIkwDJGqqirEGIO0trYiixYtQubNm4e4rsundy5j7bKdTE1NIb7vI8ViEfnU977HmfjIv/23SFVVFZ9Ytw65tqODxMi6dUh9fT2zXufwJo61ltOwzBB9rstv4+sf+xgJYwzS2tqKLFq0CJk3bx7iui6f3rmMtct2MjU1hfi+T+KDDzzAmfiPixfj+z5ijEGqqqr4xLp1JK7t6EBG1q1D6uvrmfU6hzdxrLW8iWUGCcMQKZfLvDRvHmdL71e/yqJFi5B58+YhruuS+PTOZfzs8Txn6rPLlpEIggDxfR8xxiB/+uSTyLUdHcjIunVIfX09s05yOIVjreVNLDOIMQYplUpIV1cXsmnTJv70ySc5W67t6OBMPPyxj1EqlZD9+/cjYRgiQRAgxhjks9//PjKwdi2f+t73SIysW4fU19cz6ySHUzjWWt7EMoMYY5BSqYR0dXUhmzZtQsIwRLLZLJ955BHOlms7Okh0fvazJCYmJpBSqYTs378fCcMQCYIAMcYgn/3+95GBtWv51Pe+h4ysW0eivr6eWSc5nMKx1vImlhnEGIOUSiWkq6sL2bRpExKGIZLNZhFjDPLdl18m0bdtG2dL71e/iuzfvx8JwxAJggAxxiCf/f73kYG1a/nU976HjKxbR6K+vp5ZJzmcwrHWcgrLDGOMQcrlMtLV1YX88Ic/RMIwRKqrq0l8e+9ezkTftm2cLV//2McQYwwSRRHy2e9/H+n/xjf49BNPICPr1pGor69n1r/gcIJjreUUlhnGGIOUy2Wkq6sL+eEPf4g88cornKktf/7nJGpra5E4jkl8akcL/62+m8SclSs5W77yoQ+R+Oz3v4888pnP0NzcTOLTTzxBYmTdOhL19fXM+hccTnCstZzCMsMYY5ByuYx0dXWRuOOb3+RMfGz+fJYvX47kcjmktrYWieOYxKd2tPDf6ruRIAiQqakppOGee/htPfKZz9Dc3Ezi0088gYysW0d9fT2z/gWHExxrLaewzDDGGKRcLlN9++2cif9w2WUkjDFIW1sbsnDhQqSmpgaJ4xi5t7+V/3zpsyTCMERKpRJSLpeRgYEB5D98+9u8Xd/5wz+kubmZxL1PPom8+OCDNDU1MetfcDjBsdZyCstMk89zJv5g7lykuroaMcYgbW1tyMKFC5GamhokjmPk3v5W/vOlz5IIwxAplUpIuVxGBgYGEGMMYoxB/viJJzjVd/7wD0k0NzeTuPfJJ5EXH3yQpqYmZv0LDic41lpOsMwU+Txv14bPfIYf/vCHSBiGSHV1NWKMQdra2pCFCxciNTU1SBzHyL39rfznS58lEYYhUiqVkHK5jAwMDCDGGMQYg0RRhGSzWaS5uRm598knSbz44IM0NTUx61c4HOdYaznBMhPk8/w6Exs2kOjq6kI2bdqEhGGIVFdXI8YYpLW1Fcnlckh1dTUSxzFy/4vt/M3FnSSMMUipVEJ830defPFFxBiDGGMQYwxSVVWFLF26FPmjjRsRs3UrkkqlmPU6h+Mcay0nWGaCfJ6TursJwxApl8tIV1cXsmnTJiQMQ6S6uhoxxiCtra1ILpdDqqurkTiOkftfbOdvLu4kYYxBSqUS4vs+8uKLLyLGGMQYgxhjkKqqKmTp0qXIH23ciJitW5FUKsWs1zkc51hrOcEyU+TzvK67mzAMkXK5jHR1dSGbNm1CwjBEqqurEWMM0traiuRyOaS6uhqJ4xi5/0j+h2wAACAASURBVMV2/ubiThLGGKRUKiG+7yMvvvgiYoxBjDGIMQapqqpCli5divzRxo2I2boVSaVSzHqdw3GOtZYTLDNFPo8EnZ1IuVxGurq6kM2bNyNhGCLZbBYxxiDLli1DFixYgNTU1CBRFCGfG8nzl7/3QxLGGKRUKiG+7yN79+5FjDGIMQYJggCprq5GGhoakOuvv562v/gLEuVNm5DKykpmvc7hOMday3GWmSSfR4LOTqRcLiNdXV3I5s2bkTAMkWw2ixhjkGXLliELFixAampqkCiKkM+N5PnL3/shCWMMUiqVEN/3kb179yLGGMQYgwRBgFRXVyMNDQ3I9ddfT9tf/AVS3rSJRGVlJbNOchxrLcdZZpJ8Hgk6O5FyuYx0dXUhmzdvRsIwRLLZLGKMQZYtW4YsWLAAqampQaIoQj43kucvf++HJIwxSKlUQnzfR/bu3YsYYxBjDBIEAVJdXY00NDQg119/PW1/8RdIedMmEpWVlcw6yXGstRxnmWnyeRL+5s1IuVxGurq6kM7OTiQMQ6SqqgoxxiAtLS3IggULkOrqaiSKIuQvD9zI5+ZuIGGMQXzfR3zfRw4cOIAYY5AwDJEwDJGqqiqkoaEBue6662j/q79Cpn7wAxLZbJZZJzmOtZbjLDNNPo/4mzeTKJfLSFdXF9LZ2YmEYYhUVVUhxhikpaUFWbBgAVJdXY1EUYT85YEb+dzcDSSMMYjv+4jv+8iBAwcQYwwShiEShiFSVVWFNDQ0INdddx2J9r/6KxJTP/gBiWw2y6yTHMday3GWmSafR/zNm0mUy2Wkq6sL6ezsRMIwRKqqqhBjDNLS0oIsWLAAqa6uRqIoQv7ywI18bu4GEsYYxPd9xPd95MCBA4gxBgnDEAnDEKmqqkIaGhqQ6667jkT7X/0VMvWDH5DNZpl1kuNYaznOMtPk80j07LMkisUi0tPTg/T09CBjY2OI53lITU0NsmzZMqSiogJJpVKIMQaJ45ivHvkof/a7j+N5HuL7PlIsFpGhoSEkDEPEGIN4nodUVFQg8+bNQ5YtW0bigw88gOz99re57LLLmHWS41hrOc4yE+XzJKJnnyVRLBaRnp4epKenBxkbG0M8z0NqamqQZcuWIRUVFUgqlUKMMUgcx3z1yEf5s999HM/zEN/3kWKxiAwNDSFhGCLGGMTzPKSiogKZN28esmzZMhIffOABZO+3v81ll13GrJMcx1rLcZaZKJ9HomefpVgsIj09PUhPTw8yNjaGeJ6H1NTUIMuWLUMqKiqQVCqFGGOQOI756pGP8me/+zie5yG+7yPFYhEZGhpCwjBEjDGI53lIRUUFMm/ePGTZsmXIBx94gMTeb3+byy67jFknOY61luMsM1E+z0nd3RSLRaS3txfp6elB9u3bh3ieh1RXVyNNTU1IVVUVkk6nkTiOkTiO+ehHP8rjjz+O67pIuVxGisUicujQIaRcLiNBEHA66XQaqa6uRpqbm5G7v/MdTuruZtZJjmOt5TjLTJTPc1J3N8ViEent7UV6enqQffv2IZ7nIdXV1UhTUxNSVVWFpNNpJI5jEnfccQevW70eNt5JYsOGDSTK5TJSLBaRQ4cOIeVyGQmCgNNJp9NIdXU10tzcjNz9ne9wUnc3s05yHGstx1lmqnye13V3UywWkd7eXqSnpwfZt28f4nkeUl1djTQ1NSFVVVVIOp1G4jjmjjvugNXr+RUb72TDhg2Uy2WkWCwihw4dQsrlMhIEAaeTTqeR6upqpLm5Gbn7O9/hpO5uZp3kONZajrPMVPk8Ut60CXn++eeRnp4eZM+ePYjrukhlZSVSX1+PVFdXI1VVVZzq9ttvh9Xr+RUb7+Txxx+nXC4jk5OTiDEGmZqaQqamppAwDBHXdZHKykqkqakJWbJkCSu/9CVe193NrJMcx1rLcZaZKp9Hyps2Ic8//zzS09OD7NmzB3FdF6msrETq6+uR6upqpKqqCrn99tth9Xre0sY7Wbt2LTI5OYkYY5CpqSlkamoKCcMQcV0XqaysRJqampAlS5aw8ktf4qTubma9znGstRxnmanyeaS8aRPy/PPPIz09PciePXsQ13WRyspKpL6+Hqmurkaqqqo41e233w6r1/MrNt7J448/TrlcRiYnJxFjDDI1NYVMTU0hYRgirusilZWVSFNTE7JkyRJWfulLnNTdzazXOY49jpkunycRdHYi27dvR3p7e5Fdu3YhURQhqVQKyeVyyMUXX4zU1NQgruty++23w+r1/IqNd7J+/Xp830cmJyeRCy64APnFL36BTE1NIb7vI8YYpKKiAmlsbEQWL17MmgcfROKuLhKu6zLTOdZajrPMZPk8EnR2kti+fTvS29uL7Nq1C4miCEmlUkgul0MuvvhipKamBnFdl8Ttt9/O61avh413kli/fj0J3/eRyclJ5IILLkB+8YtfIFNTU4jv+4gxBqmoqEAaGxuRxYsXk1jz4IMk4q4uEq7rMsM5jrWW4ywzWT6PBJ2dJLZv34709vYiu3btQqIoQlKpFJLL5ZCLL74YqampQVzXRaIo4qMf/ShXfzPmz373ccT3fWRychK54IILkF/84hfI1NQU4vs+YoxBKioqkMbGRmTx4sUk1jz4IBJ3deG6LjOc41hrOc4yk+XzSNDZSaK/vx/56U9/igwMDCBBEHA6tbW1yPz585Ha2loklUohxhgS/+Pondz/O48hYRgi5XIZieMYmZycREqlElIulxFjDOJ5HrJo0SKkvr6exD2PPIIUn3qKbDaLuK7LDOQ41lqOs8x0+TyJoLOTRH9/P/LTn/4UGRgYQIIg4HRqa2uR+fPnI7W1tUgqlUKMMcj/OHon9//OYyTCMETK5TISxzEyOTmJlEolpFwuI8YYxPM8ZNGiRUh9fT2Jex55BCk+9RTZbBZxXZcZyHGstRxnmenyeSTo7KS/vx/56U9/igwMDCBBEHA6tbW1yPz585Ha2loklUohxhjkfxy9k/t/5zESYRgi5XIZieMYmZycREqlElIulxFjDOJ5HrJo0SKkvr6exD02gke/S6L41FNks1nEdV1mIMex1nKcZabL5xGzdSuDg4PIz372M2RgYACZmppCoihCstksksvlkIsvvhhxXRcxxiDf+OdPct/7HiYRRREShiEShiFy+PBhpFwuI77vI2EYInEcI3V1dchXlizmpEe/ixSfegqprq5mBnIcay3HWWa6fB4xW7cyODiI/OxnP0MGBgaQqakpJIoiJJvNIrlcDrn44osR13URYwziui5fO/Zx7nvfw0RRhIRhiIRhiBw+fBgpl8uI7/tIGIZIHMdIXV0dX1mymF/x6HeR4lNPIdXV1cxAjmOt5TjLLMjnSZitWxkcHER+9rOfIQMDA8jU1BQSRRGSzWaRXC6HXHzxxYjruogxBnFdl68d+zj3ve9hoihCwjBEwjBEDh8+jJTLZcT3fSQMQySOY+SJD6zitB79LlJ86imkurqaGchxrLUcZ5kF+Twy9M1vIi+88AIyMDCATExMIGEYIqlUCsnlcshFF12EuK6LhGGIeJ7Ht5xP8ym7Fs/zkDiOEd/3kSNHjiC+7yNBECC+7yNBEPDkzTfyVr40doi2tjZWffnLJEbWrUPmz5+PpNNpZgjHsdZynGUW5PPI0De/ibzwwgvIwMAAMjExgYRhiKRSKSSXyyEXXXQR4rouEoYh4nkeiW85n+beCx5C4jhGfN9Hjhw5gvi+jwRBgPi+T+KRf7eCt/KlsUNIW1sbq778ZWRk3ToS8+fPR9LpNDOE41hrOc4yC/J5ZOib30ReeOEFZGBgAJmYmEDCMERSqRSSy+WQiy66CHFdFwnDEPE8j8S3nE9z7wUPIXEcI77vI0eOHEF830eCIEB83+eRf7eC0/nMT3eQqKurQ9ra2lj15S9z0j13MdL+fzJ//nwknU4zQziOtZbjLLPekM+TKDz6KDI4OIgMDAwg4+PjSBAESBRFSC6XQy666CIkjmMkDEMknU6TeOiCe7nvfQ9zOr7vI0ePHkWCIEB83yfx369s4nQ+9PdbqKioQGpqapD29nY++MADnHTPXQy0XMOll16KVFZWMkM4jrWW4yyz3pDPI4VHHyUxODiIDAwMIOPj40gQBEgURUgul0MuuugiJI5jJAxDJJ1Ok3jognu5730Pczq+7yNHjx5FgiBAvrjwEt7Kh/5+C4mKigqkpqYGaW9vJ/HBBx7gdffcRaK8+naksrKSGcJxrLUcZ5n1hnweKTz6KInBwUFkYGAAGR8fR4IgQKIoQnK5HHLRRRchcRwjYRgi6XQaeeiCe7nvfQ/zZr7vI0ePHkWCIOCLCy/hrXzix72Uy2WkoqICqampQdrb20l88IEHOOmeuyivvh2prKxkhnAcay0nWGZBPo9M/eAHJPr7+5Genh7k4MGDSBRFSBRFSCaTQWpqapALL7wQ8TwPSafTyNeOfZxP/vM3eLM4jjmd++akOZ3/8JPnEd/3Ec/zkO++/DK/1j13kRj7/RtJ1NXVMQM4HOdYaznBMusN+TyJqR/8gER/fz/S09ODHDx4EImiCImiCMlkMkhNTQ1y4YUXIp7nIel0GvnasY/zyX/+Bm8WxzGnum9OmrfyheG9TExMIL7vk3jilVd42+65Cxn7/RtJ1NXVMQM4HOdYaznBMusN+Twy9YMf0N/fj/T09CAHDx5EoihCoihCMpkMUlNTg1x44YWI53lIOp1GwjDkoQvu5ZP//A1OFccxifvmpHkrXxjei0xMTPDtvXs5Ew/ddReJBQsWkFj1cgEZ+/0bqaurYwZwOM6x1nKCZdYb8nkk3LKF/v5+5Mc//jHy8ssvI2EYInEcIxUVFUg2m0Xmzp2LeJ6HpFIpJAxDHvud+7n7tf/Jqe6fm+Gt/N2RgMQfbdzImfjEpZciTU1NSF1dHXLHaz6JwWXXsnjxYsTzPKYph+Mcay0nWGa9IZ9Hwi1b6O/vR3784x8jL7/8MhKGIRLHMVJRUYFks1lk7ty5iOd5SCqVQsIwJPHY79zP3a/9TxL3z81wWo9+lzPxf11yCadyXRdpampC6urqkDte85HornsQz/OYphyOc6y1nMIy6w35PIlwyxb6+/uRH//4x8jLL7+MhGGIxHGMVFRUINlsFpk7dy7ieR6SSqWQMAxJPPY79/Oz1EOc9Oh3OVN/3NxMolQqcTqu6yJNTU1IXV0dcsUVV7B0Zx+J6K57EM/zmIYcTnCstZzCMusN+Twysm4d8qMf/QgZGRlBSqUS4nkekkqlkKqqKmTOnDmI53lIKpVCwjDkzy6sgke/y5l46K678H0fmZycRIrFIhKGIRJFEVJTU4PMnz8fWbJkCSv/6SWkeMttJKqrq5mGHE5wrLWcwjLrDfk8MrJuHfKjH/0IGRkZQUqlEuJ5HpJKpZCqqipkzpw5iOd5SCqV4r7vf58z8fDHPkYijmPE931kcnISKRaLSBiGSBRFSE1NDTJ//nxkyZIlJFb+00skirfcRqK6upppyOEEx1rLKSyz3pDPIyPr1iE/+tGPkJGREaRUKiGe5yGpVAqpqqpC5syZg3zuH/6BM/HQXXchrusicRwjvu8jk5OTSLFYRMIwRKIoQmpqapD58+cjS5YsIbHyn15CirfcRnV1NdOQwwmOtZZTWGb9//J5EuOPP4709vYig4ODyPj4OBJFEZJKpZCqqioSX37+ec7IPXfxtaMhD7/vPj5+7GtUVFQgrusiURQhYRgir776KlIsFhHf95EwDJF0Oo3MmzcPaWpqQj76y4DE0PL/g8suuwzxPI9pwuEEx1rLm1hmvSGfR8Yff5xEb28vMjg4iIyPjyNRFCHf3ruXM3bPXcjfHQlIuK7Lw++7j48f+xoVFRWI67pIFEVIGIbIq6++ihSLRcT3fSQMQySdTiPz5s1DmpqakI/+MkCiu+5BPM9jGnA4hWOt5U0ss96QzyPjjz9Oore3FxkcHETGx8dJfHNoiDNyz12czt8dCTiV67o8/L77+Pixr1FRUYG4rotEUYSEYYi8+uqrSLFYRHzfR8IwRNLpNDJv3jykqakJufrqq2l4/idIdNc9JDzPYxpwOIVjreVNLLPekM8j5U2bSGzfvh353//7f/N//+M/cib+uLmZxP971VLeyteOhiRSqRSSSqVI/N0v7+FTdi2nE0UREkURcvToUWRqagoplUpIuVxGUqkUks1mkcsuuwy5+uqrWbF3GJn69x8kkc1mmQYcTuHY/689+I+x6jzsPPw5xyeHw+Fw585lNFAYg8d4GKMBJh5Csi0yikWb1v2RNI68KSIRaNmslW1dC7kRVVX1j/3HRhZyI6/W67VmM47XsSKtIlWVKlVNVVSv166HrYEpDDDFE7t4PCbX13cuZw5nDu+873INX5c6d/wTMJh5Hud4D8e8f3XXXTQ1/uIvaCp97Wt8FDtXrULK5TJ//vn1zOXhyZ+zePFiJAxDJAxDmh6b2cF33BO0YoxBjDHI9PQ0UqvVkHq9jjQaDSQMQ6RSqSCrV69GBgYGaLrz5Amk9tWvU6lU+AzwuITnnKMFx7wL7rqLj+IP+vqo1+tIEAQ0DX35Tuby8OTPkcWLFyNhGCJhGCKPzezgO+4J3ssYgxhjkOnpaaRWqyH1eh1pNBpIGIZIpVJBVq9ejQwMDNB058kTSO2rX6dSqXCd83gPzzlHC455F9x1F+/nid/7PZrGx8eR1157DfF9n//1q3fRyh/90yhNpVIJaW9vR+I4RuI4Rvad2cau2cdpstYieZ4j1lrk3LlzSKPRQOr1OtJoNJAgCJAoipDly5cjfX19yL3TDd61cxfXOY/38JxztOCY96/uuosm8zd/w6FDh5ADBw4g4+PjyGuvvUbTj76ylbn80T+NIqVSCWlvb0fiOEbiOEb2ndnGrtnHabLWInmeI9Za5Ny5c0ij0UDq9TrSaDSQIAiQKIqQ5cuXI319fci90w3etXMX1zmP9/Ccc8zBMe8dxhjk0KFDyIEDB5Dx8XHk4dt7mMt/fun/0RTHMVIqlZD29nYkjmMkjmOkXq8zeNN32TX7ONZaJM9zxFqLnDt3Dmk0Gki9XkcajQYSBAESRRGyfPlypK+vD/n85z9Pz/N/z7t27uI65dGC55xjDo55v+DkyZPIwYMHkX/+53+mac/SDlr51k//jlKphERRhCRJgrS3tyNJkiBxHCO1Wo2nFtzPjpnHKIoCOXfuHGKtpZUsy5A0TZE0TRFjDK2Uy2Wkp6cHGRgYoOmXjx+lqXHPvTSVSiWuMx4teM455uCY9wtOnjyJHDx4EPnGmTqtfOunf4eUSiUkiiIkSRKkvb0dSZIEieMYqdVqND214H62ndmHnDt3DrHW0kqWZUiapkiapogxhlbK5TLS09ODDAwM0PTLx48ijXvupVQqcZ3xaMFzzvE+HPP+jZMnTyIHDx7kG2fqzOVbP/07LlUqlZAoipAkSZD29nYkSRIkjmOkVqvR9NSC+9l2Zh9y7tw5xFpLK1mWIWmaImmaIsYYWimXy0hPTw8yMDCA/PLxozQ17rmXUqnEdcRjDp5zjvfhmPdvnD59mqbOv/pL5vIf/v55xFqLxHGMBEGAJEmCtLW1IUmSIHEcI1mWIT/43O+z7cw+mmZmZmjF932kKAokTVMkTVMkz3PEGIOEYYjceuutyB133IHc/eYEYr61AwmCgGucxxw85xwfwDHvXadPn6bzr/6SVh4/W9A0PDyMWGuROI6RIAiQJEmQtrY2JEkSJI5jJMsy5Aef+322ndlH08zMDK34vo8URYGkaYqkaYrkeY4YY5AwDJFbb70VueOOO5D169fT9dO/psl8awcSBAHXMI/34Tnn+ACOeRcMDTKXx88WyPDwMGKtReI4RoIgQJIkQdra2pAkSZA4jpEsy5A8z3l28YNsO7OPmZkZWvF9HymKAknTFEnTFMnzHDHGIGEYIrfeeityxx13IOvXr6frp3+NmG/toCkIAq5hHu/Dc87xARzzLhga5L1e2XIXTaOjo8gLL7yA1Go1pCgKWonjGAnDELn55puRZcuWIadPn0astTy98AG+ffb7WGuRoiiQ2dlZJM9zJM9zxBiDTExM0EoYhkgcx0hPTw+yYcMGmn7t9ddoatxzL02lUolrmMf78JxzfAiOeRcMDfKOnbt45ZVXkNHRUeSFF15AarUaUhQFrcRxjIRhiNx8883IsmXLkNOnTyPWWpqeXvgA26cfRYqiQGZnZ5E8z5E8zxFjDDIxMUErYRgicRwjPT09yIYNG2j6tddfQxr33EupVOIa5fEBPOccH4Jj3gVDg8grW+5CRkdHkRdeeAGp1WpIURS0EscxEoYhcvPNNyPLli1DTp8+jVhraXp64QNsn36UBx98kH379lEUBTI7O4vkeY7keY4YY5CJiQlaCcMQieMY6enpQTZs2ID82uuv8a6du7hGeXwAzznHh+SYd8HQIE2Tv/FbyNjYGPLcc88hp06dQtI0pZUkSZAoipAVK1YgHR0dSL1e5712797NO+55Bn6ynaaHHnqIJucckuc5UhQFYq1FJicnEWMMEgQBEoYh0tXVhfT19SHfOFPnXTt3cQ3y+BA85xwfkmPeBUODyORv/BZNY2NjyHPPPYecOnUKSdOUVpIkQaIoQlasWIF0dHQg9XqdS+3evRvueYZf8JPtPPTQQzjnkDzPkaIoEGstMjk5iRhjkCAIkDAMka6uLqSvrw/ZuHEjt+z/W961cxfXGI8PwXPO8RE45l0wNIhM/sZvMTY2hjz33HPIqVOnkDRNaSVJEiSKImTFihVIR0cHUq/XudTu3bvhnmf4BT/ZzkMPPYRzDsnzHCmKArHWIpOTk4gxBgmCAAnDEOnq6kL6+vqQjRs3csv+v+VdO3dxDfH4kDznHB+BY94FQ4NI9u+38frrryP79+9HRkdHkcnJScRai5RKJSRJEmTp0qVIqVRC0jRF9uzZA/c8w5x+sp2HHnoImZ2dRYwxiLUWqVarSJ7nSFEUiDEG6ezsRFavXo0MDAzQtHnsGHLqV3+drq4urgEeH5LnnOMjcsy7YGgQGdu8Bdm/fz8yOjqKTE5OItZapFQqIUmSIEuXLkVKpRKSpimX2rNnD9zzDL/gJ9vZu3cv1lpkdnYWMcYg1lqkWq0ieZ4jRVEgxhiks7MTWb16NTIwMEDT5rFjyKlf/XW6urr4lHl8BJ5zjo/IMe+CoUFkbPMWZP/+/cjo6CgyOTmJWGuRUqmEJEmCLF26FCmVSkiaplxqz549cM8z/IKfbGfv3r1Ya5HZ2VnEGINYa5FqtYrkeY4URYEYY5DOzk5k9erVyMDAALJ57Bjv2rmLT5nHR+A55/gYHPMuGBpEGvfcS9Pzzz+PDA8PIydOnECKokDiOEaSJEE6OjqQKIoQz/MQ3/dp2rNnD++45xn4yXaaHnnkEZqMMYhzDrHWItZaJMsyJE1TJE1TpNFoIEmSIMuXL0d6e3uRrq4utv7Lz3jHzl18ijw+Is85x8fgmHfB0CDSuOdemp5//nlkeHgYOXHiBFIUBRLHMZIkCdLR0YFEUYR4nof4vs+l9uzZw969e/lx2/fYdmYfTcYYxDmHWGsRay2SZRmSpimSpinSaDSQJEmQ5cuXI729vUhXVxdb/+VnvGvnLj4lHh+R55zjY3LMu2BoEGnccy/PP/88Mjw8jJw4cQIpigKJ4xhJkgTp6OhAoihCPM9DfN+nFd/3eXbxg2w7sw9jDOKcQ6y1iLUWybIMSdMUSdMUaTQaSJIkyPLly5He3l6kq6uLpq3/8jPesXMXnwKPj8FzzvExOeb9q6FB3rFzFyMjI8iLL76IvPzyy0iapkgYhkgQBEipVEKiKEIWLVqE+L5PK77v8+ziB9l2Zh/WWj6ItRaZnZ1FGo0GUq/XkXq9Tivlchnp7u5G9izt4L1O/+bvUC6XkTAMucI8PgbPOccn4Jh3wdAgMrLxi8iLL76IvPzyy0iapkgYhkgQBEipVEKiKEIWLVqE+L5PK77v0/Ts4gf55tQjfBBrLTI7O4s0Gg2kXq8j9XqdVsrlMtLd3c2epR3M5fRv/g7lchkJw5AryONj8pxzfEKOeRcMDdI0svGLyIsvvoi8/PLLSJqmSBiGSBAESKlUQqIoQhYtWoT4vk8rvu/T9OziB/nm1CN8EGstMjs7izQaDaReryP1ep1WyuUy8t//3SZaOf2bv4OUy2UkDEOuEI9PwHPO8Qk55l0wNIhUf/trNA0PDyPDw8PI5OQkYq1FiqJAkiRBoihCli5divi+j1hrkSAIkKcXPsC2M/t4L2MMH2R6ehppNBpIrVZDjDFIFEX8zy2bmcvDkz/nzjvvRFasWIGsXLkS8X2fy8jjE/Ccc1wGjnkXDA3SVP3tr9E0PDyMDA8PI5OTk4i1FimKAkmSBImiCFm6dCni+z5irUWCIECeXvgA287s472MMXyQ6elppNFoILVaDTHG0PSjr2xlLg9P/hy58847kRUrViArV65EfN/nMvH4hDznHJeJYx4MDSLV3/4aw8PDyPDwMDI5OYlYa5GiKJAkSZAoipClS5civu8j1lokCALEGMOzix9k25l9XMoYwweZnp5GGo0GUqvVEGMMP/rKVlr542NjNJXLZeTOO+9EVqxYgaxcuRLxfZ/LwOMy8JxzXCaOeRcMDfKOnbs4dOgQcuDAAWR8fByp1+tIo9FAoihCkiRBVq1ahfi+jxhjkCAIEGMMzyzazfbpR7lUURS04pxDiqJAsixDarUaTf/jV75EKzv3P0elUkHiOEZ6e3uR2267Denr60NKpRKXgcdl4DnnuIwc82BoEDl0xxeQAwcOIOPj40i9XkcajQYSRRGSJAmyatUqxPd9xBiDBEGAGGNoembRbrZPP4oURUErzjmkKAokyzLk4dt7mMvO/c/RVKlUkDiOkd7eXuS2225D+vr6kFKpxCfkcZl4zjkuoJvv1AAAEY5JREFUM8c8GBpEDt3xBZoOHDiAjI+PI/V6HWk0GkgURUiSJMiqVasQ3/cRYwwSBAFijKHpmUW72T79KFIUBa0455CiKJAsy3j49h7msnP/c1yqUqkgcRwjvb29yG233Yb09fUhpVKJT8DjMvKcc1xmjnkwNIj87MtbaTp06BBy7Ngx5I033kCq1SoShiFSKpWQnp4exPd9xBiD+L6PFEWBPLNoN9unH6WpKArEOYdYaxFjDPJnK1fQyn/6v/+AWGuROI6RKIqQJUuWIOvWrUM2bdqEdHZ28gl4XEaec44rwDEPhgaRn315K4cOHUKOHTuGvPHGG0i1WkXCMERKpRLS09OD+L6PGGMQ3/eRoii41DOLdrN9+lGKokCcc4i1FjHG8GcrVzCXPzjwMkVRINZaJI5jJIoiZMmSJci6deuQTZs2IZ2dnXxMHpeZ55zjCnHc6IYGkZ99eSuHDh1Cjh07hrzxxhtItVpFwjBESqUS0tPTg/i+jxhjEN/3kaIouNQzi3azffpRiqJAnHOItZamP1m+lLn8wYGXkaIoEGstEscxEkURsmTJEmTdunXIpk2bkM7OTj4GjyvAc85xBTludEODyNjmLcjBgweRI0eOIBMTE7Ti+z6yceNGxBiD5HmO+L6P+L7Pez214H7ufXsvcu7cOeRPu36Juex9s0rT1NQUkqYp0mg0aCUIAsT3faS/vx/ZsmULsnbtWiQIAj4EjyvEc85xhTluZEODyNjmLcjBgweRI0eOIBMTE7Ti+z6yceNGxBiD5HmO+L6P+L5PK08tuJ97395L07lz52j6065fopW9b1a51NTUFJKmKdJoNGglCALE932kv78f2bJlC7J27VokCAI+gMcV5DnnuAocN6iiKAh/9DQytnkLTQcPHkSOHDmCTExM0Irv+8jGjRsRYwyS5zni+z7i+z6tPLXgfu59ey9Ne5Z2MJe9b1Z5r6mpKSRNU6TRaNBKEASI7/tIf38/smXLFmTt2rVIEAS8D48rzHPOcRU4bnRDgzRNfOVumo4cOYIcPXoUGR8fR/I8R6y1yMqVKxFrLa0sWrQICcMQCcMQMcbw+4si5rL3zSpBENDK9PQ0Uq/XkXq9jhhjaCUIAmTNmjXIpk2bkLVr1yKdnZ1IEAS8h8cV5jnnuEocN7KhQWTiK3dz5MgR5OjRo8j4+DiS5zlirUVWrlyJWGtpZdGiRUgYhkgYhsh9CwJa2ftmFQmCgFamp6eRer2O1Ot1xBhDK0EQIGvWrEE2bdqErF27Funs7ESCIOASHleB55zjKnLcyIYGaZr4yt0cOXIEOXr0KDI+Po7keY5Ya5GVK1ci1lpaWbRoERKGIRKGIfctCGjl0bcbNBVFgQRBQCvT09NIvV5H6vU6YoyhlSAIkDVr1iCbNm1C1q5di3R2diJBEHCRx1XiOee4yhw3qqFBZPRLv4IcPXoUGR0dRSYnJ5Esy5ByuYz4vo+EYYi0tbUhcRzTdP/imLl8odjFjpnHaDLGIEEQ0EqWZcjU1BRSq9WQLMsQYwwSBAGybNkypLe3F1m3bh3S3d2NdHZ2cp7HVeQ55/gUOG5ARVEQ/uhpmka/9CvI0aNHkdHRUWRychLJsgwpl8uI7/tIGIZIW1sbsmdpB3N5/GxBkzGGpxbcz46ZxzDGIEEQ0EqWZcjU1BRSq9WQLMsQYwwSBAGybNkypLe3F1m3bh3S3d2NdHZ2elxlnnOOT4njBlMUBeGPnkZGv/QrNB09ehQZHR1FJicnkSzLkHK5jPi+j4RhiLS1tdG0Z2kHrQzOQlEUiDGGpqcW3M/26UeRIAhoJcsyZGpqCqnVakiWZYgxBgmCAFm2bBnS29uLrFu3Dunu7uYir7Ozk6vNc87xKXLciIYGaap99es0jY2NIYcPH0aOHz+O1Go1pFQq0UoURcjDt/cwl8fOZDQZYxBjDE0/bvseu2YfR3zfp5WiKJCpqSmkVqsh9XodKYoCCYIAiaIIWb58OdLb24ts2LCB8zzO6+npQYIg4GrwnHN8yhw3mqFBpPbVrzM2NoYcPnwYOX78OFKr1ZBSqUQrURTx8O09zGXfW3XCMESMMYgxBvlx2/fYNfs4Tb7v00pRFMjU1BRSq9WQer2OFEWBBEGARFGELF++HOnt7UU2bNjgcVFPTw8SBAFXg+ec4xrguNEMDSL/sHYdcvjwYeT48eNIrVZDSqUS7/Xnn1/PXPa9VUfCMESMMYgxBvlx2/fYNfs4Tb7v00pRFMjU1BRSq9WQer2OFEWBBEGARFGELF++HOnt7eUib8OGDUhPTw8SBAFXg+ec4xrhuJEMDSKvbLkLGRkZQUZGRpCJiQnE933EWst/++JGWvmTEydpKpVKyMKFCxFrLWKtRUqlEk+473Cf9ySXstYixhgkTVNkamoKqdVqSJ7nSBiGiDEGieMYWbVqFed5nDcwMID09/cjHR0dXA2ec45rjOMGYK3F/+EPkFe23EXTyMgIMjIygkxMTCC+79P0X79wB3P5kxMnkVKphCxcuBCx1iLWWqRUKvGE+w73eU9yKWstYoxB0jRFpqamkFqthuR5joRhiBhjkDiOuchbtWoVMjAwgPT39yMdHR1cDZ5zjmuQ4zPOWov/wx8gr2y5i6aRkRFkZGQEmZiYQP7bFzcylz/8x0M0JUmClEolZOHChYi1FrHWIqVSiaYn3He4z3sSsdYixhgkTVNkamoKqdVqSJ7nSBiGiDEGieOY8zzOW7VqFTIwMID09/cjHR0dXA2ec45rlONGMDSI1H/3G4yNjSGHDx9GXn31VZr+y62raGXn/ue4VBzHSGdnJ9Le3o7EcYwEQYD4vk/TYzM7+O5Ng0hRFLSSZRly9uxZpFarIVmWIb7vI3meI9Zaj4s6OjqQ9evXIwMDA0h3dzeSJAlXiuec4xrm+KwbGkTqv/sNxsbGkMOHDyO7bqKlnfufo5U4jpHOzk6kvb0dieMYCYIA8X0feWxmB9+9aZCmoihoJcsy5OzZs0itVkOyLEN830fyPOciz1qLdHR0IOvXr0cGBgaQ7u5uJEkSrhTPOcc1zvFZNzSIDPdtQA4fPsyum5jTf/w/L2CMoZU4jpHOzk6kvb0dieMYCYIA8X0feWxmB9+9aZCmoihoJcsy5OzZs0itVkOyLEN830fyPOc8j/OstUhHRweyfv16ZGBgAOnu7kaSJOFK8ZxzXCccn1HWWvwf/oCmn315K0237P9b5vKH/3gIyfMcKYoCCYIAqVQqSKVSQdra2pAwDJEgCJA8z3nSu4/vuCfI8xyx1iLGGGR2dhZpNBpIlmWIMYaLvDzPkTRNkSiKkDVr1iD9/f1IX18f0tXVhQRBwOXkOee4jjg+g6y1+D/8AR/kyXOWppGRESTPc6QoCiQIAqRSqSCVSgVpa2tDwjBEgiBA8jznSe8+vuOeIM9zxFqLGGOQ2dlZpNFoIFmWIcYYzvM4L89zJE1TJIoiZM2aNUh/fz/S19eHdHV1IUEQcDl5zjmuQ47PEGstTf4Pf8BcnjxnkZGRESTPc6QoCiQIAqRSqSCVSgVpa2tDwjBEgiBA8jyn6UnvPr599vuItRYxxiCzs7NIo9FAsizjIs8Yg+R5jqRpikRRhKxZswbp7+9H+vr6kK6uLiQIAi4nzznHdcrxWTM0yHsN922gaWJiAjl06BBSr9eRLMsQYwwSRRFSLpeRtrY2JAxDpFKpIFmW0fSkdx/fnHqEj+Ls2bNIlmWc53Feo9FA8jxH0jSlla6uLqS/vx8ZGBhAVq9ejcRxzOXkOee4zjk+S4YGaar/7jcYGxtDJiYmkEOHDiH1eh3JsgwxxiBRFCHlchlpa2tDwjBEKpUKkmUZ8qR3H9+ceoQP6+zZs1zkZVmGNBoNJM9zJE1TWunq6kL6+/uRgYEBZPXq1Ugcx1xOnnOOzwDHZ0S9XkfGxsaQiYkJ5NChQ0i9XkeyLEOMMUgURUi5XEba2tqQMAyRSqWCZFmGPOndxzenHuHDOnv2LOd5nJdlGdJoNJA8z5E0TWmlq6sL6e/vRwYGBpDVq1cjcRxzOXnOOT5DHJ8h1WoVmZqaQl566SVkdHQUOXXqFGKMQXzfp5UkSZCOjg5kyZIlzOWpBfezY+YxrLWIMQYxxnCRNzMzgxhjEGMMUq1WkTRNEWstkiQJcssttyCbN29GNm3ahCRJwuXkOef4DHJ8BlSrVWRqagp56aWXkNHRUeTUqVOIMQbxfZ9WkiRBOjo6kCVLljCXpxbcz46Zx7DWIsYYxBjjcdHMzAxijEGMMUi1WkXSNEWstUiSJMgtt9yCbN68Gdm0aROSJAmXk+ec4zPMcR2rVqvI1NQU8tJLLyGjo6PIqVOnEGMM4vs+rSRJgnR0dCBLlixhLk8tuJ8dM49hrUWMMZzncZ4xBpmZmUGMMYgxBqlWq0iapoi1FkmSBLnllluQzZs3I5s2bUKSJOFy8pxz3AAc16FGo4GkaYqMjIwgx44dQ8bHx5E0TRFjDGKtRUqlElKpVJD29nZa8X2fpqcXPsCOmce4yMvzHLHWIrOzs4i1llaq1SpSq9UQYwwShiHS2dmJbNy4ERkYGEB6enq4nDznHDcQx3Wk0WggaZoiIyMjyLFjx5Dx8XEkTVPEGINYa5FSqYRUKhWkvb2dVnzfp+nphQ+wY+Yxj4vyPEestcjs7CxiraWVarWK1Go1xBiDhGGIdHZ2Ihs3bkQGBgaQnp4eLifPOccNyHEdaDQaSJqmyMjICHLs2DFkfHwcSdMUMcYg1lqkVCohlUoFaW9vpxXf9znP47ynFz7AjpnHaMrzHLHWIrOzs4i1llaq1SpSq9UQYwwShiHS2dmJbNy4ERkYGEB6enq4nDznHDc4xzXKGIPkeY6Mj48jJ06cQMbGxpCJiQkkz3Mkz3MkSRIkSRKkXC4jN910E+d5nBcEAfLs4gfZPv0oTdZaPgprLfLWW28h9XodybIMMcYgcRwja9euRW6//XZk69atSBRFfFKec45573BcY4wxSJ7nyPj4OHLixAlkbGwMmZiYQPI8R/I8R5IkQZIkQcrlMhd5N910ExIEAeL7Ps8s2s326Uex1vJRWGuRt956C6nX60iWZYgxBonjGFm7di1y++23I1u3bkWiKOKT8pxzzPsFjmuAMQbJ8xwZHx9HTpw4gYyNjSETExNInudInudIkiRIkiRc5JXLZeSmm25CgiBAfN/nmUW72T79KNZaPgprLfLWW28h9XodybIMMcYgcRwja9euRW6//XZk69atSBRFfFKec45578txjZmcnEReffVV5MSJE8jx48eRarWKpGmKhGHIRV4YhkhHRwcSBAEShiGyYMECmp5d/CDfPvt9JAgCxFpLK3meI2+//TaSpimSpimS5zlirUW6urqQ7u5u5O6770YqlQpSLpf5ODznHPM+EsenbHJyEnn11VeREydOIMePH0eq1SqSpinneZwXhiEShiHS0dGBBEGAhGGILFiwgKZnFz/It89+HwmCALHW0kqe58jbb7+NpGmKpGmK5HmOWGuRrq4upLu7G7n77ruRSqWClMtlPg7POce8T8xxFU1OTiKvvvoqcuLECeT48eNc5FWrVSRNUyQMQyQMQ6SjowMJggAJwxBZsGAB8uziB/n22e/TFAQBYq2llTzPkbfffhtJ0xRJ0xTJ8xyx1iJdXV1Id3c3cvfddyOVSgUpl8t8HJ5zjnlXhOMKaTQaSLVaRU6ePOlx0cGDB5HXX38dqdVqtGKMQZYtW4aEYYhEUYREUYT878ofs+3MPprCMESCIEB830fefPNNJE1TpCgKJM9zJMsypCgKpFKpIF1dXcjmzZuRZcuWIStWrECSJOHD8pxzzLumOMDjfTQaDaRarSInT55EDh48iLz++utIrVajFWMMsmzZMiQMQySKIiSKIuRzn/sczy5+kG1n9hGGIRIEAeL7PvLmm28iaZoiRVEgeZ4jWZYhRVEglUoF6erqQjZv3owsW7YMWbFiBZIkCR/W/wflIcdsdzYF1AAAAABJRU5ErkJggg==;" vertex="1" parent="1">
          <mxGeometry x="321" y="693.89" width="157" height="157" as="geometry" />
        </mxCell>
        <mxCell id="C5NoB3EoUQN5JIVtnTHw-4" value="" style="shape=image;verticalLabelPosition=bottom;labelBackgroundColor=#ffffff;verticalAlign=top;aspect=fixed;imageAspect=0;image=data:image/png,iVBORw0KGgoAAAANSUhEUgAAAMkAAADJCAYAAACJxhYFAAAgAElEQVR4AezBDZjVdYH//ff39zvnzDlzmBkcZhBhGBxjBBzB2VLcbVWWyt2rq9Z/f8o7cKAwUNkVWXdxdSsTsofbXK1YsXygW3MhH0r3X+3/v9fe7jYXxKphe5sxmiFdVlQazBMzcx5/D997fl18uI7DT0dQFOS8XsZaS9UxxQKGqmOGsdZSdVRY3nyGqjecsdZS9bpZjl2GqtfFWGupOiyW45+h6jUz1lqqXpXl7c9Q9YqMtZaqQ1hOXIaqlzHWWqr+wFI1lqEKY63lBGepGo/hBGastZyALFVHynCCMdZaTiCWqjeK4QRhrLWcACxVR4vhbc5Ya3kbs1S9WQxvU8Zay9uQpeqtYnibMdZa3kYsVccKw9uEsdbyNmCpOlYZjnPGWstxzlJ1rDMcx4y1luOUpep4YzgOGWstxyFL1fHKcJwx1lqOI5aqtwvDccJYazlOWKrebgzHAWOt5RhnqXq7MxzDjLWWY5il6kRhOEYZay3HKEvVicZwDDLWWo5BlqoTleEYY6y1HGMsVSc6wzHEWGs5Rliqql7OcAww1lqOAZaqqniGt5ix1vIWs1RVvTrDW8hYa3kLWaqqXhvDW8RYa3mLWKqqDo/hLWCstbwFLFVVR8bwJjPWWt5klqqq18fwJjLWWt5ElqqqN4bhTWKstbxJLFVVbyzDm8BYa3kTWKqqjg7DUWastbwJLFVVR4fhKDPWWo4yS1XV0WU4ioy1lqPIUlX15jAcJcZay1Fiqap6cxmOAmOt5SiwVFW9NQxvMGOt5Q1mqap6axneQMZayxvMUlX11jK8gYy1ljeQparq2GB4gxhrLW8Qy1Gyw3GQ+WFIVdVrZHgDGGstbxDLUbDDcRjP/DCkqiqG4Q1grLW8ASxHyQ7H4UjMD0OqqkYZXidjreV1shxFOxwHmR+G7HAcjtT8MKTqhGR4HYy1ltfJchRs376d1AUXIOVt2xirrq6OSOmP/ogjNT8MqXrbM7wOxlrL62A5SrZv307qgguQ8rZtjFVXV4ecddZZVNrhOByp+WFI1duO4QgZay1HyHIUbd++ndQFFyDlbdsYq66uDjnrrLMYzw7H4UjND0OqjnuGI2CstRwhS4yHHnoIeeGFF5AgCBDXdZEgCJAwDJFSqcRffuELyLfXrmWs9vZ2pKamBjn55JORTCZDnJ6eHiLnXHUVR2p+GFJ1XDEcAWOt5QhYXsFDDz2EvPDCC0gQBIjrukgQBEgYhkipVOIvv/AF5Ntr1zJWe3s7UlNTg5x88slIJpMhTk9PDzI8PIxMmDCB+WvWcKTmhyFVxzTDYTLWWo6A5RU89NBDyAsvvIAEQYC4rosEQYCEYYj8+Q03IN9eu5Y47e3tSE1NDXLyyScjmUyGOD09Pcjw8DAyYcIEZPXq1cgOx+FwzQ9Dqo45hsNkrLW8Vtdccw2jLK8iCAIkDENkaGiIOK7rIo7jICs3bUK+ungxcdLpNDJhwgQknU4jtbW1xOnv7ydOTU0Nks1mkaamJiSZTBL5o7/6K8aT3bmTjo4Oqo4phsNgrLW8Vtdccw2jLK8iCAIkDENkaGiIOK7rIo7jICs3bUK+ungxcdLpNDJhwgQknU4jtbW1xOnv7ydOTU0Nks1mkaamJiSZTCLvfOc7qWTPPZdK2Z076ejooOqYYjgMxlrLa3XNNddYxhEEARKGITI0NEQc13URx3GQlZs2IV9dvJg46XQamTBhApJOp5Ha2lri9Pf3E6empgbJZrNIU1MTkkwmkXe+852MZc89F8nu3ElHRwdVxxzDa2SstURuu+025Omnn+YVWA5wHIfx9Pf3EyebzRLHWktk9ebNyIYlS7DWEsd1XSSZTCKJRILxlMtlxPd9xHVdJJVKIa7rIvX19UgqlaLSRV/8ItKzaROR888/H2lvb6fqmGB4jYy1lshtt92GPP3008SwVHAch/H09/cTJ5vNEsdaS2T15s3IhiVLsNYSx3VdJJlMIolEgvGUy2XE933EdV0klUohrusi9fX1SCqVotJFX/wi0rNpE5Hzzz8faW9vp+qYYXgNjLWWyG233YY8/fTTxLBUcByH8fT39xMnm80Sx1pLZPXmzciGJUuw1hLHdV0kmUwiiUSC8ZTLZcT3fcR1XSSVSiGu6yL19fVIKpWi0kVf/CLSs2kTkfPPPx9pb2/nVS1cyEHd3VQdVYbXwFx66aVEfN/nVVhGWWsR13WRIAiQIAiQcrlMnGw2SxxrLZHVmzcjG5YswXVdDofjOEgqlSJOuVxGfN9HXNcljjEGCYKAOPX19Xz8619HvvepTxGZPn068p73vIc47e3tsHAhh+jupuqoMozDXHrppUR83+dVWEZZaxHXdZEgCJAgCJByuUycbDZLHGstkdWbNyMblizBdV0Oh+M4SCqVIk65XEZ830dc1yWOMQYJgoA49fX1fPzrX0e+96lPEZk+fTrynve8hzjtl1/OK+rupuqoMYzDXHrppUR83+cVWA6w1iKu6yJBECBBECDlcpk42WyWONZaVm/ejGxYsoSI67ocDsdxkFQqRZxyuYz4vo+4rkscYwwSBAFxrtqyBfnepz6FTJ8+HXnPe97DWO2XX864urupOmoMr8IsWbKEiOM4xDHGWGK4rosEQYC4rovU1tYijuMgtbW1xLHWcvGttyL/fOWVvFblchkplUpIKpVCXNdFgiAgTrlcZjxBEBDnqi1bkHtXrULq6+uRtrY2xBhD5PL776fSXUuWcPn993OI7m6qjgrDqzBLliwh4jgOcYwxlhiu6yJBECCu6yK1tbWI4zhIbW0tcay1XHzrrcg/X3klr1W5XEZKpRKSSqUQ13WRIAiIUy6XGU8QBMS5assW5N5Vq5D6+nqkra0NMcZw+f33U+muJUuodPn99/My3d1UveEMr8IsWbKEiOM4xLDGGOK4rosEQYC4rovU1tYijuMgtbW1xLHWcvGttyL/fOWVvFblchkplUpIKpVCXNdFgiAgTrlcZjxBEBDnqi1bkHtXrULq6+uRtrY25IoHHqDSXUuWMFZnZyfzr7uOl+nupuoNZ3gF5pJLLiFijEGMMRxgk8kkYoxBGhoaENd1kUQigZx88slIKpVCMpkMccIwZO5llyFPfPWrRFzX5XAMDAwghUIBSSQSiO/7iOd5yMjICHGstUgYhojv+0SuuOce5PZly6iUyWQQYwyRrz/3HJXWL1iAZLNZpLa2lsiV3/kOL9PdTdUbyvAKzCWXXELEGIMYYxhlGZVMJhFjDNLQ0IC4roskEgnk5JNPRlKpFJLJZIjTsWIF8sRXv4q4rsvhGBgYQAqFApJIJBDf9xHP85CRkRHiWGuRMAwR3/eJXHHPPcjty5ZRKZPJIMYYvv7cc1Rav2ABlbLZLFJbW4tc+Z3v8DLd3VS9oQwxzCWXXELEGIMYYxhlGZVMJhFjDNLQ0IC4roskEgnk5JNPRlKpFJLJZIjTsWIF8sRXv4q4rsvhGBgYQAqFApJIJBDf9xHP85CRkRHiWGuRMAwR3/eJXHHPPcjty5ZRKZPJIHf8/OdUWr9gAWNls1mktrYWOeecc5h/3XUcorubqjeEIYbp6uoi4rouUldXxyjLKNd1kcmTJyN1dXVINptFjDHEaWpqQlzXRdLpNFJ34YXI8KOPIo7jII7jECeXyyGDg4OI7/vEyeVySKlUQoaGhpBisYiUSiXEWosUi0Uiy++4A7l7xQoqeZ5H5N5f/YpKq2bNQpLJJJJIJJC2tjYkk8kQuexb3+IQ3d1UvW6GGKarq4uI67pIXV2d5QDXdZHJkycjdXV1SDabRYwxxGlqakJc10XS6TRSd+GFyPCjjyKO4yCO4xAnl8shg4ODiO/7xMnlckipVEKGhoaQYrGIlEolxFqLFItFIsvvuAO5e8UKKnmex72/+hWVLm9vx3EcJJlMIolEAmlra0MymQxy2be+xSG6u6l63QxjmK6uLiKu6yJ1dXWWA1zXRSZPnozU1dUh2WwWMcYQp6mpCXFdF0mn00jdhRciw48+ijiOgziOQ5xcLocMDg4ivu8TJ5fLIaVSCRkaGkKKxSJSKpUQay1SLBZZfscdyN0rVjDW3bt3U+ny9nYijuMgyWQSSSQSSFtbG5LJZJB3vetdvHPtWg7R3U3V62IYw1x11VVEHMdBWltbLQckk0mkvr4eyWQySDqdRiZMmIAYY5D6+nrEdV3EdV0ihbPOQuqeeYYgCIjjui5xyuUyMjIyglhrEc/ziDM8PIyUSiWkv78fGRwcRPL5PJU+8LnPIfeuWkXE930idz3/PJWWz5hBHN/3iXPSSSchra2tSH19PZErHniAQ3R3U3XEDGOYq666iojjOBxgW1tbkWQyidTX1yOZTAZJp9PIhAkTEGMMUl9fj7iui7iuS6Rw1llI3TPPEAQBcVzXJU65XEZGRkYQay3ieR5xhoeHkVKphPT39yODg4NIPp+n0gc+9znk3lWriPi+z13PP89Yy2fMII7v+8Q56aSTkNbWVqS+vh654oEHOER3N1VHzFDBXHXVVUQcx+EA29raiiSTSaS+vh7JZDJIOp1GJkyYgBhjkPr6esR1XcR1XSKFs85C6p55hiAIiOO6LnHK5TIyMjKCWGu54IIL2LZtG57nEWd4eBgplUpIf38/Mjg4iOTzeSp94HOfQ+5dtYrI1372M8ZacdppBEFAHN/3iXPSSSchra2tSH19PXLOOefwzrVrOUR3N1VHxFDBXHvttURaW1s5wDY3NyN1dXVINptFEokE4roukkgkENd1Edd1kUQigSQSCSIDs2Yhk55/HmMMcay1iLUWCcMQKRaLRDo7O/mDRVvgkS4iTz75JJEgCJBCoYB4nocMDg4i/f39SLFYRHzf57xrrkH+92c+w2e3bWOsVbNmEfE8DwmCAPF9n/E0NDQgLS0tSGNjI3LFAw9Qaev69UTmzp2LNDY2UvWqDBXMtddeS6S1tZUDbHNzM1JXV4dks1kkkUggrusiiUQCcV2XyModnbyar61ykL++I+S1ePC9v8Bai4RhiBSLRTo7O2HRFg7xSBdPPvkkQRAghUIB8TwPGRwcRPr7+5FisYj88dVXI//7M5/hs9u2MdaqWbMQz/OQIAgQ3/cZT0NDA9LS0oI0NjYiLS0tfOCWW6i0df165s6dizQ2NlL1qgwVzLXXXkuktbWVUZZRzc3NSF1dHZLNZpFEIoG4roskEgnkiv9+F5FN83+C67pIIpFAEokEA7NmIZOef56IMYY41loiH/3Pd/Bq/r9VDizawiEe6eLJJ58kCAKkUCggnuchg4ODSH9/P1IsFpE/vvpqZP6CBYx17TnnMDQ0hHiehwRBgPi+z3gaGhqQlpYWpLGxEWlpaSHygVtuoVL/ww8jjY2NVI3LcIB58MEHidTX1zPKMspxHGTixImI4zhITU0NkslkqLT4BzOJPPjeXyBhGCLGGCr1n346Mun554kYY4hjrUWstUgQBMicOXNg0RZe0SNdPP3004jv+0gul0OKxSIyNDSE5PN55PSPfQyZv2ABlW5+//uJ9Pb2Ip7nIUNDQ0gYhojneYi1FjHGIA0NDcQ57bTTkLX/+q9U6r7hBiJnn302UldXR1UswwHmwQcfJFJfX88oyyjHcZCJEycijuMgNTU1SCaTYfEPZiIPvGc3EWMMEoYhYoyhUv/ppyOTnn+eiDGGONZaxFqLBEGAhGFIR0cHLNrCIR7p4p13hNzzJzsR3/eRXC6HFItFZGhoCMnn88jpH/sYMn/BAuTm978f6e3tRTzPQ4aGhpAwDBHP8xBrLWKMQRoaGohz2mmnIbNnz+YDt9zCWMPf+x5SV1dHVSzDAebBBx8kUl9fzyjLKMdxkIkTJyKO4yA1NTVELn18LpEH3rObsYwxSBiGiDGGSv2nn45Mev55IsYY4lhrEWstEgQBEoYhHR0dsGgLh3iki5/+9Kcsf+xM5O5znkJyuRxSLBaRoaEhJJ/PI6d/7GPI/AULiHz5L/8S3/eR3t5exPM8ZGhoCAnDEPE8D7HWIsYYpKGhgTinnXYaMnv2bCIfuOUWxhr+3veI1NXVURXLcIDZtm0bkWQyySjLqEQigaRSKaSmpgbp2jqLyJYFP8d1XeIYY5AwDIkzMGsWUvfMM0ihUECSySTj8X0fSafTRDo6OviDRVvgkS4iu3btIpJOp5EP/Z8W5O5znkJyuRxSLBaRYrFIZPJFFyHzFywg8uCqVUSGh4eRgYEBpFQqIQMDA8jg4CAShiHieR5xwjBEXNdFMpkMMmPGDOTT//EfjPW7LVuYOnUqVbEMB5ht27YRSSaTlgMSiQSSSqWQmpoaurbOIrJlwc8R13WJY4xBwjAkzsCsWUjdM88ghUIBSSaTjMf3fSSdTiPGGM444wyeffZZEokEkk6nkWKxiCz+wUzkq2dsR4rFIlIsFolMvugiZP6CBTy4ahUyPDyMDAwMIKVSCRkYGEAGBweRMAwRz/OIE4Yh4roukslkkBkzZiDveMc7WHznnRyiu5uqV2QYZbZt20YkmUxaDkgkEkgqlUI+8cQ8tiz4OWO5rkscYwwShiFxBmbNQuqeeQYpFApIMplkPL7vI+l0GjHGIIlEAkmn00ixWESGh4eRy578I+Sm0/4DKRaLfPDWW9mxdSvym+98B8/zkOHhYWRgYAAplUrIwMAAMjg4iIRhiHieR5wwDBHXdZFMJoPMmDEDecc73kFk8Z13cojubqpiGUaZxx57jIjrupYD0uk0kkgk+Nj2M4hsWfBzJAxDDsfvfvc74tRdeCHyqwcfRMIwRBzHQYwxxMnlcsiMGTOQyZMnI6lUCkmn00i5XEZGRkaQIAiQy578IyJfmfNDzr/hBiI7tm5Fhh99lHw+j+TzeWR4eBgpFApILpdD9u3bhwwNDSGe5yFBECC+7yPGGMR1XSSTySAzZsxAPv0f/8FYL91/P1OmTKHqZQyjzGOPPUbEdV3LAel0GvnEE/O477xnibiui4RhyOH43e9+R5y6Cy9EfvXgg0gYhojjOIgxhji5XA6ZMWMGMnnyZCSVSiHpdBopl8vIyMgIEgQBMjIyQuT8G24gsmPrVmT40UeJ5PN5JJ/PI8PDw0ihUEByuRyyb98+ZGhoCPE8DwmCAPF9HzHGIK7rIplMBpkxYwZyxhln8D//6Z84RHc3VS9jGGUee+wxIq7rWg5Ip9NEPvHEPO4771nEdV0kDEMOx+9+9zvGqrvwQmT40Ufp7+9HwjBEHMdBjDHEyeVyyIwZM5DJkycjqVQKSafTSLlcRkZGRpAgCJCRkRHOv+EGZMfWrcjwo48SyefzSD6fR4aHh5FCoYDkcjlk3759yNDQEOJ5HhIEAeL7PmKMQVzXRTKZDDJjxgzkjDPOQP7nP/0TL9PdTdVBhlHmscceY5R1HAe58ulzidzxzh+TSqUQz/OQvXv3IrlcDikUCojv+8jevXsZa+EnP4n85xe+QLlcJo4xhjjWWuLU1dUhkyZNQmbNmsV4ampqEN/3kXOuvZZKO7ZuRf76jpCvzPkh5XIZyefzSD6fR4rFIpLL5ZD+/n4kl8shAwMDSLFYRIIg4HBMmTIFmTlzJtLQ0MDiO++k0u+2bGHq1KlU/YExjz32GKOs4zhErnz6XO5454+RVCqFeJ6H7N27F8nlckihUEB830f27t3LWAs/+UnkP7/wBcrlMnGMMcSx1hKnrq4OmTRpEjJr1izGU1NTg/i+T+Sca69lrB1btyKlrVv525+dT+RL7/hPIvl8Hsnn80ixWERyuRzS39+P5HI5ZGBgACkWi0gQBByOKVOmIDNnzkQaGhqILL7zTl6mu5uqPzDmscceY5R1HIcrnz6X28/6Ea7rIqlUCvE8D9m7dy+Sy+WQQqGA+L6P7N27l7EWfvKTyH9+4QuUy2XiGGOIY60lTl1dHTJp0iRk1qxZjKempgbxfZ9zrr2WsX54443ULFiAlLZuJVIul7nuF+8lsu6U7yP5fB4pFotILpdD+vv7kVwuhwwMDCDFYhEJgoDDMWXKFGTmzJlIQ0MDsvjOO3mZ7m6qMObxxx9n9U//2DJq47wnGOull15Cent7kT179iC5XA6x1iL9/f2ItZax/vq++5CNS5dSLpcZTzKZRIwxSDKZRFzXRVpbW5Ha2lrE930kmUwis2fPRt5/882M9YPPfIYJ73sf4m/fTpw1Pe/mc9P/jUg+n0dKpRLieR6Sy+WQ3t5eJAgCZHBwEAmCABkeHkbCMESCICDOtGnTkJkzZyJNTU18eONGDtHdzQnMmHfdadk47wnLK3jppZeQ3t5eZM+ePUgul0OstUh/fz9iraXSX993H7Jx6VIi5XKZ8SSTScQYgySTScR1XaS1tRWpra1FfN9HkskkMnv2bCLvv/lmxvrBZz5DZML73of427cTZ//+/Xxmz/uJfHLSw0ipVEI8z0NyuRzS29uLBEGADA4OIkEQIMPDw0gYhkgQBMSZNm0aMnPmTKSpqYnIhzdu5BDd3ZygjHn88ccZZXkFL730EtLb24vs2bMHyeVyiLUW6e/vR6y1VPrr++5DNi5dSqRcLjOeZDKJGGOQZDKJuK6LtLa2IrW1tYjv+0gymURmz57N+2++mbF+8JnPIBPe9z7E376dOPv370c+s+f9fHLSw0RKpRLieR6Sy+WQ3t5eJAgCZHBwEAmCABkeHkbCMESCICDOtGnTkJkzZyJNTU3Ihzdu5BDd3ZyAjHniiScYZcMwRJ5++mlk165dyO9//3skCAIkCAIOh7WWax95BLl50SIi1lriGGOQRCJBHNd1kSAIEMdxiJPJZJDa2lpk+vTpXPtv/0al2z/yETKZDHLmypVI/gc/II7v+0ipVGLdbz/AZ6f9b4aHh5EwDBHP85De3l6kVCohvu8jQ0NDSLFYRHK5HFIqlZAgCJB0Oo00NjYidXV1yFlnncWHN26k0o//8R85++yzOcEY88QTTzDKhmGIPP3008iuXbuQ3//+90gQBEgQBBwOay3XPvIIcvOiRUSstcQxxiCJRII4rusiQRAgjuMQJ5PJILW1tchtPT1Uuv0jHyGSyWSQM1euRPI/+AFxfN9HSqUSkXW//QCRa+ofIBKGIeJ5HtLb24uUSiXE931kaGgIKRaLSC6XQ0qlEhIEAZJOp5HGxkakrq4OufGHP2SsH//jP3L22WdzgjHmiSeeYJQNwxB5+umnkV27diG///3vkSAIkCAIOBx///DDyM2LFiHWWuIYY5BEIkEc13WRIAgQx3GIk8lkkNraWiK39fRQ6faPfATJZDJEzly5Ennpf/0v6uvrieP7PlIqlZDh4WFuGVrMNfUPEIYhsnTpUu655x4ivb29SKlUQnzfR4aGhpBisYjkcjmkVCohQRAg6XQaaWxsROrq6ojc+MMfMtaP//EfiZx99tmcYIx5/PHHGWWfeuopZOfOnUhfXx9irUWstRypv3/4YeTmRYsQay1xjDFITU0N4wmCADHGMB5jDN968UUqXd7eTkNDA2NdfOutyJO33UZLSwuSzWaRcrmMlEolxPM8IjcP/l/8fcODLFmyhD9YtAUe6SKyadMmZGBgAAnDECmXy8jg4CBSKBSQXC6H+L5PHGMMMmnSJCJf+clPqPSva9ciH/zgBznBGPP4448zyj711FPIzp07kb6+PsRai1hrOVJ///DDyM2LFiHWWuIYY5CamhrGEwQBYoxhPPe/9BKVLm9vJ9LQ0MBYF996K/LkbbfR0tKCZLNZpFwuI6VSCfE8D1m8eDEs2sIhHuli06ZNRAYGBpAwDJFyuYwMDg4ihUIByeVyiO/7xDHGIJMmTeIrP/kJlW44/3zmz5+PfPCDH+QEY8zjjz/OKPvUU08hO3fuRPr6+hBrLWKt5Uj9/cMPIzcvWoRYa4ljjEFqamoYTxAEiDGGV3P/Sy9R6fL2dqShoYGxLr71VuTJ226jpaUFyWazSLlcRkqlEuJ5HrJ48WJYtIVDPNLFpk2biAwMDCBhGCLlchkZHBxECoUCksvlEN/3iWOMQe7bs4dKN5x/PpH58+cjH/zgBznBGHPjjTcyyr744otIX18fEoYhcYwxSCKRQE455RTiTJs2DTnvmmuQrV/6EuJ5HnEcx0Fc1yXO8PAwUiqVkKGhIWRwcBAJw5AH9+6l0kcnT6aSMQaZPHkykaUbNyLfXruW1tZWZNq0aYgxBgmCAAnDkMjixYth0RZe0SNd3HfffYyMjCCFQgHxfR8plUrI/v37kUKhgBQKBcT3fSQMQyL//JvfUOmad70LmTdvHtLZ2YnMmzePE4AxN954I6Psiy++iPT19SFhGBLHGIMkEgnklFNOIc60adOInHfNNcjWL32JSp7nEcdxHMR1XeIMDw8jpVIJGRoaQgYHB5H7X3qJSh+dPJmxjDHI5MmTWbpxI/LttWuJtLa2ItOmTUOMMUgQBEgYhsjixYth0RYO8UgX9913H5GRkRGkUCggvu8jpVIJ2b9/P1IoFJBCoYD4vo+EYcg//+Y3VLr01FOZNGkSMm/ePKSzsxOZN28eJwBjbrzxRsuoF198Eenr60PCMCSOMQZJJBLIKaecQpxp06YROe+aa6i09UtfQjzPI47jOIjrusQZHh5GSqUSMjQ0hAwODhK5/6WXqPTRyZOJY4xBJk+ezNKNG5Fvr11LpLW1FZk2bRpijEGCIEDCMEQWL14Mi7ZwiEe6uO+++4iMjIwghUIB8X0fKZVKyP79+5FCoYAUCgXE933km7/+NZUuPfVUIpMmTULmzZuHdHZ2IvPmzeNEYFatWsUou3//fsTzPOIkk0lk6tSpSCqVQs444wykubkZSSQSROouvJDxzA9DXsn27duR3/72t0hfXx/i+z5xnn/+eW7r6aFS19Sp+L6PGGOIk0wmuWrLFuT2ZcuINDQ0IO3t7UhtbS2SzWYRx3GotHjxYv5g0RZ4pIvIfffdhxSLRcT3fcT3fb9OB9IAACAASURBVKRQKCClUgkpFArIyMgIMjQ0ROSeX/6SSstaWpB0Oo10dHQgHR0dyJQpU5C5c+fyNmXMqlWrGGX379+PeJ5HnGQyiUydOhVJpVLIGWecgTQ3NyOJRAKpu/BCDtf8MCSyfft25Le//S3S19eH+L5PnDX/8i+M1TV1Kr7vI8YY4iSTSa7asgW5fdkyIg0NDUh7eztSW1uLZLNZxHEc4ixevJhvfetbRG4ZWszVtZuJFItFxPd9xPd9pFAoIKVSCSkUCsjIyAgyNDTEPb/8JZWWtbRQKZ1OIx0dHUhHRwcyZcoUZO7cubxNGbNq1SpG2f379yOe5xEnmUwiU6dORVKpFHLGGWcgzc3NSCKRQN773vciOxyHI/XC/fcjfX19iO/7jLXmX/6FsbqmTiXi+z5ijCHO3z30EHL7smVIQ0MD0t7ejtTW1iLZbBZxHIc4YRgivu/z1fxSrq7dTLFYRHzfR3zfRwqFAlIqlZBCoYCMjIwgG376Uyota2lhrHQ6jXR0dCAdHR3IlClTkLlz5/IH936DP1i+grcJY7q6uhhlfd9nPNOnT0caGxuRjo4O5KKLLuL12uE4HKn5YUilb3/720Qu/trXqPS1iy9GhoaGkL179yK9vb3I6s2bkY1LlyLGGKShoQHJZrNIW1sbUl9fTxxrLeJ5HpF/Kn6MVc4mxFpLnFKphHiehxQKBSSXyxH5wmOPUWlZSwtxHMdBTjnlFGTKlClIR0cHkQt/+2tiLV/B24AxXV1djLK+7zOe6dOnI42NjUhHRwdy0UUXcTTscByO1K8efJCLv/Y1xvraxRcTGRoaQvbu3Yv09vYiqzdvRjYuXYoYY5CGhgYkm80ibW1tSH19PXGstYjnecg/FT/GKmcTEWstcUqlEuJ5HlIoFJBcLscXHnuMsZa1tBDHcRzklFNOQaZMmULk6ol1jGv5Ct4GjOnq6mKU9X2f8UyfPh1pbGxEOjo6kIsuuog3yw7H4UjNX7CAyNcuvpihoSFk7969SG9vL7J682Zk49KliDEGaWhoQLLZLNLW1obU19cTx1qLeJ6HlMtl7ghXssrZhLWWOKVSCfE8DykUCsinHn2Usf5m3jz6+/uJ4zgOcsoppxC5aXY749n5rvnM/e8dHLR8Bcc5Y7q6uhhlfd9HEokEMmXKFGT27NnIypUrORbtcByO1E/vuotyuYz09fUhf7FuHbJx6VLGM3HiRCSbzSJtbW1IOp0mTrlcRqy13Gkv4wpzN6/E930kCALE930iV3/3u4x1w/nnE+nr60NyuRxirSXyzYUXMJ4HMxNobW1F/uTnz3LQ8hUc54zp6upilPV9H0kkEsiUKVOQ2bNnIytXruR4scNxOFL//tnP8hfr1iG3L1uGtZbxTJw4Eclms0hbWxuSTqeJUy6XEWstkTvtZVxh7iaO7/tIEASI7/tc/d3vMtYN55+P9PX1Iblcjsi9f3Y+4/nkz3fT2dmJtLa2In/y82c5aPkKjnPGdHV1Mcr6vo8kEglkypQpyOzZs5GVK1dyPNvhOByJ25ctw1rLeCZOnIhks1mkra0NSafTxCmXy4i1FrnTXsYV5m7G8n0fCYIAWf3ww4z1f//5n1MoFJC+vj4it5/zTsaz4oePMXnyZKSzsxNpbW1FmpqaaP+vbRy0fAXHMWO6uroYZakwceJEpLOzE1m5ciVvOwsXIju2bmU8W7/0JXbu3IkEQYCEYYhkMhlkwoQJSDabRZqbm5FUKkWcZDJJpbvNFVxm76RSGIbE+auHHqLShg99iEg+nyfyyVMmM56Pd28jkUggNTU1SENDA9LZ2Ym0tbUx/9mdHLR8BccxY7q6uhhlqTBx4kSks7MTWblyJW9LCxdS6f/95CeJ9Pf3c9ollyBbv/QlIjt37kSCIEDCMEQymQwyYcIEJJvNIs3NzUgqlSJOMplkrLvNFVxm70TCMGSsv3roISpt+NCHiPxNwwTG89c7/ptcLockEgmkpqYGaWhoQDo7O5G2tjbmP7uTg5av4DhmTFdXF6MsFSZOnIh0dnYiK1eu5O3opz/9KfP+5m8Y64ErrkD27NmD7Ny5EwmCAAnDEMlkMsiECROQbDaLNDc3I6lUijjJZJKx7jZXcJm9EwnDkEp/9dBDvMzHlzKev3/mOXK5HJLL5ZBEIoHU1NQgDQ0NSGdnJ9LW1kZk/rM7OWj5Co5TxixdupRRtra2Funo6EDWrFnDCWPhQsb6yVe+QmTPnj3I7t27kZ6eHiSfzyOu6xInk8kgjY2NSHNzM5JKpRDHcRBjDHJP8kou9W5nrCu/8x1e5uNLeSVfHRwmn88jfX19yPDwMBIEAeI4DlJTU4O0tbUhZ599NpEFL+xGfvO+v6ClpYXjkDFLly5llK2trUU6OjqQNWvWcEJZuJCxfvKVr7Bnzx5k9+7dSE9PD5LP5xHXdYmTyWSQxsZGpLm5GUmlUojjOIgxhkr3JK/kUu925MrvfIeX+fhSxrqj6FEsFpF8Po/09fUhw8PDSBAEiOM4SE1NDdLW1oacffbZRBa8sBv5zfv+gpaWFo5DxixdupRIbW2t5YCOjg5kzZo1nHAWLmSs7//d3yG7d+9Genp6kHw+j7iuS5xMJoM0NjYizc3NSCqVQhzHQYwxVLoneSU/Tn2DP/jmZl7m40uRO0s+1lqkWCwi+Xwe6evrQ4aHh5EgCBDHcZCamhqkra0NOfvss5EFL+zmoOUrOM4YRplPfOITRKZPn245YP369ZzwFi5krO4bbiDi+z7S09ODPPfcc4jneYjv+0gikUBc10UaGxuR5uZmJJVKMdaa+iwv883NvMzHl3JH0cNxHMRai3iehxSLRSSXyyGDg4PIyMgIcRKJBHLqqaci5557LvJnv/wFBy1fwXHGMMp84hOfIDJ9+nTLAevXr6dq1MKFjNV9ww34vo/09PQgzz33HOJ5HuL7PpJIJBDXdZHGxkakubkZSaVSRNbUZ4n1zc1UuuOjH0Ucx0GstYjneUixWERyuRwyODiIjIyMECeRSCCnnnoqcu655yJ/9stfcNDyFRxnDKPMJz7xCSLTp0+3HLB+/XqqDli4kLEe/dSnkJ6eHuS5555DPM9DfN9HEokE4rou0tjYiDQ3NxO5pukkXtU3N1PptkWLSCaTiOM4iLUW8TwPKRaLSC6XQwYHB5GRkRHiJBIJ5NRTT0XOPfdcZObMmbT8x79z0PIVHEcMo8zq1auJtLe3Ww5Ys2YNVWMsXEilp778ZSK9vb1IT08PMjg4iOzZs4c4rusitbW1RDb80TzG8+X+/fzd979PpbOXdLO8vJFUKkWcIAiQIAiQYrGIFAoFZGBgABkZGUGstcRpa2tD3v3udyOTJk1i7n/v4KDlKziOGEaZ1atXE2lvb2eUZdSaNWuoirFwIZWe+vKX6e3tRXp6epDBwUFkz549xHFdl8jdf/rHjOeLv/s96XSayN99//uMtfHDH+be1Gou5y7iBEGABEGAFItFpFAoIAMDA8jIyAhirSVOW1sb8u53vxuZNGkSc/97BwctX8FxwnCAWb16NZH29nZGWUatWbOGqlewcCGVHv3Up5Cenh5kcHAQ2bNnD2P9Pxf8KeNZ98KvqampQdLpNH/3/e8z1sYPfxi5N7Way7mLsYIgQIIgQIrFIlIoFJCBgQFkZGQEsdYSp62tDXn3u9+NTJo0icjc/97BQctXcBwwHGDWrl1LZPbs2YyyjFq5ciVVr2LhQio99eUvE9m7dy/ys5/9DBkYGCDy2bZWxnPF4zvIZDJIQ0MD8tlt2xhrw4c+RE1NDbLJWcUV5m4iQRAgvu8jpVIJCYIA8X0fGR4eRvr6+pBSqUScbDaLzJkzB5k7dy6RP/vlL5DeD/4PmpqaOMYZDjBr164lMnv2bEZZRq1cuZKqcSxcyFj//g//gPzsZz8jcvXEOsZz2X89geM4SCaTQRoaGoh8dts2xtrwoQ8RqampQVzX5U57GVeYuwmCAPF9HymVSkgQBIjv+8jw8DDS19eHlEol4mSzWWTOnDnI3LlzifzZL3+B9H7wf9DU1MQxznCAWbt2LZHZs2czyjJq5cqVVL0GCxcy1r//wz8Q+YsXf8OrWbn9cYwxiOM4SCaTQRoaGvjstm2MteFDH0JqamoQ13WJ3GkvY2V4B+L7PlIqlZAgCBDf95Hh4WGkr68PKZVKxMlms8icOXOQuXPnIn/2y19w0PIVHOMMB5jrr7+eyJw5czjAXnLJJVS9RgsXcoiPLyXOrX2D7Nu3D+nr6yOO4zjISSedxE0/+hGV1l1wAQ0NDUhdXR1ijCFyR7iSFcHXkXK5jJRKJSQIAsRai4yMjCBDQ0NIoVBAfN9HEokE0tzcjLS0tCCrJ2Q4aPkKjmGGCub6668nMmfOHA6wl1xyCVWHYeFCDvHxpUT+7eSpPPvss8i+ffuQvr4+4jiOg9y5axeV1l1wAZGGhgakrq4OMcYgd4QrWRF8nUi5XEZKpRISBAFirUVGRkaQoaEhpFAoIL7vI4lEAmlubkZaWlqQ1RMyHLR8BccwQwVz/fXXE5kzZw4H2EsuuYSqw7RwIYf4+FIit/YNIvv27UP6+vqI4zgOkTt37aLSugsuQBoaGpC6ujrEGIPcEa5kRfB1IuVyGSmVSkgQBIi1FhkZGUGGhoaQQqGA+L6PJBIJpLm5GWlpaUHmzJnDe/f8koOWr+AYZahg1q1bR2T9+vUcYKk6MgsXcoiPL+W7JzUhu3fvRnbt2oWEYYg4jsOdu3ZRac3cudTX1yPZbBaZMGECkk6nEWstd3E5l3MXhUIBKZVKSBAEiLUW8TwPKRQKyMjICDIyMkKcZDKJzJw5E5k6dSrLgjKy44y5RObPn88xxlDBrFu3jsj69eupYKk6MgsXMtZ3r74a2b17N7Jr1y4kDEPk7t27qbRm7lwi9fX1SDabRSZMmICk02nEWstdXM7l3EWhUEBKpRISBAFirUU8z0MKhQIyMjKCjIyMECeZTCIzZ85Epk6dyrKgjOw4Yy6R+fPncwwxjGHWrVtHZP369VSwVL0+CxdS6btXX01k9+7dyK5du5AwDIncvXs3ldbMnYvU19cj2WwWmTBhApJOpxFrLZG7uJxlhQ1IqVRCgiBArLWI53lIoVBARkZGkJGREeIkk0lk5syZyNSpU4ksC8rIjjPmMn/+fI4hhjHMunXriKxfv54KlqrXpaenhzOvuopKP7zxRn79618jO3fuRPr6+rh7924qXd7ejjEGyWazSF1dHZLNZpGJEycS5y4uZ1lhA5EgCBDP85AwDJFyuYwUi0Ukn88j+/fvR6y1xGlpaUFmz55NZFlQRna9+3xOP/10jiGGMcy6deuIrF+/njEsVUesp6eHM3/8I/jmZiptWbkS2blzJ3LTj35Epcvb24kYY5BsNovU1dUh2WwWmThxInHu4nKWFTYQCYIA8TwPCcMQKZfLSLFYRPL5PLJ//37EWkuclpYWZPbs2USWBWVk17vP5/TTT+cYYYhh1q1bR2T9+vWMYak6Yj09PUTO/PGP4JubqbRl5UoiO3fuJHLTj35Epcvb2xFjDJLNZpG6ujokm80iEydOJE6hUOCfM3/DssIG/vZv/5ZbbrmFiOd5SBiGSLlcRorFIpLP55H9+/cj1lritLS0ILNnz0aWBWUOWr6CY4Qhhvn0pz9N5POf/zxjWKpev3u/wR98czNj3X3JJVz2rW9R6aozzySfzyOu6yKpVArJZDJIbW0tctJJJyGO4yBBELB27Vr+YNEWeKSLyE033YT4vo94noeUSiXE8zxk3759iLWWOE1NTUhnZyeyLChz0PIVHCMMMcynP/1pIp///OeJYal6fe79Bgd9czPjuerMM8nn84jrukgqlUIymQxSW1uLnHTSSYjjOMjVV18Ni7ZwiEe6uOmmm4j4vo94noeUSiXE8zxk3759iLWWOE1NTUhnZyeyLChz0PIVHAMMr8B8+tOfJvL5z3+eGJaq1+/eb3DQNzfzSq4680wi+XwecV0XSaVSSCaTQWpra5GTTjoJcRwHufrqq2HRFg7xSBc33XQTEd/3Ec/zkFKphHieh+zbtw+x1hKnqakJ6ezsRP7kT/6Emdu3ctDyFbzFDK/ArFmzhsiGDRt4BZaq1+febyD/1T6bP73+esb6h3PPRfr7+xFrLWKMQVKpFDJp0iSktrYWcRyHyHXXXQeLtvCKHunipptuIggCxPd9xPd9JJ/PI319fUgQBMRpampC5s6di5x33nnM3L6Vg5av4C1keBVmzZo1RDZs2MArsFS9Pvd+A/mv9tlE/vT665GHV6/mySefRPr7+xFrLWKMQVKpFDJp0iSktrYWcRwHue6662DRFg7xSBc33XQTkSAIEN/3Ed/3kXw+j/T19SFBEBCnqakJmTt3LnLeeecxc/tWDlq+greQ4VWYNWvWENmwYQOvwFL1urz44ouc8u//B/mv9tlEXnrpJeTJJ59E+vv7EWstYoxBUqkUMmnSJKS2thZxHAe57rrrYNEWDvFIFzfddBORIAgQ3/cR3/eRfD6P9PX1IUEQEKepqQmZO3cuct555xGZuX0rBy1fwVvE8CrMVVddRaShoQH53Oc+x//fHtzH1nUfdp7+nHPPuecennsvyXv5apKmItGgRGUDRRrbEhojEeK+ADPIIBPAk9TJoFVQuEHX9ViQ7XGAyQwQzDjdJnWzm05btAqUetIpYCQQmgEGY8wakv/wLIabXUJcObTerFdSJnn5ct94ec/Lb3kX/BZe4aT0W1yh1fPcwXDPB3PqJHLrl3+NjpmZGeT69evIG2+8gbRaLdJks1mkWCwi+XweyWazvNNzzz3H/+ef/RB+/Dgdv/d7v4ckSYLEcYyEYYjU63WkXq8jm5ubpOnq6kLuv/9+5OjRo3Q8eP4csvSPP0d/fz8fMYsdWE8++SQd3d3dyDe/+U3uYLjngzl1Ern1y79Gx8zMDHL9+nXkjTfeQFqtFmmy2SxSLBaRfD6PZLNZ0jz33HMc/JOEL1a/jTEGSZIEieMYCcMQqdfrSL1eRzY3N0nT1dWF3H///cjRo0fpePD8OWTpH3+O/v5+PmIWO7CefPJJOrq7u5FvfvObpDDc88GcOonc+uVfY2ZmBrl+/TryxhtvIK1WizTZbBYpFotIPp9HstksaSzL4q+KJ/hi9dsYY5AkSZA4jpEwDJF6vY7U63Vkc3OTNF1dXcj999+PHD16FHnw/Dn+xm98lY+QxbtgPfHEE3T09PQg3/rWt0hhuOeDOXUS2fzSl7lw4QJy/vx55Pz588jt27dJY9s2UiwWke7ubsTzPMSyLN7pr4on+GL127yTMQZJkgSJoghptVrI2toa0mg0kDAMkWw2i0xOTiIPPfQQ8pmrl/kbv/FVPkIW74L1xBNP0NHT04N861vf4ucw3PP+nTqJbH7py1y4cAE5f/48cv78eeT27duksW0bKRaLSHd3N+J5HmJZFu/0V8UTfLH6bd7JGIMkSYJEUYS0Wi1kbW0NaTQaSBiGSDabRSYnJ5GHHnoI+czVy/yN3/gqHxGLd8l64okn6Ojp6UG+9a1v8XMY7vlgTp1EZg89hJw/fx45f/48cvv2bdLYto0Ui0Wku7sb8TwPsSyLd/qr4gm+WP0272SMQZIkQaIoQlqtFrK2toY0Gg0kDEMkm80ik5OTyEMPPYRMTEww+t/+K3/jN77KR8DiXbKOHTtGRxAEyOjoKPLss89yB8M979+pk8jVz3wWuXbtGjI9PY1cuXIFCcMQsSwLKRQKSE9PD+L7PpLJZHinHwZP83jjRYwxSJIkSJIkiDEGabfbSKPRQFZXV5FGo0GaYrGIfPzjH0c+8YlP8KlLbyIrn/s8HaVSiV8Qi/fAOnbsGB1BECCjo6PIs88+yx0M97x/p04iVz/zWeTatWvI9PQ0cuXKFSQMQ8SyLKRQKCA9PT2I7/tIJpPhnX4YPM3jjRcxxiBJkiBJkiDGGKTdbiONRgNZXV1FGo0GaYrFIvLxj38c+cQnPsGnLr2JrHzu83SUSiV+QSzeA+vYsWN0BEGAjI6OIs8++ywpDPe8f6dOIlc/81k6rl27hkxPTyNXrlxBwjBELMtCCoUC0tPTg/i+j2QyGd7ph8HTPN54EWMMkiQJkiQJYoxB2u020mg0kNXVVaTRaJCmWCwiH//4x5FPfOITdHzq0pvIyuc+T6lU4hfA4j2yjh07Rkc2m0W6u7uRgYEB5Pjx42wz3PP+nTqJ3Hz0V+lYWlpCXnvtNeTatWtIvV4nTaFQQAqFAtLd3Y1YloUYY+j4YfA0jzdeROI4RpIkQZIkQcIwRJrNJlKv15HV1VXSFItFZP/+/XT8TpAjzcrnPk+pVOIXwOI9so4dO0ZHNptFuru7kYGBAeT48eO8g+Ge9+fUSeTmo79Kx9LSEvLaa68h165dQ+r1OmkKhQJSKBSQ7u5uxLIsxBhDxw+Dp3m88SISxzGSJAmSJAkShiHSbDaRer2OrK6ukqZYLNLxHx46xN9m5XOfp6NUKvEhs3gfrGPHjtGRzWaR7u5uZGBgADl+/DjvYLjn/Tt1Ern56K+ytLSEvPbaa8i1a9eQer1OmkKhgBQKBaS7uxuxLAsxxtDxw+BpHm+8iMRxjCRJgiRJgoRhiDSbTaReryOrq6vc6T8+epSd/JfB+3j44YeRUqnEh8zifbCOHTtGh23bSD6fR4aHh5Fnn32WOxjueX9OnURWPvd5FhcXkddffx25cOECsra2RppisYh0dXUhhUIBcRyHO73kP8XjjReRMAwRYwxijEHCMERarRZSrVaRtbU1Ol767GfYyX9objI+Po488sgjSLFY5ENk8T5Zx44do8O2bSSfzyPDw8PIs88+SwrDPe/dqZPIyuc+z+LiIvL6668jFy5cQNbW1khTLBaRrq4upFAoII7jcKeX/Kd4vPEiEoYhYoxBjDFIGIZIq9VCqtUqHf/boQPs5H/+P/9vpqamkPHxceSRRx5BisUiHxKLD8A6duwYHbZtI/l8HhkeHkaeffZZUhjueX9OnUTmDv8S8vrrryMXLlxA1tbWSFMsFpGuri6kUCggjuNwp5f8p3i88SIShiFijEGMMUgYhkir1aLj3z2wm5185X8/Q3d3NzI1NYWMj48jjzzyCFIsFvmQWHwA1okTJ+io1+tIFEVIPp9HxsbGkOPHj/MOhnveu1MnkbnDv4TMzMwgly9fRhYXF0njeR7i+z4SBAHiui7iOA4dP/Ce5MvNP0Ta7TaSJAmSJAkSxzEd/3rsPnbyL149yzsVi0Vk7969yMc+9jHkkUceQYrFIh8Ciw/IOnHiBB31eh2JogjJ5/PI2NgYcvz4ce5guOe9OXUSmTv8S8jMzAxy+fJlZHFxkTSe5yG+7yNBECCu6yKO49DxA+9Jvtz8Q6TdbiNJkiBJktDx9fsG2cnvTP9f1Go10hSLRWTv3r3Ixz72MeSRRx5BisUiH5DFh8A6ceIEHfV6HYmiCMnn88jY2Bhy/Phx7mC45z1ZW1uj5/SPkLnDv0THzMwMcvnyZWRxcZE0nuchvu8jQRAgrusijuPQ8QPvSb7c/EOk3W4jSZLQ8a+G+tnJ1y9cZn19HanVaqQpFovI3r17kY997GPII488ghSLRT4giw+B9cILL9BRqVSQRqNBmkwmgwwPDyO9vb1sM1/72te4592pVqsUf/wycuOzv0LH/Pw8Mj09jVy7dg1pt9ukCYIA6enpQWzbRjzPo+MH3pP8ZvhHSBiGdPzLngI7+Xe3btNsNpHV1VWk1WqRJggCZHJyErn//vuRQ4cOISMjI3wAFh8S64UXXqCjUqkgjUaDNJlMBhkeHkZ6e3uRr33ta4Z73pVqtUrxxy8jNz77K3TMz88j09PTyLVr15B2u02aIAiQnp4exLZtxPM8On7gPclvhn9Ex+8EOXby7+ffxhiDNJtNZHV1FWm1WqQJggCZnJxE7r//fuTQoUPIyMgI75PFh8h64YUX6KhUKkij0SBNJpNBhoeHkd7eXuRrX/ua4Z53pVqt0lH88cvIjc/+CvPz88j09DRy7do1pN1ukyYIAqSnpwexbRvxPI+OJwtd7OR/WawQRRFijEGazSayurqKtFot0gRBgExOTiL3338/cujQIWRkZIT3yeJDZL388st0XLp0CalUKkij0WAnpVIJCYKALYYtrusiJ06c4J6f49RJZPmf/FMWFhaQ6elpZG5uDmk0GqTJ5XJIV1cXUiwW6Ximv8ROXlytEscxYoxBwjBEGo0Gsrq6irTbbdL4vo+MjIwgR44cQSYmJpCRkRHeB4sPmfXyyy/TcenSJaRSqSCNRoOdlEolJAgCthnXdZETJ05wz89x6iSy/E/+KQsLC8j09DQyNzeHNBoN0uRyOaSrq4uOb+7ZxU7+qNGi3W4jcRwjxhgkDEOk0Wggq6urSLvdJo3v+8jIyAhy5MgRZGJiAhkZGeE9svgFsF5++WU6Ll26hFQqFaTRaLCTUqmEBEGAuK5r2HbixAnu+VucOonMHnoImZ6eRubm5pBGo0GaXC5Hx3f+pyl28uJqlR8GT/Ob4R/R0W63kTiOEWMMEoYh0mg0kNXVVaTdbpPG931kZGQEOXLkCDIxMYGMjIzwHlj8glhnzpyho16vI9evX0cuXryItFotxBhDmiAIkHw+zxbDFs/zkOeff5577nDqJDJ76CFkZmYGeeONN5DV1VXu9CeHH2Qnv7+0QjabRV7yn+IrG9/lTsYYJIoiJI5jpFarIdVqFWk2m6TxPA8ZHBxExsfHkUcffRQZGRnhXbL4BbLOnDlDR71eR65fv45cvHgRabVaiDGGNEEQIPl8nm3G8zzk+eef5547nDqJzB56CJmZmUHeeOMNZHV1lY4/OfwgO/nXl69SLBaRbDaLvOQ/xVc2vsudjDFIFEVIHMdIrVZDqtUq0mw2SeN5HjI4OIiMj48jblA40wAAF89JREFUjz76KDIyMsK7YPELZp05c4aOer2OXL9+Hbl48SLSarUQYwxpgiBA8vk824znecjzzz/PPf9/lUqF8k9OI7OHHqJjZmYGeeONN+h4YXKCnfzLmVkKhQJSLBaRbDaLvOQ/xVc2vsudjDFIFEVIHMdIrVZDqtUq0mw2SeN5HjI4OIiMj48jjz76KDIyMsK7YPELZp09e5Y71Wo15MaNG8j8/DyytraGhGGIGGMQ27aRrq4uw7ZyuYzs2bMHeeyxx/iHqlKpUP7JaeT8g4fpOH/+PB2PNWvs5In//j/wfR8pl8uI53mI53nIS/5TfGXju3Rks1nSbG5uIlEUIY1GA6lUKkiz2SSN4zjI2NgYMjU1hXzyk59Edu3axQ4sPgLW2bNnuVOtVkNu3LiBzM/PI2tra0gYhogxBrFtG+nq6mKLYUu5XEb27NmDPPbYY/xDValUKP/kNHL+wcPsn/4/2MkT//1/8E6+7yPlchnxPA/xPA95yX+Kr2x8l45sNkuazc1NJIoipNFoIJVKBWk2m6RxHAcZGxtDpqamkE9+8pPIrl27+FtYfESss2fPcqdarYbcuHEDmZ+fR9bW1pAwDBFjDGLbNtLV1cU2Uy6XkT179iCPPfYY/1BVKhU6yj85zU6ef/MSKysrpPF9HymXy4jneYjnechL/lN8ZeO7dGSzWdJsbm4iURQhjUYDqVQqSLPZJI3jOMjY2BgyNTWFfPKTn0R27drFz2HxEbLOnDlDh2VZiDEGqdfryPz8PHL79m3EGIMsLCyQJpPJIK7rGrY5joMMDQ0h+/btQ3zfR44ePcrfR5VKhY7yT06T5j95XZw7dw5ZWVlBjDFINptFBgcHEd/3Edd1kZf8p3jC+jM6jDGIMQZJkgSp1WpIrVZD1tfXkUajgRhjEMdxkPHxcWRqagqZmppCJicnSWHxEbPOnDlDh2VZiDEGqdfryPz8PHL79m3EGIMsLCyQJpPJIK7rssWwxXEcZGhoCNm3bx/i+z5y9OhR/j6qVCpI+Sen6fh//tHDzM7OIufOnUNWVlYQYwySzWaRwcFBxPd9xHVd5CX/KZ6w/owOYwxijEGSJEFqtRpSq9WQ9fV1pNFoIMYYxHEcZHx8HJmamkKmpqaQyclJ7mDxd8A6c+YMHZZlIcYYpF6vI/Pz88jt27cRYwyysLBAmkwmg7iuyzbjOA4yNDSE7Nu3D/F9Hzl69Ch/H1UqFWRhYQGZnZ1Fzp07h6ysrCDGGCSbzSKDg4OI7/uI67p0vOQ/xRPWnyHGGMQYgyRJgtRqNaRWqyHr6+tIo9FAjDGI4zjI+Pg4MjU1hUxNTSGTk5O8g8XfEeuVV16hw/M8dlKr1ZBGo4GsrKwglUoFWV5eRpIkQWzbRpIkMWzzfR9xXRfZv38/Yts2aSzLQu677z5kfHwcGR0d5W5VqVSQhYUFZHZ2FvnpT3+KVKtVJEkSxLZtpL+/HykUCki5XKbjT81v8dv2nyPGGCSKIiSKImRjYwOp1WrI+vo6sr6+Thrf95GxsTHk05/+NDI6Oors2rWLbRZ/h6xXXnmFDs/z2EmtVkMajQaysrKCVCoVZHl5GUmSBLFtG0mShC2GLb7vI67rIvv370ds2yaNZVnIfffdh4yPjyOjo6PcrSqVCrKwsIDMzs4iP/3pT5FqtYokSYLYto309/cjhUIBKZfLdPyp+S1+2/5zxBiDRFGERFGEbGxsILVaDVlfX0fW19dJ4/s+MjY2hnz6059GRkdHkV27drHF4u+Y9corr9DheR47qdVqSKPRQFZWVpBKpYIsLy8jSZIgtm0jSZKwzfi+j7iui+zfvx+xbZs0lmUh9913HzI+Po6Mjo5yt6pUKsjCwgIyOzuL/PSnP0Wq1SqSJAli2zbS39+PFAoFpFwu0/Gn5rf4bfvPEWMMEkUREkURsrGxgdRqNWR9fR1ZX18nje/7yNjYGPLpT38aGR0dRXbt2mVxF7BOnz5NRxAEiOu6iG3biG3biO/7SBRFyNWrV5G33noLieOYNNVqlTsYthhj2Em5XEYKhQLi+z7S39+P9Pb2IhMTE0hPTw9pstksH5VKpYIsLCwgs7OzyLlz55BKpYIkSYLYto0UCgVkeHgYyWazdPxF7nf5avzHiDEGieMYCcMQCcMQefvtt5FWq4XU63XSFItFZHh4GDl69CgyMTHBFostAwMD3A2s06dP0xEEAeK6LmLbNmLbNuL7PhJFEXL16lXkrbfeQuI4Jk21WiWF2cJOyuUyUigUEN/3kf7+fqS3txeZmJhAenp6SJPNZvmoVCoVZGFhAZmdnUXOnTuHVCoVJEkSxLZtpFAoIMPDw0g2m6XjL3K/y1fjP0aMMUgcx0gYhkgYhsjbb7+NtFotpF6vk6ZYLCLDw8PI0aNHkYmJCYttAwMD3A2s06dP0xEEAeK6LmLbNmLbNuL7PhJFEXL16lXkrbfeQuI4Jk21WiWN2cIOyuUyUigUEN/3kf7+fqS3txeZmJhAenp6SJPNZvmoVCoVZGFhAZmdnUXOnTuHVCoVJEkSxLZtpFAoIMPDw0g2m6XjL3K/y1fjP0aMMUgcx0gYhkgYhsjbb7+NtFotpF6vk6ZYLCLDw8PI0aNH2WZNTEwgAwMD3A2s73//+3SUSiWkq6sL8TwPyWQyiO/7SCaTQTY3N5Hl5WWk3W4jxhjkxo0bpLl9+zZbDFsajQY7yeVyiGVZSBAESG9vL2LbNnLw4EEkn88jpVIJ6enpQVzXRVzX5f2Kogi5fv06cvPmTeTChQvI3Nwcsr6+jhhjEMdxkEKhgPT19SG5XI6Ol/yn+Bet/xWJ4xgxxiBJkiDtdhtZWlpC1tbWEGMMYlkW0t/fjxw6dAh54IEH2GKxZWJiAikWi9wNrO9///t0lEolpKurC/E8D8lkMojv+0gmk0E2NzeR5eVlpN1uI8YY5MaNG6S5ffs220yj0WAnuVwOsSwLCYIA6e3tRWzbRg4ePIjk83mkVCohPT09iOu6iOu6vF9RFCHXr19Hbt68iVy4cAGZm5tD1tfXEWMM4jgOUigUkL6+PiSXy/GS/xRf2fgulmUhcRwjxhgkSRKk3W4jS0tLyNraGmKMQSzLQvr7+5FDhw4hDzzwgMW2iYkJpFgscjewvv/979NRKpWQrq4uxPM8JJPJIL7vI5lMBtnc3ESWl5eRdruNGGOQGzdukOb27dtIo9Fgi+FvkcvlEMuykCAIkN7eXsS2beTgwYNIPp9HSqUS0tPTg7iui7iuy/sVRRFy/fp15ObNm8iFCxeQubk5ZH19HTHGII7jIIVCAenr60NyuRwv+U/xlY3vYlkWEscxYoxBkiRB2u02srS0hKytrSHGGMSyLKS/vx85dOgQWyy2PPDAA8jExARSLBa5G1jf+MY36Ojv70eCIED6+/uRrq4uJJPJID09PUgul0Ns20aSJEGq1SqytraGVCoVZH19nRTmypUrSBzHiG3b7CRJEtIMDAwgu3fvRoIgQPbv34/09fUhrusiruvyXrTbbeTixYvI7Ows8rOf/QxZXFxEoihCLMtCCoUCUiwWkVwuh7iuy1/mj/Pr9T/AsiwkjmPSJEmCNJtNZH19HVlfX0eMMUgmk0HK5TJy8OBBi22HDh1Cdu3ahTiOw93A+sY3vkFHf38/EgQB0t/fj3R1dSGZTAbp6elBcrkcYts2kiQJUq1WkbW1NaRSqSDr6+ukuXLlClsMW+I4RmzbZidJkpBmYGAA2b17NxIEAbJ//36kr68PcV0XcV2X96LdbiMXL15EZmdnkZ/97GfI4uIiEkURYlkWUigUkGKxiORyOcR1Xf4yf5xfr/8BlmUhcRyTJkkSpNlsIuvr68j6+jpijEEymQxSLpfZYrHl4MGDyKFDh5Bdu3YhjuNwN7C+8Y1v0NHf348EQYD09/cjXV1dSCaTQXp6epBcLofYto0kSYJUq1VkbW0NqVQqyPr6OmmuXLnCNhPHMWLbNjtJkoQ0AwMDyO7du5EgCJD9+/cjfX19iOu6iOu6vBftdhu5ePEiMjs7i/zsZz9DFhcXkSiKEMuykEKhgBSLRSSXyyGu6/KX+eP8ev0PsCwLieOYNEmSIM1mE1lfX0fW19cRYwySyWSQcrlsse3gwYPIoUOHkF27diGO43A3sJ555hk6crkcksvlkO7ubqRUKiGO4yDlchnp7u5GisUikslkEMuySLOysoKsrKwgmUwGqVaryNraGlsMW+bm5kiTJAmSJAlSr9eRfD6P9Pf3I47jIIODg8iBAweQPXv2IJZlIblcjp20223k9ddfR+bm5pAbN24gKysrSLvdJk2pVELy+TySy+WQl3uf40u173AnYwxijEHiOEaazSZSrVaRVquFRFGEWJbFFostg4ODyMMPP4w8+OCDyNDQEHcb65lnnqEjl8shuVwO6e7uRkqlEuI4DlIul5Hu7m6kWCwimUwGsSyLNCsrK8jKygqSyWSQarWKrK2tsc3Mzc2RJkkSJEkSpF6vI/l8Hunv70ccx0EGBweRAwcOIHv27EEsy0JyuRw7abfbyOuvv47Mzc0hN27cQFZWVpB2u02aUqmE5PN5JJfLIS/3PseXat/hTsYYxBiDxHGMNJtNpFqtIq1WC4miCLG2sG1wcBB5+OGHkQcffBAZGhribmM988wzdORyOSSXyyHd3d1IqVRCHMdByuUy0t3djRSLRSSTySCWZZFmZWUFWVlZQTKZDFKtVpG1tTVkbm6OLYY7JEmCJEmC1Ot1JJ/PI/39/YjjOMjg4CBy4MABZM+ePYhlWUgul2Mn7XYbef3115G5uTnkxo0byMrKCtJut0lTKpWQfD6P5HI5Ol7ufY4v1b5DGmMMYoxB4jhGms0mUq1WkVarhURRxBaLLZZlIYODg8jDDz+MPPjgg8jQ0BB3G+vpp5+mw3EcxLZtJAgCpLu7G8nlckhvby9SKpWQnp4eJJ/PI9lsljRJkrCTVquFVKtVpNVqIfPz84ZtS0tLiDEGWVhYII3jOKQpl8tId3c3snfvXmTv3r2I53lIoVAgzebmJvLqq68ib775JnLr1i2kXq+TxnVdxPM8JAgCxPM8On5Ufp4v1b5DGmMMkiQJsrm5iYRhiFSrVaTVarHNiuOYNCMjI8iBAweQw4cPI0NDQ9xtrKeffpoOx3EQ27aRIAiQ7u5uJJfLIb29vUipVEJ6enqQfD6PZLNZ0iRJwk5arRZSrVaRVquFzM/Ps80sLS0hxhhkYWGBNI7jkKZcLiPd3d3I3r17kb179yKe5yGFQoE0m5ubyKuvvoq8+eabyK1bt5B6vU4a13URz/OQIAgQz/P4Ufl5vlB5gWw2SxpjDJIkCbK5uYmEYYhUq1Wk1WpZbIvjmDQjIyPIgQMHkMOHDyNDQ0Pcbaynn36aDsdxENu2kSAIkO7ubiSXyyG9vb1IqVRCenp6kHw+j2SzWdIkScJOWq0WUq1WkVarhczPzyNLS0tsMWwxxiALCwukcRyHNOVyGenu7kb27t2L7N27F/E8DykUCqTZ3NxEXn31VeTNN99Ebt26hdTrddK4rot4nocEQYB4nsePys/zhcoLZLNZ0hhjkCRJkM3NTSQMQ6RarbLFYkur1ULiOCbNyMgIcuDAAeTw4cPI0NAQdxvrueeeoyOOY6TVapHGGIO4rov09fUhQ0NDyPDwMGl830dGRkYQ27YRx3FI4zgO0mw2kVwuh2xsbCCtVguJosiw7cqVK8jVq1eRKIqQWq1Gmmw2i4yOjiJ79+5FPM9DJicnSdNqtZDp6WlkZmYGWVxcRNrtNmlc10U8z0OCIEA8z+NH5ef5QuUFPM8jjTEGiaIIabfbSBiGbLOq1SrSaDSQJEkQ27aRffv2Ibt370aOHDmCDA4OcrexnnvuOTriOEZarRZpjDGI67pIX18fMjQ0hAwPD5PG931kZGQEsW0bcRyHNI7jIM1mE8nlcsjGxgbSarWQKIrYZq5cuYJcvXoViaIIqdVqpMlms8jo6Ciyd+9exPM8ZHJykjStVguZnp5GZmZmkMXFRaTdbpPGdV3E8zwkCALkP9/3b/lC5QU6PM8jjTEGiaIIabfbSBiGFtuq1SrSaDSQJEkQ27aRffv2Ibt370aOHDmCDA4OcrexnnvuOTriOEZarRZpjDGI67pIX18fMjQ0hAwPD5PG931kZGQEsW0bcRyHNI7jIM1mE8nlcsjGxgbSarWQKIqQK1eusM1cvXoViaIIqdVqpMlms8jo6Ciyd+9exPM8ZHJykjStVguZnp5GZmZmkMXFRaTdbpPGdV3E8zwkCALkP9/3b/lC5QU6PM8jjTEGiaIIabfbFtvCMESq1SrSaDSQJEkQ27aRffv2Ibt370aOHDmCDA4Ocrexvve979ExPz+PVKtV0oRhiDiOg2SzWSSXyyEDAwNIJpMhjed5yNTUFNLX14fYto34vo9EUYQ4joPkcjkkjmOk3W4jrVYLuXz5MlsMWy5evIhsbm4ilmWRJggCJAgCZGxsDPF9HxkfH0eWl5eRs2fPIpcuXULa7TaSJAli2zbieR7S1dWFBEFAx4/7vs4/X/99xHEcJJPJIEmSIHEcs8Viy8bGBtJut5FqtYosLy+TplgsIvv27UPGxsaQI0eOIIODg9xtrO9973t0zM/PI9VqlTRhGCKO4yDZbBbJ5XLIwMAAkslkSON5HjI1NYX09fUhtm0jvu8jURQhjuMguVwOieMYabfbSKvVQi5fvoxcvHiRLYYtm5ubiGVZpAmCAAmCABkbG0N830fGx8eR5eVl5OzZs8ilS5eQdruNJEmC2LaNeJ6HdHV1IUEQ0PHjvq/zz9d/H3EcB8lkMkiSJGyx2BLHMbKxsYG0222kWq0iy8vLpCkWi8i+ffuQsbEx5MiRI8jg4CB3G+t73/seHfPz80i1WiVNGIaI4zhINptFcrkcMjAwgGQyGdJ4nodMTU0hfX19iG3biO/7SBRFiOM4SC6XQ+I4RtrtNtJqtZDLly8jFy9eRDY3N9li2GJZFmmCIECCIEDGxsYQ3/eR8fFxZHl5GTl79ixy6dIlpN1uI0mSILZtI57nIV1dXUgQBPy47+v8s+V/j+u6iOM4SCaTYYvFliRJkDiOkY2NDaTdbiPVahVZXl4mTbFYRPbt24eMjY0hR44cQQYHB7nbWKdPn6bj1q1byOLiIhJFEbKxsYEYY9hJGIakCYIACYIA6e/vR0ZHR5HBwUHEdV0kk8kg+XweyefzSBzHSLvdRqIoQhqNBrK6uoosLy8jSZKwzTSbTSSbzSKu6yKe5yGO4yCe5yE3b95E3nrrLWRpaQkJw5A0tm0jQRAg+XweyWaz/Kj8PF+ovIDneYjjOBbbbNtG4jhGoihCNjY2kOXlZWRtbQ2Joog0AwMDyMTEBHLw4EHk8OHD3M2s06dP03Hr1i1kcXERiaII2djYQIwx7CQMQ9IEQYAEQYD09/cjo6OjyODgIOK6LpLJZJB8Po/k83kkjmOk3W4jURQhjUYDWV1dRZaXl5EkSZBms4lks1m2GLa4rot4noc4joN4nofcvHkTeeutt5ClpSUkDEPS2LaNBEGA5PN55CfD/4YvVF6w2OJ5HuI4DmLbNhLHMRJFEbKxsYEsLy8ja2trSBRFpBkYGEAmJiaQgwcPIocPH+ZuZp0+fZqOW7duIYuLi0gURcjGxgZijGEnYRiSJggCJAgCpL+/HxkdHUUGBwcR13WRTCaD5PN5JJ/PI3EcI+12G4miCGk0Gsjq6iqyvLyMJEmCNJtNJJvNIq7rIp7nGbY5joN4nofcvHkTeeutt5ClpSUkDEPS2LaNBEHANiufzyM/Gf43fKHyAh2e5yGO4yC2bSNxHCNRFCEbGxvI8vIysra2hkRRRJqBgQFkYmICOXjwIHL48GHuZtZf//Vf09HV1YW0Wi3SXLp0CWm1WkilUkGiKELCMETiOCaN4zhIPp9HSqUSYlkWks/nkV27diGu6yK+7yO2bSOO4yDZbBYxxiBra2ukabfbSLvdJk2SJEgURUilUkHW19eRpaUlZHNzk21mc3PTYluSJKTxfR/J5XJIPp+n48d9X+eL1W8jtm0jtm0jtm0jSZIgYRgiy8vLyObmJrKysoIYY0gzMDCATE1NIZ/61KeQyclJ7mb/L2bQeF3vabPsAAAAAElFTkSuQmCC;" vertex="1" parent="1">
          <mxGeometry x="649" y="694" width="157" height="157" as="geometry" />
        </mxCell>
        <mxCell id="C5NoB3EoUQN5JIVtnTHw-5" value="" style="ellipse;whiteSpace=wrap;html=1;aspect=fixed;strokeColor=#000000;strokeWidth=1;fillColor=none;fontColor=#000000;" vertex="1" parent="1">
          <mxGeometry x="319" y="693" width="157" height="157" as="geometry" />
        </mxCell>
        <mxCell id="C5NoB3EoUQN5JIVtnTHw-6" value="" style="ellipse;whiteSpace=wrap;html=1;aspect=fixed;strokeColor=#000000;strokeWidth=1;fillColor=none;fontColor=#000000;" vertex="1" parent="1">
          <mxGeometry x="649" y="693" width="157" height="157" as="geometry" />
        </mxCell>
        <mxCell id="C5NoB3EoUQN5JIVtnTHw-7" value="" style="endArrow=none;html=1;exitX=0.5;exitY=0;exitDx=0;exitDy=0;strokeWidth=1;entryX=0.407;entryY=0.007;entryDx=0;entryDy=0;entryPerimeter=0;strokeColor=#000000;" edge="1" parent="1">
          <mxGeometry width="50" height="50" relative="1" as="geometry">
            <mxPoint x="228.5" y="730.9200000000001" as="sourcePoint" />
            <mxPoint x="383.8989999999999" y="694.0989999999999" as="targetPoint" />
          </mxGeometry>
        </mxCell>
        <mxCell id="C5NoB3EoUQN5JIVtnTHw-8" value="" style="endArrow=none;html=1;exitX=0.5;exitY=1;exitDx=0;exitDy=0;strokeWidth=1;entryX=0.326;entryY=0.97;entryDx=0;entryDy=0;entryPerimeter=0;strokeColor=#000000;" edge="1" parent="1">
          <mxGeometry width="50" height="50" relative="1" as="geometry">
            <mxPoint x="228.5" y="782.9200000000001" as="sourcePoint" />
            <mxPoint x="371.182" y="845.29" as="targetPoint" />
          </mxGeometry>
        </mxCell>
        <mxCell id="C5NoB3EoUQN5JIVtnTHw-9" value="&lt;font style=&quot;font-size: 17px&quot;&gt;2&lt;/font&gt;" style="text;html=1;resizable=0;autosize=1;align=center;verticalAlign=middle;points=[];fillColor=none;strokeColor=none;rounded=0;fontStyle=1;fontColor=#FF4040;fontSize=16;" vertex="1" parent="1">
          <mxGeometry x="426" y="742" width="20" height="24" as="geometry" />
        </mxCell>
        <mxCell id="C5NoB3EoUQN5JIVtnTHw-10" value="&lt;font style=&quot;font-size: 17px&quot;&gt;2&lt;/font&gt;" style="text;html=1;resizable=0;autosize=1;align=center;verticalAlign=middle;points=[];fillColor=none;strokeColor=none;rounded=0;fontStyle=1;fontColor=#FF4040;fontSize=16;" vertex="1" parent="1">
          <mxGeometry x="732" y="721" width="20" height="24" as="geometry" />
        </mxCell>
        <mxCell id="C5NoB3EoUQN5JIVtnTHw-11" value="&lt;font style=&quot;font-size: 17px&quot;&gt;1&lt;/font&gt;" style="text;html=1;resizable=0;autosize=1;align=center;verticalAlign=middle;points=[];fillColor=none;strokeColor=none;rounded=0;fontStyle=1;fontColor=#c90000;fontSize=16;" vertex="1" parent="1">
          <mxGeometry x="425" y="708" width="20" height="24" as="geometry" />
        </mxCell>
        <mxCell id="C5NoB3EoUQN5JIVtnTHw-12" value="&lt;font style=&quot;font-size: 17px&quot;&gt;1&lt;/font&gt;" style="text;html=1;resizable=0;autosize=1;align=center;verticalAlign=middle;points=[];fillColor=none;strokeColor=none;rounded=0;fontStyle=1;fontColor=#C90000;fontSize=16;" vertex="1" parent="1">
          <mxGeometry x="682" y="707" width="20" height="24" as="geometry" />
        </mxCell>
        <mxCell id="C5NoB3EoUQN5JIVtnTHw-13" value="&lt;font style=&quot;font-size: 17px&quot;&gt;3&lt;/font&gt;" style="text;html=1;resizable=0;autosize=1;align=center;verticalAlign=middle;points=[];fillColor=none;strokeColor=none;rounded=0;fontStyle=1;fontColor=#FF9F9C;fontSize=16;" vertex="1" parent="1">
          <mxGeometry x="766" y="766" width="20" height="24" as="geometry" />
        </mxCell>
        <mxCell id="C5NoB3EoUQN5JIVtnTHw-14" value="&lt;font style=&quot;font-size: 17px&quot;&gt;3&lt;/font&gt;" style="text;html=1;resizable=0;autosize=1;align=center;verticalAlign=middle;points=[];fillColor=none;strokeColor=none;rounded=0;fontStyle=1;fontColor=#FF9F9C;fontSize=16;" vertex="1" parent="1">
          <mxGeometry x="437.6399999999999" y="771" width="20" height="24" as="geometry" />
        </mxCell>
        <mxCell id="C5NoB3EoUQN5JIVtnTHw-15" value="&lt;font style=&quot;font-size: 22px&quot; color=&quot;#000000&quot;&gt;Synthetic image&lt;/font&gt;" style="text;html=1;strokeColor=none;fillColor=none;align=center;verticalAlign=middle;whiteSpace=wrap;rounded=0;fontSize=16;fontColor=#FF4040;" vertex="1" parent="1">
          <mxGeometry x="902" y="660" width="180" height="19" as="geometry" />
        </mxCell>
        <mxCell id="C5NoB3EoUQN5JIVtnTHw-16" value="&lt;font&gt;&lt;b&gt;&lt;font style=&quot;font-size: 20px&quot;&gt;Affine transform&lt;/font&gt;&lt;/b&gt;&lt;br&gt;&lt;/font&gt;" style="text;html=1;strokeColor=none;fillColor=none;align=center;verticalAlign=middle;whiteSpace=wrap;rounded=0;" vertex="1" parent="1">
          <mxGeometry x="490" y="676" width="139" height="31" as="geometry" />
        </mxCell>
        <mxCell id="C5NoB3EoUQN5JIVtnTHw-17" value="" style="shape=image;verticalLabelPosition=bottom;labelBackgroundColor=#ffffff;verticalAlign=top;aspect=fixed;imageAspect=0;image=data:image/png,iVBORw0KGgoAAAANSUhEUgAAAHAAAADgCAYAAADbhuIIAAAgAElEQVR4AezB63MUd2Lo/W+3m3bTbjfDMAzDMBqNLkijOwhkgXQwxqzX6914naxraysv8oel8iKvUqlUXjgux3FSuwTWgLlI6C6hG7oMYhiNW02radrt5kf/Ts1TlafynOdckpNdbuLzUaSU/HuLi4syCAKEEJw5c0bhjZeaIqWkYWpqSkZRRLVaZXt7G1VVaWpqolAo0N/fr/DGS0lZX1+XYRgShiHz8/NsbGywtbWFYRiUy2W6urpIp9Ooqkp/f7/CGy8VZXt7WzqOw29/+1u+/vprTNPk3XffxTRN0uk0uVyOtrY2crkcp0+fVnjjpaI8ePBA1mo1vvnmG7744gvS6TSHDx9G0zRUVSWdTtPd3U1LSwu2bXP69GmFN14ayvr6uqxUKnz99dd88cUXtLa20tzcjBCCx48foygK5XKZcrnMoUOHyOVy9Pf3K7zxUlBWVlbk6uoqX375Jd988w39/f2cOnWKJElYXV3l0aNHHDlyhFKpRGtrK01NTeTzeTo6OhTeeOGUpaUlubi4yBdffMHly5cZHBxkdHQUwzBYWFhgZWWFJEmwbZvh4WHa2tooFouk02na29sV3nihlKWlJbm6usoXX3zBb3/7W8rlMmfPniWTyVCtVllaWmJra4s4jhkeHqajo4O2tjby+TynT59WeOOFUpaWluTGxgZffvkl33zzDa2trfT19VEsFhFCsLW1xcrKCo7jkE6n6ezspFwu09TURCaT4cyZMwpvvDDKysqKrFQqfPXVV1y9epVMJkNLSwutra3Yto3v+ywuLnL//n1c16Wzs5Pu7m5KpRKHDx+mUCjQ3d2t8MYLody9e1eurq6ytLTEF198QRRFpNNphoaG6O7uJo5jNjY2qNVqTE5OomkauVyOtrY2Tp8+TWdnJ6lUilKppPDGc6fMz8/LSqXCysoKX331FZ7nYZomp06dYnBwEF3XqdVq1Ot1Ll++jBACwzDIZrP09fXR19dHsVgklUrR2tqq8MZzpSwtLcmtrS02Nzf53e9+x+bmJkII+vr6GBkZ4ciRI0RRxOPHj/nnf/5ndnZ28DyPhra2Nvr7++nr66NQKJAkCYODgwpvPDeKlJLbt2/LarXK5cuXmZ2dpV6v09raysWLF2lra8MwDIQQTE5OUqlUWFlZoVarkUql6Ozs5PTp07S0tJDNZrEsi46ODoU3ngtFSsnU1JR0XZcbN25w69YtVldXSaVSjI6O0tvby9GjRzEMg4cPH7KxscHMzAxLS0vEcUw2m6Wzs5Niscjo6Ci2bZNKpSgWiwpv/NEpUkoWFhak7/vcvXuXb7/9lunpaZIkoaenh46ODrq7uzl8+DBhGLK9vc3CwgLz8/PUajUastksBw4c4Je//CWHDh0im82SyWQoFosKb/xRKVJKGiYmJmStVuP69evcunWLer1OPp+nubmZEydO0NLSghCCH374gVqtxurqKuvr69TrdVRVRVVVzp49Sz6fp6mpiVKphKqqDA4OKrzxR6NIKWmYmpqSQRBw48YNbt26xdraGqZpks/nGRoaoquriyRJaPjxxx/Z2tpieXmZ9fV1wjAkiiKy2SxNTU10d3fT2dmJYRikUin6+/sV3vijUKSUNCwuLkrP86jX6ywtLXH9+nU2NjZQVZWuri46Ojr46KOPaKjX6+zu7rKwsMC9e/eoVCq4rothGNi2TWdnJ+3t7bS3t9Pc3IxpmvT39yu88QenSCn5NxMTE9JxHFZWVrh9+zb37t0jDEMKhQJHjhzhs88+wzAMoigiSRI2NzfZ2Njg/v371Ot1HMdB0zRyuRyHDh2iUCjQ3t7OkSNHyGQyWJZFf3+/wht/MIqUkn/vu+++kw8ePGBqaoqlpSWq1SoNuq7z2Wefkclk2L9/P+l0mp2dHer1OhsbGziOw+bmJkEQkCQJQggymQzNzc20t7eTy+VoaWnBMAzOnDmj8MYfhCKl5N+bmZmRruuysrLC4uIiS0tLVCoVwjDk7NmzFAoFCoUCLS0tNIRhyIMHD/A8j0qlws7ODo7jUK/XMQyDdDpNc3MzmUyG7u5uDhw4QC6XI5fL0d7ervDGf4kipeR/NDExIWu1Gvfu3WNmZob5+Xkcx6FQKHDkyBHa29vp6OjgwIED6LrOo0ePiOOYjY0NHMdhe3ubarWKEAIhBLZto2kazc3N5HI5WltbOX78ONlsFsuyyOfzCm/8X1GklPyPFhYWZBiG1Go17t69y/j4OPfv3ydJEtLpNM3NzZRKJfL5PAcPHkRVVTRNY3Z2liAIcByH7e1tgiDAcRwaoijCMAwymQwtLS2Uy2Wam5vJ5/NYlkW5XFZ44z9NkVLyP7O4uCjDMGRjY4M7d+6wtLREpVJB0zRyuRyHDh2itbWVYrHIwYMHsW2b2dlZhBB4nofrugRBwPb2NlEUEQQBQRCg6zqWZZHNZmlqaqK1tZWjR4+STqdJpVKcOHFC4Y3/MEVKyf/K4uKirNVqTE5Osry8zOTkJEmSoOs6lmXR0tJCe3s7hUKBw4cP8+DBA5IkwfM8giAgDEPq9TpxHPP48WN83ycMQ3zfpyGdTtPW1kZrayu5XI5Tp06h6zq6rtPR0aHwxv+RIqXkf2Vubk76vk+9Xmd3d5d/+qd/Ynt7G8dxiKKIXC5HS0sL3d3dZLNZbNtGURSePXtGkiS4rksQBDiOQxRF3L17lzAM8TyPKIpIp9Ok02mOHDmCaZqUy2Xy+TyHDx+mUCjQ0dGh8Mb/liKl5H9nampKep6H7/vMzs6ysbHBysoKW1tbaJpGOp2mpaWFVCpFqVTCMAx0XccwDIQQxHGM53nEccza2ho7Ozs4joPv+2iahqZp2LaNqqr09PSQy+UoFAo0NTVhmia2bdPd3a3wxv+UIqXk/2Rubk6GYYjjOKysrDA1NcX8/Dy+79OQSqUwDIPOzk5s2yadTpPJZNA0jYYoiojjmFqthuM4bG9vU6vViOOYKIpQVZU4jikWi2QyGY4ePUprayu5XI5jx46RyWQol8sKb/z/KFJK/iMWFhZkFEVUKhWWlpZYWFjg+++/x/M8hBDEcUyxWOTdd98lm82Sy+WwbRtd1xFCkCQJQRDgeR71ep3vv/+eMAzxPA8hBGEYEoYhtm2Tz+dpamqiWCxSLpc5fvw4uVyOfD6v8Mb/hyKl5D9qbm5Ouq7L9vY2lUqFarXK5uYm9Xodx3EwDAPLssjlchw+fJhsNksqlcIwDDRNoyEIAjzPw3VdgiDg0aNHeJ6H7/vUajU0TcO2bVKpFM3NzZTLZXp6eigUCliWRblcVnjj/6VIKfnPmJiYkL7v47ouDx8+ZHFxkXv37lGr1QjDEE3TsCyLVCrF0aNHyeVy5HI5LMtC0zTiOCYMQ6IoIggCXNdle3sbz/Oo1+skSUKSJKiqSiaT4dixY3R3d5PP52lrayOdTtPb26vwxv9DkVLynzU1NSXDMMR1XdbX11ldXeXhw4dsbW0RRRFJkpAkCalUikwmQ3NzM6lUClVV0TSNBl3XEUIQhiH1eh3f99nd3SUMQ4IgwPd9NE3Dtm2am5vJZrOcOHGCY8eOUSgU6O7uVngDRUrJ/425uTkZRRG1Wo2HDx9Sr9dZWFhgZ2cH13Wp1+uoqkoqlaJQKHDgwAE0TcM0TUzTJJPJYBgGqqriOA5hGOK6Lru7u3ieR61WIwgCNE0jn8+TSqU4efIkra2tdHZ2ks/nKRaLCnucIqXkv+K7776Truvy5MkTKpUK1WqVzc1Ntra2iOOYJEnQNA1VVTEMA03TSKfTNDc3Y1kWSZIghMAwDJIkQQiB4zisr6/jeR5CCJIkIQgCent76erq4uzZs5TLZWzbJp/PK+xhipSS/6orV67IKIp49OgRtVqNSqXC5uYmnufh+z5RFBHHMZZl0WDbNk1NTViWhaZpqKqKbdtYlkWD7/tsbGzw/fffE4YhQRDg+z7pdJrW1laGh4cZGBigUCiQTqfJZrMKe5QipeQPYWJiQsZxjOM4PHz4kI2NDba2tnjw4AGu6+L7PrZtE8cxuq6TzWaxbZu3334by7LIZDJks1kMwyCKImq1GrVajd3dXarVKvV6HVVVyWQyHD9+nMHBQfr6+mhvb6dYLCrsUYqUkj+kiYkJ6bou33//PVtbW6yurrK5uYnjOJimie/7JEmCbduYpolpmhw8eJBcLodt26TTaTRNIwgCHMfBcRzW19epVqs0qKpKOp2ms7OTM2fO0NfXRzqdplQqKexBipSSP7Tx8XEZhiGu63L//n3W1tao1Wr8+OOP1Ot1fN+nQdM0dF0nk8lw9OhRTNMkn89j2zaqquL7PkEQsLq6yv3794njmDAMaSgWiwwPDzM8PEyxWKRcLivsQYqUkj+GhYUFGYYhruvy8OFDHMdhbW2N+/fvU6vV8H2fOI5JkoRUKkU2m+Xw4cMUi0XS6TSmaSKEQAjB1tYW1WqV7e1tPM/D8zzS6TTDw8O8//779PT0kMvlyGazCnuMIqXkj2lqako6jkMQBNy/f5+1tTU2Nzep1Wq4rksYhui6TiqVolQqcezYMdLpNLZt06DrOo7j4Lou9+/fp16vU61Waejt7WV0dJShoSFaW1splUoKe4wipeSP7ebNmzIIAqIoYmVlhdXVVTY3N6nX67iui6qq2LZNqVTi6NGjpNNpbNtGVVUsy8LzPFzXxXVd7t+/z8bGBkEQkM/nGRoa4syZMxw/fpzW1lYymYzCHqJIKXkelpeXpRCCtbU11tfXqdfrbGxssLS0hO/7qKpKNpslnU7T1NREPp/HMAxM00QIgaZpTE1NMT8/T61Wo8EwDFKpFOfOnePixYucPn0ay7IU9hBFSsnzsrq6KqvVKg8ePMB1XSqVCtPT0ziOQxzHJElCOp2mqamJQqGAZVmkUilUVUXXdarVKvPz81QqFcIwRNM0dF3n7NmzjI6O8sEHHxDHMfl8XmGPUKSUPG/ffvutDIKAzc1Npqam2NzcxHEcqtUqtm1TLBY5duwY2WyWbDaLrusYhkGSJCwuLrK+vk69XicMQ5Ikoaenh/fee4/PPvsMTdMoFosKe4QipeRFmJiYkLVajdnZWWZmZlhfX2djYwNd18lmsxQKBY4cOUI+n8c0TXRdx7ZtNjY22NjYYHNzk3q9ThiGlMtlurq6+PM//3Ns26ajo0Nhj1CklLwIy8vLsl6vs7KywsTEBLOzs2xtbdFg2zaZTIZjx45RKBQwDANd17FtG8dxqFarrKysUKlUCMOQ1tZW2tra+M1vfkM+n6e3t1dhj1CklLwot2/flltbW0xPTzM5OcnW1hZRFKHrOqlUimPHjlEoFLBtG03TMAyDMAxxHIf5+Xk2NjYIw5BisUhzczO//OUvOX78OIODgwp7hCKl5EW5ffu29DyP+fl5xsfHuXv3LmEY0pBKpWhubqa1tRXLstA0DV3XafA8j+npaVZXVwnDkEKhwNGjR/nJT35CX18fZ86cUdgjFCklL8rt27dlFEXcvXuX8fFxxsbGCIKAJElIpVK0t7fT1tZGKpVC13U0TUPTNHzfZ2JigpWVFXzfJ5/Pk8vlOH/+PKdOnaK1tZVsNquwByhSSl6k7777Ttbrda5evcrW1hazs7OEYYhhGKTTaU6ePMng4CBCCDRNQwiB53ksLy+zsrKC4zioqoppmnzyySecO3eO/v5+stmswh6gSCl5kaampmS9Xuf69evcvXuXmZkZoijCMAyy2SxDQ0MMDg6SJAlhGNLgeR5ra2ssLS1Rr9dpMAyDjz76iPPnz3PixAny+bzCHqBIKXmRVldXpeM43Lhxg+vXrzM3N0cYhhiGQS6XY3h4mPfee48kSXAcB1VVCYKAjY0NVlZWqFarCCHQdZ1z585x4cIF3nvvPYrFosIeoEgpeZE2Njak67rcunWLy5cvMzMzQxiG6LpOOp1meHiYM2fOkCQJruuiaRpRFFGpVFhaWqJarRLHMaqqMjQ0xM9+9jPOnj1LqVRS2AMUKSUv2sTEhBwbG+PKlStMTk4ShiGqqmJZFkNDQ7z33ns0xHGMpmlEUUSlUmFpaYlqtUocx6iqSl9fH3/yJ3/C+fPnKRaLCnuAIqXkRZuYmJBjY2N8++23TE5OEgQBDaZpMjQ0xJkzZ/g3qqoSBAEbGxusrKxQrVYRQqDrOuVymc8++4wLFy6Qz+cV9gBFSsmLNj4+LsfGxrh27Rp37twhDEMabNtmeHiYkZERVFUljmMaPM9jbW2NpaUl6vU6DYZhcPz4cX71q19x8eJFMpmMwh6gSCl50SYmJuTY2Bj/+q//yp07d4jjmIZMJsPo6Cj/7b/9N9566y12d3cRQuB5HsvLy6ysrOA4DqqqYpombW1tfP755/zkJz8hlUop7AGKlJIX7dq1a3J9fZ2//uu/JggCPM8jiiKKxSLnzp2jv7+fQ4cOcf/+feI4xnEcVldXuXfvHq7rIoRAVVXOnj3Lz3/+cy5cuEAmk1HYAxQpJS/S4uKirFar3Lt3j7/6q78iDEPCMEQIQalUYnR0lN7eXg4cOMDOzg5RFFGr1VhdXWV9fR3XdRFCoKoqo6OjfPLJJ7z//vtks1mFPUCRUvIizc3NyUqlwtLSEn/5l39JHMcIIWjo6OhgdHSUjo4O3nnnHR49ekQURdRqNVZXV1lfX8d1XRo0TePcuXN89NFHjIyMkMvlFPYARUrJizQzMyOXl5eZnp7mb/7mbxBC0GAYBv39/Zw9e5Zischbb73F48ePCcOQarXK8vIy9+7dw/d9NE3DMAzOnz/PRx99xOnTp8lmswp7gCKl5EWamJiQs7Oz3L59m6+//pokSdB1nXQ6zcmTJzlz5gyHDh1CCMHu7i5BELC1tcXKygpra2uEYYiu61iWxUcffcSFCxc4ceIE6XRaYQ9QpJS8KMvLy9LzPO7cucO1a9e4fv06qqpiGAb5fJ6hoSFOnTqFZVk8fvwY3/fxfZ9KpcLS0hJbW1tEUYRpmti2zaeffsr58+fp7u7GsiyFPUCRUvKiLC8vS9d1uX79Or///e+ZmppC0zQsy6JUKjE8PMzAwACqqrKzs0MURfi+z9raGktLS9TrdeI4xjAM0uk0v/nNbxgdHaVcLqNpmsIeoEgpeVGWl5el4zhcvXqVy5cvMzc3h6Zp2LZNa2srZ8+epaenh4bt7W3iOMbzPCqVCktLSziOQxzHmKZJOp3mL/7iLzh79iwdHR0Ke4QipeRFWVxclAsLC3z99ddcvnyZOI7RNI1CoUBXVxe9vb3k83mSJCEMQ1RVpVKpsLq6yt27d6lWqzQUCgWam5v51a9+xcDAAOVyWWGPUKSUvCgLCwtyenqaf/zHf+TGjRvEcYymaZRKJbq6uuju7iaXy9EQRRFJklCpVFheXmZlZYVarUaSJJRKJVpaWvj888/p7e2ltbVVYY9QpJS8CGtra9J1XW7dusW//Mu/MDc3RxzH6LpOe3s7PT09lMtlDh8+TMOPP/5IFEWsra2xurrK5uYm9XodIQQdHR10dnby+eef097eTqFQUNgjFCklL8Lq6qqsVCr8/ve/5/Lly1QqFYQQWJZFuVymp6eH9vZ2Dh48SJIkPH36FMdxWF5eZn19nVqthuu6CCHo7u5mYGCAzz//nHw+Tz6fV9gjFCklL8Li4qJcXl7mm2++4caNG3ieR5IkpNNpenp66O3tpVQq8c477xDHMU+fPqVSqTA3N8fm5iae5xEEAUII+vv7OXv2LJ9//jm2bZPP5xX2CEVKyYuwsLAgp6en+Yd/+Afu3LlDHMdomkY+n2dgYIDu7m6y2Sz79+/nhx9+II5jVldXmZycZGNjgziOiaIIIQSDg4NcuHCBX//616iqSi6XU9gjFCklL8LMzIy8c+cOf//3f8/i4iJCCAzDoFgscvLkScrlMocOHeJP//RPlb/927+VcRyzurrKnTt3qFQqNMRxTBzHDA8P87Of/Yxf//rXxHFMOp1W2CMUKSXP29zcnBRCMDY2xt/93d+xvLyMqqpYlkWpVKKvr49yuczBgwdp2N3dJYoitra2GBsbo1KpoKoqQgiEEAwPD/Pzn/+c3/zmN6iqqrCHKFJKnrfl5WVZrVa5fv06X331FbVaDcMwaBgeHubEiRNYloWqqti2TRRF1Go1lpeXuXv3Lq7r0qDrOpZlce7cOS5evMiZM2ewLEthD1GklDxvy8vLcmNjg8uXL/PNN9/geR6maZIkCefOneP06dNYloUQAsMwCMMQx3FYXl5mZWUFx3FIkgTTNEmlUpw7d44LFy4wODiIZVkKe4gipeR5W1xclHNzc1y6dInf//73BEGAZVk0fPzxx4yMjPD222+zu7tLQxRFeJ7HwsIC6+vreJ5HkiSYpkk2m+XcuXOcP3+e7u5uLMtS2EMUKSXPU6VSkb7vc+vWLX73u98xNjZGHMdYloWqqnz22WecP38eTdN4+PAhURQRhiG+7zM3N8fDhw/xPI84jrFtm2KxyLlz5xgdHaWjowPLshT2EEVKyfNUqVSk4zhcvnyZ3/72tywuLpIkCZZlYVkWn376KaOjo6iqyv379wmCgCAI8DyP2dlZ6vU6QRAQxzGWZXH8+HE+/PBDhoeHaW9vx7IshT1EkVLyPK2trclarca//Mu/cOnSJSqVCqqqYhgGhUKBixcvcvLkSZIkYXt7myAI8DwPx3GYnZ3F933CMCSKImzbpq+vj5/+9KecPHmS3t5ehT1GkVLyPC0vL8tqtcrXX3/N5cuXqdfraJqGruuUy2XOnj1LZ2cnQgh2dnaIogjHcahWq6yvrxOGIWEYEoYh6XSaU6dOcfHiRU6cOEF7e7vCHqNIKXme5ubmZK1W46uvvuL69es4joOqqmiaxsmTJzlx4gStra0IIXBdFyEE9XqdSqXCw4cPieOYMAwJw5B0Os3Q0BAfffQR/f39FItFhT1GkVLyPF27dk36vs+lS5f4+uuvCcOQVCqFEIKBgQHa29vJ5/OoqorrugRBQL1eZ3d3F8/zCMMQ3/eJ4xjbtjl58iQffvghAwMDlMtlhT1GkVLyPH333XfS930uXbrEl19+SRRFpFIp4jhmaGiI9vZ2crkcqqriui5BEOA4Dq7r8v333xOGIUEQEMcxqVSKkydP8uGHHzIwMEC5XFbYYxQpJc/TzZs3ped5XLp0iS+//JIoikin08RxzPDwMK2treRyOVRVxfM8wjCkXq/jeR7r6+tEUUQYhsRxTCaT4eTJk3zwwQcMDAxQLpcV9hhFSsnzdPPmTen7PpcuXeKLL74giiIymQxxHHP27FlKpRL5fJ4kSfA8jzAMcV0Xz/O4e/cuYRgSxzFCCDKZDAMDA3z44YcMDAxQLpcV9hhFSsnzdPPmTen7PpcuXeKLL74giiIymQxxHDM8PExrayvZbJYkSfA8jyiK8DwP3/eZnp4mjmPiOEYIQTqdZmBggPfff5++vj5OnDihsMcoUkqep++++076vs+lS5f48ssviaKITCZDHMcMDQ1RKpXIZDIkSYLnecRxjOd5BEHA/Pw8cRwTxzFxHJNKpejr62NkZIS+vj7OnDmjsMcoUkqep2vXrknf97l06RJfffUVURSRTqeJ45hTp05RLBbJZrMIIfA8jziO8TyPIAi4d+8ecRwTxzFhGJLJZOjs7GRkZISuri7a29spFAoKe4gipeR5+vbbb6Xv+1y6dImvv/6aKIpIpVLEcczJkycpFotkMhmEEHieRxzHBEFAEARsbm4SxzFRFBFFEalUis7OTs6cOUNXVxflcplCoaCwhyhSSp6n27dvS8dxuHr1KlevXmVrawtN08hms5w6dQrTNNF1nTiOSZIETdMIggDHcVhaWiKKIuI4RtM0TNMkl8tx6tQp+vv7GRoaolQqKewhipSS52lqakrW63WuX7/O1atXWVtbQ9M0MpkMPT09pFIpDMMgSRKSJEFVVXzfx3EcHj58iO/7hGFIg2EYZDIZBgYG6O3t5fz582iaRqlUUtgjFCklz9Pc3Jx0HIcbN25w9epVFhcXUVUV27Y5fvw4mUyGVCpFgxCCBt/32dnZIY5jXNfFdV2iKEJVVWzbpqenh97eXj799FN0Xae1tVVhj1CklDxPc3Nz0vM8bt26xfXr15mbm0MIga7rlEoljh07RjabRVVVhBAkSUIQBOzs7PDWW2/x/fff47ouQRAQxzGmaVIul+nq6uLP/uzPsCyLcrmssEcoUkqep5mZGen7PpOTk9y8eZPp6WnCMKQhn8/T1NREPp9H13XiOCZJEqIowvd9kiRhZ2cHz/PwfZ84jtE0jfb2do4fP84vfvEL0uk0p0+fVtgjFCklz9PMzIwMw5DZ2VnGx8eZnp7GdV2EEKTTaUqlEseOHUNVVeI4RlVVhBBEUUQURezu7uL7PkEQEEURSZJQKBRoaWnh/fff5+jRo+TzeXp7exX2AEVKyfM2MTEhl5aWmJqaYnp6mnq9ThRF6LpOqVTi6NGjqKpKFEVomoamaSRJQhAEPH78mCAICMOQIAgIw5B0Ok2hUGB4eJhSqURTUxMjIyMKe4AipeR5m5ubk6urq8zOzjI9PU2tViMMQ4QQlEoljh49SpIkRFGEYRgYhkFDEAQ8efKEMAwJggDP8/B9H9M0yWazjI6O0traSktLC/l8no6ODoXXnCKl5HmbmpqSjuMwOTnJ1atXqVarCCEQQmBZFtlslkOHDqFpGoZhEEURDUmS0BBFETs7O9TrdYIgQNM0dF1ndHSUYrFIV1cXHR0dlMtlhdecIqXkeVtYWJCe5zE5Ocm3337LgwcPiKKIJEkwTZN0Os2BAwfQNA1d14miiAbDMGiI45hHjx7hui6e59Ggqio9PT0UCgW6u7vp6uoim81SKpUUXmOKlJIXYW5uTs7Pz3PlyhVWVlbwPA9N09B1nVQqxTvvvIOmaei6ThRFNKRSKVRVJUkSgiBgZ2cHx3GIogghBKnQVIIAACAASURBVNlslqamJnp7exkYGKBQKNDd3a3wGlOklLwIy8vLcnV1levXrzM7O0utVkMIga7rpFIpLMvirbfewjRNGlRVxTRNVFVFCEEURTx69AjHcQiCgCiKMAyDXC5HT08Pg4ODtLW1kcvlKBaLCq8pRUrJi7C6uiq3tra4desWExMT3L9/H8/z0DSNVCqFZVlYlsW7776Lruvouk4URTQIIRBC8OTJE1zXxfM8fN9H13XS6TRtbW0MDg7S09NDqVSivb1d4TWlSCl5EVZXV6XrukxPTzM+Ps76+jqVSgVVVbFtG9M0sW2bgwcPYpompmnieR5JkhBFEUmS8PTpU3zfx/M8fN9H0zQMwyCfz9PT08OJEyc4fvw4g4ODCq8pRUrJizIzMyOXlpaYmppidXWV2dlZGmzbxjAMLMvi4MGDWJaFaZq4rkscxzx9+pQkSWgIw5AgCAiCACEEDalUiuPHjzM4OEhPTw+ZTIbe3l6F15AipeRFWVxclBsbG0xOTrK2tsbY2BhJkmCaJpqmYVkWBw4cwLIsTNMkDEOiKOLHH3+kQVVV4jgmCAKCICCKIoQQ6LpOa2srJ0+epK+vj1wuh2ma9Pb2KrxmFCklL8ry8rKMoojl5WXu3r3LjRs3cF2XOI5pME0TXddpamoil8tRr9dJkoQkSYjjmGfPnhFFEVEUIYSgWq3SoOs6pmly/Phx+vv7GR4eprW1lWKxqPCaUaSUvEhzc3OyUqmwsrLC1atX2draIggCGizLwjAMjh07RiaTwfM8GoQQCCGQUhJFEXEckyQJtVoNIQSapqHrOoVCgZ6eHk6dOkVrayumadLR0aHwGlGklLxIy8vLsl6v8+DBA65cucLdu3ep1WokSYJt21iWxZEjR7BtmyAIaFBVlSRJSJKEZ8+eIYQgSRIcxyGKIuI4RghBNpulra2NwcFBmpubKZfLqKpKe3u7wmtCkVLyos3NzUnHcbh+/TpjY2MsLy8TxzGmaWJZFplMBsMwUBQFVVVpUFUVIQRSSpIkIUkSwjAkCAKCIMD3fSzLIp/P09nZSaFQ4OOPP0bXdcrlssJrQpFS8qKtrq5K3/eZnZ3l5s2bTE5OEgQBuq6jaRq2bWMYBu+88w6qqtKgqipJkvBvkiTh2bNn+L6P53l4nkdDKpWipaWFbDbLL37xC1KpFOl0mo6ODoXXgCKl5GWwsLAgt7a2GBsbY2xsjFqtRpIkxHGMZVkYhsGRI0dQVZUkSdA0DSEEDUII/s2TJ0/wfR/XdRFCYBgG2WyWVCrFuXPnOHbsGMVikdOnTyu8BhQpJS+DhYUFGUUR09PTjI+Ps76+jud5+L6PYRhYlkVzczOqqiKEQNM0hBA0xHFMg5SSOI4JwxDXdYnjmIZ0Oo1pmnR2dtLe3k5PTw+tra0Ui0WFV5wipeRlsbi4KBcWFpienmZxcZGHDx/iOA66rmPbNsePH0dVVYQQqKpKHMc0xHGMlJIkSRBCEMcxnucRxzFJkmCaJoZhcOjQIXp7exkaGqJcLlMqlRRecYqUkpfF8vKydF2Xzc1NpqammJ+fp1qt0qCqKqdOnUIIQRRFqKqKqqo0hGHI06dPUVWVt956i4bd3V2CIMD3fRo0TUNVVQYGBnj//ffp6urCMAz6+/sVXmGKlJKXydTUlNza2mJ+fp6FhQXW19eJoogkSSgWiyRJQsM777yDruvouo4QgjiOieMYTdNoePLkCZ7n4XkeQggaNE2jo6ODoaEhurq6yGazvPfeewqvMEVKyctkcXFRep7HvXv3WFhY4O7du9RqNcIwJJVKoaoquq5z4MABTNPENE3iOEYIgRACTdNoCMOQ3d1dXNclDEOEEGiaRi6Xo7Ozk97eXlpaWsjn8/T39yu8ohQpJS+bubk5WavVWFlZYWZmhqWlJVzXxbZtGgzDwLIs9u/fj67rCCEQQmBZFqqq0hDHMbu7u7iui+d5xHGMpmkYhkE+n6ezs5P+/n6OHz+ObduUy2WFV5AipeRlND4+Ljc2NpidnWV2dpZqtYqqqiRJgqZpWJaFbdvs37+fJElIkgTbtmlIkgQhBEEQsLu7i+u6RFGErusIITBNk+bmZgYHBxkYGCCbzXLixAmFV5AipeRlNDc3J+v1OisrK8zMzLC5uUm1WkUIQYNpmmSzWQ4ePIhpmmiahqqqCCGI45iGMAz54YcfcF2XMAxRVZUoikiShEwmQ19fH4ODg7S0tJBOp+nt7VV4xShSSl5W4+PjslKpsLS0RKVSYXZ2liiKiOMYTdNIp9Ok02kOHDiArutomkYURURRRJIkCCF49uwZvu8ThiFCCKIoIggCDMOgo6ODgYEBenp6KBQKvPfeewqvGEVKyctqYWFB1mo1VlZWqFarTE9P43keYRgihMAwDFKpFAcOHEDXddLpNGEY4vs+/94PP/xAGIb4vk8URQRBQEOhUGBgYIDBwUHa2toolUoUCgWFV4gipeRlNjU1Jev1Oru7u9y+fZu7d++ytbWFEAJVVWmwLItMJsOhQ4f4N0mSIIRACMGPP/6IEAIhBI7jEAQBSZJgWRalUonR0VGGhobI5/O0t7crvEIUKSUvuytXrsggCJidnWVxcZH19XWCIEAIQZIk2LZNOp3m4MGDNKiqiqqqRFFEkiQ8e/aMJElocBwH13URQqDrOtlsllOnTjE4OEhPTw+aplEulxVeEYqUkpfd7du3ZRRFrK+vs7y8zMrKCtVqlSiKiKIIy7KwLItUKsVbb72FpmmoqkqSJPx7SZKws7OD53mEYYgQAtM06erqolwuc/HiRQzDYHBwUOEVoUgpeRVMTU3JarXK5uYmy8vLLC0t4TgOQRCg6zq6rpPJZNA0DV3Xefvtt9E0DU3TSJKEhiiKePToEUEQEAQBURSRJAmFQoGWlhY++eQT0uk0qVSKwcFBhVeAIqXkVXHlyhXpOA737t1jamqKBw8e4LouDUIIcrkcuq5jGAaGYbBv3z50XUfTNFRVZXt7myAIiOOYKIoIw5A4jkmn0xQKBUZHR8nlchw7dox8Pk97e7vCS06RUvKquHbtmoyiiAcPHjA+Ps76+jr1ep04jgmCgGw2i67rGIaBaZrs27cPwzDQNA1VVdne3iaKIlRVRQiB7/v4vo9lWWSzWdra2iiVSnR1ddHa2kq5XFZ4ySlSSl4l4+Pjsl6vMzY2xurqKtvb2wRBgOu62LaNpmlYloVpmui6zr59+9A0jYbd3V2EEOi6TpIk+L5PrVbDMAxs2yaVStHZ2cnp06fp7Oykv79f4SWnSCl5lczMzEjf97lz5w7Ly8s8fPgQz/NwHAdN09B1HdM0MU0TXdfZt28fmqahqio//PADSZKwf/9+kiTh0aNHbG1toaoqlmWhaRo9PT2MjIzQ09ODaZqUy2WFl5gipeRVsry8LIUQhGHI7Owsv/vd79jc3EQIgaZpJEmCqqoYhoFt2+zfvx9N02jQNI0oivjhhx+IoogkSQjDkDAMCcOQTCZDW1sbg4OD9PT0YNs2p0+fVniJKVJKXjVzc3MyjmPu3bvHtWvXWFlZwfd9kiRBCEGDYRikUineeecdNE1DVVWEEAghePr0KUIIkiQhDEOiKCIIAizLolAo0NXVRV9fH7lcjkwmQ7lcVnhJKVJKXkUzMzPScRymp6eZmpriwYMHBEGAEIIkSdA0jVQqRSqVYt++fWiaxpMnT0iShAZVVVFVlTAMCYIA3/dRVZVUKkVTUxMnTpygq6uLYrFIuVxWeEkpUkpeRQsLCzKKItbW1picnGRpaYmtrS3iOEYIgaqq2LZNKpVi//79aJrG06dPaVAUBU3TSJKEJ0+e4Ps+nuehqiqappHJZDh58iTDw8N0dHRQLpcVXlKKlJJX1eLionQch+npaWZmZpifnyeKIqIoosE0TVKpFLZts2/fPgzDoCFJEhqEEOzu7uJ5Hp7noes6QghSqRQDAwOMjIzQ19dHb2+vwktKkVLyKhsfH5crKyvMzc0xNjaG7/tEUUQcxxiGQSqVwrZt3n77bTKZDEmSEEURDXEc8/jxYzzPw/M8dF0njmMsy6Kzs5ORkREGBgZIp9O0t7crvIQUKSWvsomJCbm1tcXS0hK3bt3CdV183yeKIjRNw7ZtUqkUuq5z9OhRhBCEYUiSJCRJwo8//kgQBARBgO/7CCGwLIu2tjYGBwcZGBggn8/T29ur8BJSpJS8ysbHx6XjOKyvr3Pt2jV2dnbwPI8gCFBVFdu2sW0bwzA4evQocRwTRRFJkpAkCc+ePSOOY6IoolKpkCQJtm1TLBbp6+tjYGCAUqnEiRMnFF5CipSSV913330nwzDk8uXLTE5Osra2RhRF6LqOZVlks1kOHDjA06dPefvtt9F1HcMwSJKEMAx5/PgxURQRBAGu62LbNplMhmPHjvGTn/yE4eFhSqWSwktIkVLyqrt586aMoojJyUnGx8eZn58nCAJUVcUwDDKZDLZto+s6+/btQ9d1NE2jIYoinjx5QhzHeJ6H4zhYloVt2xw5coSf/vSnnDt3DiEE5XJZ4SWjSCl51U1MTMgoitjc3OTmzZtMT09Tq9VQVZUG27axLIvDhw+jaRqapqFpGg1xHBNFEc+ePcNxHOr1Opqmoes62WyWTz75hAsXLqBpGuVyWeElo0gpeR3cvn1b1mo1bt26xdjYGFtbWzQkSYJpmpimSVNTE5qmoes6qqrSIIQgjmOEEOzs7FCr1UiShIZ0Os3HH3/MJ598gmmadHd3K7xkFCklr4OJiQlZrVa5desWY2NjbG1tIYQgSRJM08QwDIrFIvv27UPTNHRdp0EIQRzHPH36FNd1qdfrCCEQQmCaJh9//DG/+MUvsG2bEydOKLxkFCklr4Px8XHpeR43btxgbGyMSqVCFEUkSYKu65imSS6XwzAM9u/fj2EYqKpKFEWEYciPP/5IGIbU63WEEMRxjKZpXLx4kc8++4xUKsXp06cVXjKKlJLXwcTEhBRCcOPGDa5fv87GxgZhGCKEQNM0DMPAtm0sy+LAgQPYto2qqoRhyO7uLmEYIoTAdV0awjCk4cKFC3z66aekUinOnDmj8JJRpJS8DsbHx6Vpmty4cYNvv/2We/fuEQQBURShaRq6rmMYBrZtc/jwYVKpFKqqEgQBOzs7BEGAqqq4roumaQRBQJIknD9/nk8//ZRUKsXIyIjCS0aRUvK6mJubk5OTk1y5coXJyUmiKKJB13UabNvGtm0OHTqEZVnEcUwURcRxjJSSMAwJggDP8wiCANM06enp4YMPPqCvr4+RkRGFl4wipeR1MTc3J6enp7ly5QqTk5OEYUiSJBiGQUM2m8WyLN599110XSeOY6Io4tmzZyRJQhzHBEGA53kEQYBpmvT09PDBBx/Q19fHyMiIwktGkVLyupibm5Ozs7N8++233LlzhyAISJIEwzBQVZVSqcS+ffswDIOGH374gTiOSZKEhiRJCIIAz/MIggDTNOnp6eGDDz6gr6+PkZERhZeMIqXkdbGwsCDn5+e5du0aY2NjuK5LkiSYpommaXR1daFpGg1xHPP48WPiOKZBVVVUVSUIAjzPIwgCTNOkp6eHDz74gL6+PkZGRhReMoqUktfFwsKCXFxc5MaNG9y6dYt6vY4QAtM0MQyDgYEBVFUlSRLCMGR3d5c4jmlQVRVN0wiCAM/zCIIA0zTp6enhgw8+oK+vj5GREYWXjCKl5HWxsLAgl5eXuXXrFjdu3KBWqxHHMdZ/bw9un5u4DkePf3d7urPdbDbLepGFEIqxjWODAed5QuuYlGbSTOq6mbzqi06n/2H7opM6hjhtSJzECYUAxjGyUWRVCCHEer1ZDicne+7V3Nu5vb2d3t9DHzwOn4/v43kezz77LH+W5zk7OzvkeU5RFNi2jRCCLMtIkoQsy/A8jxMnTnD27FlOnjzJmTNnLPYYyxjDfrG2tmbq9Tqrq6usrKzQarWQUhIEAb7v8/TTTyOEYEApRb/f58GDByilGBBCkGUZSZKQZRme53HixAnOnj3LyZMnOXPmjMUeYxlj2C/W1tbM1tYWq6urfPDBB7RaLaSU+L5PEAQ8/fTTCCEQQqCUIkkSvvrqK6SUDNi2TZZlJElClmV4nseJEyc4e/YsJ0+e5MyZMxZ7jGWMYb+4dOmSuXnzJh9++CEff/wxvV4PpRRBEOB5HlNTU/i+T1EU5HnOgwcP+M53vsPXX39NlmVorel0Oti2jVIKKSUvvPACb731FkePHuWFF16w2GMsYwz7xbVr18yNGzf48MMPWVlZodfrobXG931c1+XEiROEYUhRFOR5zu7uLgNSSrIsQwhBu93Gtm201iilePHFF3nzzTcZHR3lmWeesdhjLGMM+8XGxoa5du0a77//PisrK/R6PbTW+L6P4zicOHGCKIqwbZssy9jZ2UFrjZSSNE0JgoBWq4Vt2xRFgdaal156iTfffJORkRGmp6ct9hjLGMN+sbW1ZS5fvszy8jIrKyskSYLWGt/3EUIwPj7O8PAwrusipaTX6/HNN98gpSTLMoIgoNFoYNs2fzY7O8vCwgK1Wo2JiQmLPcYyxrBfbG1tmc8++4x33nmHjz/+mDRNGfB9H9u2qVarHDlyhDAMUUrR7/eRUvLw4UPyPMfzPLa2thiwbRvHcZibm2N+fp5qtcro6KjFHmMZY9gvNjY2zMcff8zvfvc7VldXUUox4Ps+tm1TrVYZGxsjjmO01nQ6HbIs4+HDh+R5juu61Ot1tNY4joPneZw7d4433niDcrnM6OioxR5jGWPYDxqNhsmyjA8++IC3336bzz//HKUUQgiCIGBgcnKSY8eOUSqVyPOcZrNJv9/nq6++Is9zfN9nY2ODoihwHIcgCDh37hxvvPEGpVKJ0dFRiz3GMsawHzQaDdPv9/nggw94++23WV9fRymFEIIgCBh49tlnmZiYII5jsiyjXq9z9+5dkiQhyzKiKGJjYwOtNa7rEoYh586d44033qBUKjE6Omqxx1jGGPaDer1upJQsLy9z4cIFrl27htYarTVBEOD7Pk8//TTVahXf90mShFarxc7ODnmek2UZhw4dYnNzkzRNkVISBAELCwu88cYb+L7PqVOnLPYYyxjDflCv142UkuXlZZaWllhbW0MpRVEUhGGI7/s8//zz1Go1fN+n1+tRr9e5f/8+UkqklHieR7PZpCgKbNsmiiIWFhZ47bXXcF2XiYkJiz3GMsawH9TrdZPnOcvLyywtLbG+vo5SioEwDAmCgLm5OUZGRvA8j2azyeeff86dO3fQWjMgpaTX6+G6Lr7vUy6XmZ+f59y5cziOQ7VatdhjLGMM+0G9XjdZlrG8vMzS0hIbGxsopRiI45gwDHnttdeo1WoIIdjY2GB1dZVOp4Nt2wghSNOUJElwXZcgCKhUKiwsLPDqq69SrVYt9iDLGMN+UK/XTZqmLC8vs7i4SL1eR2vNQLlcJooi5ufnKZVKaK1ZX1/ns88+o9frYds2QgjyPKff72PbNq7rUqlUeOutt3jttdcYGRmx2IMsYwz7Qb1eN0mScOHCBZaWltja2kIphRCCSqVCHMfMz8/j+z5pmrK+vs4XX3xBmqYMFEWB1pp+v49t27iuS6VS4c033+T111+nVqtZ7EGWMYb9oF6vmyRJuHDhAouLizQaDZRSCCGoVquUSiXm5+cZaLfb1Ot1/vSnP6G1ZiDPc/I8J8syXNcliiIqlQoLCwu88sorVCoViz3IMsawH9TrddPv97lw4QKLi4s0m02UUjiOQ7VapVQqMT8/j5SSRqNBo9Hg3r172LaN1posy+j3+0gpiaKISqXCkSNHeP311/nBD35AHMcWe5BljGE/aDQaJkkSfvOb37C0tES73UYpxUAURUxOTnLu3DnyPCdJEpIk4fbt2/R6PbTWCCHodrskSUIQBJTLZY4ePcr8/DxnzpyhVCpZ7EGWMYb9oNFomCRJ+O1vf8vS0hLNZhOlFANRFDExMcHc3BxKKbIsI01TOp0Ou7u7FEWBEIJ6vU6apvi+T6lU4ujRo8zPz3PmzBnK5bLFHmQZY9gPGo2GSdOUxcVFlpaWqNfrKKUYiOOYkZERvv/972PbNlJK0jQlSRLyPEdrTVEUXL9+nTRN8TyPOI45cuQIP/3pT5mdnaVarVrsQZYxhv2g0WiYLMtYXl5maWmJtbU1lFIURUEcx1QqFWZnZ/E8D601/X6fXq+HlBKtNQ8fPmR9fZ00TXFdlzAMGRkZYX5+ntnZWUZGRiz2IMsYw37QaDRMlmWsrKywtLTE5cuXkVIyEMcxURQxNzdHFEVoren1enQ6HbTW5HnOzs4OrVaLNE0RQhAEASMjIywsLDA7O8v4+LjFHmQZY9gv1tbWzOrqKufPn2d1dRUpJQNxHON5HrOzs1QqFQba7Tb9fp+BNE25c+cO3W6XJEkQQuD7PrVajYWFBebm5piYmLDYgyxjDPvF+vq6+eMf/8j58+dZWVkhz3OEEERRhBCCl156iZGREYQQdDod+v0+QgjyPGd7e5t2u02v18O2bcIwpFarsbCwwOzsLJOTkxZ7kGWMYb9YX183V69e5fz587z//vvkeY4QgiiKsG2b559/nvHxcVzXpdvtkqYpruuSZRnb29vU63V6vR62bRMEAbVajYWFBebm5rBtm4mJCYs9xjLGsF+sra2ZZrPJysoKb7/9Np1Oh4EgCLBtm9OnT3PmzBmGh4e5ffs29XodKSVpmnL37l22trZwHAetNVJKyuUy586dY3Z2lkqlwszMjMUeYxlj2C/W1tZMu91mdXWVxcVFGo0GRVEQhiEDk5OTzM7OcuTIEe7evcv6+jppmrKzs0Ov16PVaiGEQCmFlJJSqcQrr7zC3NwcIyMjnDp1ymKPsYwx7Bfr6+um2+1y5coVFhcXqdfr5HlOEAQMTE5OMjc3x9TUFGmacvXqVTqdDv1+n52dHVqtFkVRIKVESkkURczOzvLyyy8zNjbGCy+8YLHHWMYY9ou1tTWTpinXr1/nnXfe4ebNmyRJguM4aK05deoUr7zyCidPnqQoCq5fv06z2aTT6bC7u0uz2URKSZ7nSCkJgoBnn32Ws2fP8tRTTxHHMdPT0xZ7iGWMYT/59NNPza1btzh//jxXrlyh2+1i2zZFUTA+Ps6LL77I6dOnCYKA7e1tms0mzWaTnZ0dut0uaZqSpilKKTzPY3JykpdeeompqSlGRkZ45plnLPYQyxjDfnLt2jXTarVYXl5mdXWVdrtNURRorYnjmKmpKaanp6nVamRZRrvdptFocO/ePfI8p9PpkGUZWmscx6FcLvP0009z/PhxTp8+TRAETE9PW+wRljGG/aTRaJhut8vvf/97VlZW2NraQmuNUgrf96lWq4yNjXHq1Clc1yVJEur1Op1Oh/v379Nut8nzHK01Qgh83+fYsWNMTk7yyiuvEIYhMzMzFnuEZYxhP2m32yZJEt5//33+8Ic/sLm5iVIKKSVhGBJFEU8++SQvvPACQ0NDSCm5efMmrVaL7e1tWq0WeZ5TFAUDQgjGx8c5duwYr732GlEUEccxIyMjFnuAZYxhv9nY2DDtdpvl5WUWFxfpdrvYto3WmiiKmJqaYmZmhqNHj+J5Hnfu3KHf79NqtWi323z55Zf0ej0GhBBUKhU8z+PVV1/l9OnTjI+PU61WLfYAyxjDfrO1tWU6nQ7vv/8+i4uLtFotiqKgKAqCIKBWqzE1NcXk5CQHDhxgd3eXPM9pNpu0221u3bpFp9NBKYVt25TLZTzP48UXX+T06dNMTEwQRRHVatXi38wyxrDfNJtN0+v1WF1d5cKFC2xsbJDnOUVRIISgUqlw9OhRJiYmqFarCCEoioJms0mn0+HWrVvU63XyPEdrTRzHuK7LU089xfHjx5mamqJarTIzM2Pxb2YZY9iPrl27Zq5fv85HH33EZ599Rr/fJ01ThBBEUcTIyAhTU1PUajUcx8G2bbIso9frUa/X2dzcpN/vk2UZvu/jOA7VapWjR49y/Phxjh07RhRFPPPMMxb/RpYxhv1ofX3dNJtNrl+/zieffMLm5iadToeBIAio1WpMTU1RrVZxXZcB27bJ85xWq8WtW7dot9t0u12EENi2TRzHlEolxsbGmJ6e5tChQ5RKJWZmZiz+TSxjDPvR+vq66ff7bG9v8+mnn3L16lW2trYoigIhBKVSiWPHjlGtVvE8DyEErusy0O/3abVabG9v02w2UUpRFAW+7+N5HtVqldOnT1Or1Th06BBhGPLcc89Z/BtYxhj2q8uXL5skSfjjH//IpUuXuHnzJnmeI6XEdV1GR0c5evQoYRjieR4Dnuehtabb7bK1tcXm5iZZlqG1RghBURSEYcjJkycZHx+nWq1y8OBBarUak5OTFv9iljGG/erzzz83SimuXLnCp59+yubmJkmSkCQJA9VqlbGxMcrlMmEYIqUkDENs2yZJEra2tvjiiy9I0xSlFEop8jzH932mp6cZGxujVqtx6NAhRkdHcRyH6elpi38hyxjDfvbRRx+ZbrfL/fv3eeedd7hx4wa9Xo+BKIoolUo8+eSTlMtlgiAgiiJc10VrTaPRoF6vc+fOHfI8J8syiqLAtm1s2yYMQ8bGxpiZmeHJJ5/E933CMGRmZsbiX8QyxrDfvfvuuyZJEhYXF7l+/TrtdhutNUEQ4Ps+5XKZAwcOcOrUKeI4xnVdLMvizp07NBoNms0mu7u7rK+v85eCIKBarfLUU09RqVQ4duwYYRgSBAEzMzMW/wKWMYb97tKlSyZNU1ZWVrh27Rqbm5ukaYpt22itCYKAIAiYm5sjjmOiKOLxxx9nZ2eHdrtNq9UiTVM++OADtNYopdBa4zgOURRRrVYZGhrimWeeIYoiDh48SKlUYmZmxuKfzDLGsN+tr68bKSWtVosrV66wtrbGrVu3yLKMLMtwHAff93nxxRcplUqUy2UOHjzI2dQdzQAACbtJREFUN998Q5IkdLtd0jTliy++IE1T+v0+/X4frTWO41AqlfB9n7GxMUqlEtVqlSNHjhBFEVEUMTk5afFPYhlj+DZYX183SimuXr3K5cuXuXHjBp1Oh16vx4Dv+xw/fpyhoSEqlQq1Wg3P8yiKgn6/T5ZlpGlKt9vlyy+/pNVqkWUZA47j4DgOcRwTxzGHDx+mVqtRLpcZHh4mjmNmZmYs/gksYwzfFvV63WxsbHDjxg02NjbY3Nyk2WyilEIIwfj4OEEQcPjwYUZHR4njmO9973vs7u4ipUQpRafTodlssr29TZIkSClRSqG1xvM8fN+nXC5z8OBByuUy1WqV4eFhoijC932ee+45i38gyxjDt8XGxobpdrt0u11u377NxsYGV65codfrobUmCAJ832d4eJjx8XHK5TJxHCOlRGtNnudkWUaWZSRJQpqm3L59m263S5qm+L6PEALXdXFdlzAMGR4eplarEUURw8PDuK6L53mcPXvW4h/AMsbwbfPJJ5+YLMu4efMmFy9eZHt7mzRNSdMU13Upl8scPXqUWq1GuVxmoCgK8jynKAps26YoCvI8p9FosLm5SbvdxvM8iqLAtm2KosB1XeI45vDhw8RxTLVaxfd9nnjiCeI4xvd9ZmZmLP4bLGMM30aXLl0y7XabGzducPnyZba3t2m1WvxZFEWMjY0xPj5OrVYjCAI6nQ5FUaC1RilFmqbkeU6e5yilePDgAd1ul36/T5ZlCCHwPI8oinAchyiKOHDgAJVKhZGREYaHh4njmOeee87iv8gyxvBtdO3aNdPv99nc3GRjY4Nms8n169eRUqKUQghBtVrlySefZGRkhCAICIKAoijI8xylFFJKpJRIKSmKgjzPuXfvHr1ej263i23baK2xbZuiKCiXywRBwNDQENVqlXK5zPDwMJ7n4bouP/zhDy3+kyxjDN9W165dM51Oh+3tbTqdDp999hndbpder0ee5/i+T7lc5vDhwwRBwPT0NANaa4qiQClFURQopSiKgoEkSej3+9y9e5c0TUmShDRN0VoTRRGO4+B5HlEUcfDgQSqVCqVSiSAIOHjwIJ7n8fLLL1v8B1nGGL7NLl26ZDqdDvfv32dra4tms8nm5ibtdhutNb7vE8cxnudx7NgxXNfF93183+fPlFJorXFdlzzPSdOUNE1J05S7d+/S7XbJsgwhBEVRMOC6LmEYMjw8TKVSIQxDqtUqQRAwNDREuVzm+PHjFv8fljGGb7v33nvPZFnG/fv3aTQarK+vc/PmTbIsQ2uN67oIISiVSjzxxBOUy2XK5TK+7+M4Dnmeo7XGtm201hRFgdYaKSVpmtLr9djd3aXVaqGUQimF1hrHcQjDkFKpxGOPPcbo6ChRFFGpVDhy5AhRFDE9PW3xd1jGGB6B8+fPmzRNuX37Nq1Wi83NTXq9Hr1eDyklUkpKpRJhGDI0NESlUiGKIjzPY8C2baSUDBRFgeM4CCHQWpNlGVJKrl69Sp7nZFlGnudIKbFtG8/zEEJw7NgxwjCkUqlQq9UYGhoijmMcx+G5556z+BssYwyP/C/vvfeeSZKEe/fu0Wq16PV6fPnll3Q6HXq9Hp7n4TgOrusSBAFPPPEEcRwTBAGe5yGEoCgKtNY4joPjODiOQ1EUaK1pt9vkeU6apty9e5c8z0mSBK01WmvK5TKe53HgwAGq1SqVSoVKpcITTzyB7/u8/PLLFn/FMsbwyP9x8eJFI6Xk3r179Ho91tfXuXXrFq1WC601SimUUti2TRAEVCoVhoeHieOYUqmEUgqlFEIIXNfFdV3+TAhBnufkeU673ebevXu0223yPCfLMgZc1yUMQ8rlMocPH2ZkZIRSqcTjjz/OT37yE4u/YhljeOT/dvHiRZPnOffu3aPdbtNqtej3+9y6dYssy8jzHCkljuPgeR5RFCGEwHVdDh48SKlUIo5jbNvGcRyEELiui23bpGlKv99HSklRFEgpSdOUnZ0dOp0OWmu01ti2TbVa5ciRI0xMTBDHMUNDQ/zoRz+y+AuWMYZH/l+XLl0y/X6fu3fv0ul0SNOUjY0N7t+/T7/fJ01TiqKgKAoGiqKgWq0ShiEHDhwgDEMcx8H3fTzPw/M8/pIQAq01eZ6TpilZlnHjxg3yPEdKidaaKIo4dOgQ4+PjxHHM8PAwnufx4x//2OJ/s4wxPPK3Xb582SRJQr/f58GDB7RaLfr9Pt1ul9u3b5OmKWmakmUZSimCIMBxHBzHwXEcXNclCAKGhobwfZ8wDAnDkCiKeOyxx/jmm2/I85wsy1BKsba2xu7uLkmSkGUZjuMQhiGHDh0iCAJGR0fxfZ/HH3+cOI45c+aMZRljeOTvu3jxolFKIaVkZ2eHXq9Hu92m1+tx+/Zter0eWZZRFAVaa5RSaK0RQhAEAVEU4fs+jz/+OKVSiVKphO/7SClRSqG1RghBkiTkeU6apnz11VdorRFC4DgO3/3ud5mcnMTzPMIwZGhoiDAMsYwxPPIf88knn5gsy0jTlJ2dHdI0pdvt0u12SZKEhw8fkqYpSZKQZRlaaxzHIQgCHMdBa00QBPi+j23bKKUYcByH733ve5RKJYqiQGtNURRIKZFS8vXXX6O15qmnnsJ1XTzPI4oiDhw4gGWM4ZH/nPfee89IKZFSsru7S5IkZFlGp9Oh3+9z//59+v0+Wmu01hRFQVEUCCEYUEpRFAVFUeC6Lq7r4vs+U1NTCCEQQmDbNlprlFIopVBKMTIyghACx3HwfZ8gCLCMMTzyX/Phhx8aKSVZlvHgwQO63S5JkpAkCUmSoJTi4cOHZFlGnucMSCmRUlIUBa7r4nkeQgiEEBw5cgTbthFC4DgOQgiEEAghGCiXy/yZEALf97GMMTzy3/Phhx8aKSVCCNI0ZWdnhyzL0FqTZRlJkpAkCXfv3iXLMvI8x7ZtwjDksccew7ZtlFK4rsuAbdsIIfB9nyAI8H0fz/OIogitNUVR8Mtf/tLif7KMMTzyj/HJJ58YKSV5nqOUQmvN119/jZQSKSWdToeiKNBao5RCa41SCqUURVEQBAG2beO6Lq7r4rouvu/jeR5CCB577DF+9rOfWfwFyxjDI/887777rpFSIqXkwYMHaK1RSiGlRCmFlBKtNVprbNtmQAiBEALHcfA8D9/3EULw85//3OKvWMYYHvnXuHjxotFao5Qiz3MePnyIlBKlFFpriqJAa43WmgEhBK7r4nkev/jFLyz+BssYwyP/eu+++67RWiOlRGvNN998Q1EUKKWQUqKUwrZthBC4rssvfvELi7/BMsbwyN7x61//2jx8+BApJUVR8Ktf/cri7/gfp+nYn4jpBnIAAAAASUVORK5CYII=;" vertex="1" parent="1">
          <mxGeometry x="187" y="661" width="112" height="224" as="geometry" />
        </mxCell>
        <mxCell id="C5NoB3EoUQN5JIVtnTHw-18" value="" style="ellipse;whiteSpace=wrap;html=1;fillColor=#FFFFFF;gradientColor=none;opacity: 0.5;fillOpacity=0;strokeOpacity=100;strokeWidth=2;strokeColor=#1A1A1A;" vertex="1" parent="1">
          <mxGeometry x="201" y="730.92" width="55" height="52" as="geometry" />
        </mxCell>
        <mxCell id="C5NoB3EoUQN5JIVtnTHw-19" value="&lt;font style=&quot;font-size: 22px&quot; color=&quot;#000000&quot;&gt;Template image&lt;/font&gt;" style="text;html=1;strokeColor=none;fillColor=none;align=center;verticalAlign=middle;whiteSpace=wrap;rounded=0;fontSize=16;fontColor=#FF4040;" vertex="1" parent="1">
          <mxGeometry x="202" y="660" width="246" height="19" as="geometry" />
        </mxCell>
        <mxCell id="C5NoB3EoUQN5JIVtnTHw-20" value="" style="edgeStyle=orthogonalEdgeStyle;elbow=vertical;endArrow=classic;html=1;strokeWidth=2;fontSize=16;fontColor=#000000;strokeColor=#000000;entryX=0.1;entryY=0.5;entryDx=0;entryDy=0;entryPerimeter=0;" edge="1" parent="1" target="C5NoB3EoUQN5JIVtnTHw-12">
          <mxGeometry width="50" height="50" relative="1" as="geometry">
            <mxPoint x="446" y="719" as="sourcePoint" />
            <mxPoint x="680" y="719.0195238095234" as="targetPoint" />
            <Array as="points" />
          </mxGeometry>
        </mxCell>
      </root>
    </mxGraphModel>
  </diagram>
</mxfile>
